<svg width="385" height="60" viewBox="0 0 385 60" fill="none" xmlns="http://www.w3.org/2000/svg">
<path d="M6.33984 21.0104H11.1528C12.0299 21.0104 12.8396 20.9729 13.5818 20.898C14.3315 20.823 14.9837 20.7368 15.5385 20.6393C16.1832 20.5344 16.7717 20.4107 17.304 20.2682L16.753 22.09C16.663 22.0825 16.5281 22.075 16.3481 22.0675C16.1682 22.06 15.9658 22.0525 15.7409 22.045C15.5235 22.0375 15.2911 22.03 15.0437 22.0225C14.8038 22.0225 14.5751 22.0187 14.3577 22.0112C14.1403 22.0112 13.9454 22.0075 13.773 22C13.608 22 13.4881 22 13.4131 22H3.25864V21.7189L14.2115 6.86387H9.98331C9.09868 6.86387 8.28153 6.90511 7.53184 6.98757C6.78965 7.06254 6.14118 7.14501 5.58641 7.23497C4.94168 7.34742 4.35693 7.47112 3.83215 7.60606L4.60807 5.78433C4.69803 5.79183 4.83298 5.79932 5.0129 5.80682C5.20032 5.81432 5.40274 5.82181 5.62015 5.82931C5.84505 5.83681 6.07745 5.8443 6.31735 5.8518C6.55725 5.8518 6.78591 5.85555 7.00331 5.86305C7.22072 5.86305 7.41189 5.86679 7.57682 5.87429C7.74925 5.87429 7.87295 5.87429 7.94792 5.87429H17.304V6.17791L6.33984 21.0104ZM19.2719 9.91134C20.0066 9.91134 20.76 9.91134 21.5322 9.91134C22.3044 9.90384 23.0203 9.89635 23.68 9.88885C24.3398 9.87386 24.9058 9.85886 25.3781 9.84387C25.8579 9.82888 26.1727 9.80638 26.3227 9.7764L25.8841 10.9909C25.6817 10.9384 25.453 10.8897 25.1982 10.8447C24.9732 10.8072 24.6996 10.7735 24.3772 10.7435C24.0624 10.706 23.695 10.6873 23.2752 10.6873C23.1253 10.6873 22.9528 10.6948 22.7579 10.7098C22.563 10.7173 22.3756 10.7285 22.1957 10.7435C21.9858 10.7585 21.7721 10.7735 21.5547 10.7885V15.2304C22.1619 15.2229 22.7092 15.2079 23.1965 15.1854C23.6838 15.1629 24.0999 15.1329 24.4447 15.0954C24.8495 15.0654 25.2056 15.0242 25.513 14.9717L25.2431 16.3099C24.8308 16.2574 24.4147 16.2124 23.9949 16.175C23.6351 16.1375 23.2377 16.1075 22.8029 16.085C22.3681 16.055 21.952 16.04 21.5547 16.04V21.1454C22.2519 21.1454 22.8929 21.1191 23.4776 21.0666C24.0624 21.0067 24.5722 20.9429 25.007 20.8755C25.5168 20.793 25.9778 20.6993 26.3902 20.5943L26.1315 22.0675C26.0191 22.06 25.8354 22.0487 25.5805 22.0337C25.3331 22.0262 25.0707 22.0187 24.7933 22.0112C24.5234 22.0112 24.2685 22.0075 24.0286 22C23.7887 22 23.6238 22 23.5339 22H19.2719V21.955C19.3244 21.7976 19.3694 21.5952 19.4068 21.3478C19.4518 21.1004 19.4856 20.7968 19.508 20.4369C19.538 20.0696 19.5605 19.6347 19.5755 19.1325C19.5905 18.6302 19.598 18.0417 19.598 17.367V14.5331C19.598 13.8584 19.5905 13.2737 19.5755 12.7789C19.5605 12.2766 19.538 11.8455 19.508 11.4857C19.4856 11.1183 19.4518 10.811 19.4068 10.5636C19.3694 10.3162 19.3244 10.1138 19.2719 9.95632V9.91134ZM31.1806 16.5236C31.3306 16.546 31.4768 16.5685 31.6192 16.591C31.7691 16.606 31.9153 16.6135 32.0578 16.6135C32.4851 16.6135 32.8749 16.5498 33.2273 16.4223C33.5871 16.2874 33.8907 16.0887 34.1381 15.8263C34.393 15.564 34.5879 15.2304 34.7229 14.8255C34.8653 14.4207 34.9366 13.9484 34.9366 13.4086C34.9366 12.9738 34.8878 12.5802 34.7904 12.2279C34.6929 11.8755 34.5467 11.5756 34.3518 11.3282C34.1644 11.0734 33.9282 10.8784 33.6433 10.7435C33.3585 10.6011 33.0286 10.5298 32.6538 10.5298C32.4139 10.5298 32.2002 10.5411 32.0128 10.5636C31.8329 10.5786 31.6792 10.5973 31.5517 10.6198C31.4093 10.6498 31.2856 10.6798 31.1806 10.7098V16.5236ZM31.1806 17.2995C31.1806 17.9742 31.1881 18.5664 31.2031 19.0762C31.2181 19.586 31.2369 20.0283 31.2594 20.4032C31.2893 20.7705 31.3231 21.0816 31.3606 21.3365C31.398 21.5914 31.443 21.7976 31.4955 21.955V22H28.8978V21.955C28.9503 21.7976 28.9953 21.5952 29.0328 21.3478C29.0778 21.1004 29.1115 20.7968 29.134 20.4369C29.164 20.0696 29.1865 19.6347 29.2015 19.1325C29.2165 18.6302 29.224 18.0417 29.224 17.367V14.5331C29.224 13.8584 29.2165 13.2737 29.2015 12.7789C29.1865 12.2766 29.164 11.8455 29.134 11.4857C29.1115 11.1183 29.0778 10.811 29.0328 10.5636C28.9953 10.3162 28.9503 10.1138 28.8978 9.95632V9.91134C29.0628 9.91884 29.2277 9.92633 29.3926 9.93383C29.5351 9.94133 29.685 9.94882 29.8424 9.95632C30.0074 9.95632 30.1611 9.95632 30.3035 9.95632C30.5434 9.95632 30.8958 9.93383 31.3606 9.88885C31.8329 9.84387 32.3876 9.82138 33.0249 9.82138C33.6096 9.82138 34.1531 9.9001 34.6554 10.0575C35.1577 10.2075 35.5888 10.4324 35.9486 10.7322C36.316 11.0321 36.6009 11.3995 36.8033 11.8343C37.0132 12.2616 37.1181 12.7564 37.1181 13.3187C37.1181 13.9784 36.9907 14.5631 36.7358 15.0729C36.4809 15.5752 36.1323 15.9988 35.69 16.3436C35.2552 16.681 34.7416 16.9359 34.1494 17.1083C33.5571 17.2807 32.9274 17.367 32.2602 17.367C31.9078 17.367 31.548 17.3445 31.1806 17.2995ZM39.0636 9.91134C39.7983 9.91134 40.5517 9.91134 41.3239 9.91134C42.096 9.90384 42.812 9.89635 43.4717 9.88885C44.1314 9.87386 44.6974 9.85886 45.1697 9.84387C45.6495 9.82888 45.9644 9.80638 46.1143 9.7764L45.6758 10.9909C45.4734 10.9384 45.2447 10.8897 44.9898 10.8447C44.7649 10.8072 44.4913 10.7735 44.1689 10.7435C43.854 10.706 43.4867 10.6873 43.0669 10.6873C42.9169 10.6873 42.7445 10.6948 42.5496 10.7098C42.3547 10.7173 42.1673 10.7285 41.9873 10.7435C41.7774 10.7585 41.5638 10.7735 41.3464 10.7885V15.2304C41.9536 15.2229 42.5009 15.2079 42.9882 15.1854C43.4755 15.1629 43.8915 15.1329 44.2364 15.0954C44.6412 15.0654 44.9973 15.0242 45.3047 14.9717L45.0348 16.3099C44.6225 16.2574 44.2064 16.2124 43.7866 16.175C43.4267 16.1375 43.0294 16.1075 42.5946 16.085C42.1598 16.055 41.7437 16.04 41.3464 16.04V21.1454C42.0436 21.1454 42.6845 21.1191 43.2693 21.0666C43.854 21.0067 44.3638 20.9429 44.7986 20.8755C45.3084 20.793 45.7695 20.6993 46.1818 20.5943L45.9232 22.0675C45.8107 22.06 45.6271 22.0487 45.3722 22.0337C45.1248 22.0262 44.8624 22.0187 44.585 22.0112C44.3151 22.0112 44.0602 22.0075 43.8203 22C43.5804 22 43.4155 22 43.3255 22H39.0636V21.955C39.116 21.7976 39.161 21.5952 39.1985 21.3478C39.2435 21.1004 39.2772 20.7968 39.2997 20.4369C39.3297 20.0696 39.3522 19.6347 39.3672 19.1325C39.3822 18.6302 39.3897 18.0417 39.3897 17.367V14.5331C39.3897 13.8584 39.3822 13.2737 39.3672 12.7789C39.3522 12.2766 39.3297 11.8455 39.2997 11.4857C39.2772 11.1183 39.2435 10.811 39.1985 10.5636C39.161 10.3162 39.116 10.1138 39.0636 9.95632V9.91134ZM51.0173 10.7098C51.0098 11.3245 51.0023 11.9205 50.9948 12.4978C50.9948 12.7451 50.991 13 50.9835 13.2624C50.9835 13.5173 50.9798 13.7722 50.9723 14.0271C50.9723 14.282 50.9723 14.5256 50.9723 14.758C50.9723 14.983 50.9723 15.1854 50.9723 15.3653C50.9723 15.7401 50.9723 16.1937 50.9723 16.726C50.9798 17.2507 50.9873 17.7905 50.9948 18.3453C51.0023 18.9001 51.0135 19.4361 51.0285 19.9534C51.0435 20.4631 51.0623 20.8905 51.0848 21.2353C51.1597 21.2503 51.2572 21.2653 51.3771 21.2803C51.4971 21.2878 51.6208 21.299 51.7482 21.314C51.8832 21.3215 52.0144 21.329 52.1418 21.3365C52.2693 21.3365 52.378 21.3365 52.4679 21.3365C52.8802 21.3365 53.2963 21.3103 53.7161 21.2578C54.1435 21.2053 54.552 21.1079 54.9419 20.9654C55.3392 20.8155 55.7103 20.6131 56.0552 20.3582C56.4 20.1033 56.6999 19.7772 56.9548 19.3799C57.2172 18.975 57.4196 18.4915 57.562 17.9292C57.712 17.3595 57.7869 16.6885 57.7869 15.9163C57.7869 14.2145 57.3784 12.9026 56.5612 11.9805C55.7515 11.0584 54.5408 10.5973 52.929 10.5973C52.7715 10.5973 52.6029 10.6011 52.4229 10.6085C52.2505 10.616 52.0781 10.6273 51.9057 10.6423C51.7332 10.6498 51.5683 10.661 51.4109 10.676C51.2609 10.691 51.1297 10.7023 51.0173 10.7098ZM48.6895 9.88885C48.8694 9.89635 49.0381 9.9001 49.1955 9.9001C49.3305 9.90759 49.4617 9.91134 49.5891 9.91134C49.7166 9.91134 49.8103 9.91134 49.8703 9.91134C49.9752 9.91134 50.1626 9.90759 50.4325 9.9001C50.7024 9.8926 51.006 9.8851 51.3434 9.8776C51.6882 9.86261 52.0481 9.85137 52.4229 9.84387C52.8053 9.82888 53.1576 9.82138 53.48 9.82138C54.3571 9.82138 55.193 9.92259 55.9877 10.125C56.7824 10.3274 57.4796 10.661 58.0793 11.1258C58.6866 11.5831 59.1663 12.1866 59.5187 12.9363C59.8711 13.6785 60.0472 14.5969 60.0472 15.6914C60.0472 16.8684 59.8448 17.8655 59.44 18.6826C59.0352 19.4998 58.4879 20.167 57.7982 20.6843C57.1085 21.1941 56.3063 21.5652 55.3917 21.7976C54.4846 22.0225 53.525 22.1349 52.5129 22.1349C52.273 22.1349 51.9731 22.1274 51.6133 22.1125C51.2534 22.0975 50.8861 22.0825 50.5112 22.0675C50.1364 22.0525 49.7803 22.0375 49.4429 22.0225C49.1131 22.0075 48.8619 22 48.6895 22V21.955C48.742 21.7976 48.787 21.5952 48.8245 21.3478C48.8694 21.1004 48.9032 20.7968 48.9257 20.4369C48.9556 20.0696 48.9781 19.6347 48.9931 19.1325C49.0081 18.6302 49.0156 18.0417 49.0156 17.367V14.5331C49.0156 13.8584 49.0081 13.2699 48.9931 12.7676C48.9781 12.2653 48.9556 11.8305 48.9257 11.4632C48.9032 11.0958 48.8694 10.7885 48.8245 10.5411C48.787 10.2937 48.742 10.0913 48.6895 9.93383V9.88885ZM69.7744 18.1991C69.572 18.1991 69.3171 18.1991 69.0097 18.1991C68.7098 18.1991 68.38 18.1991 68.0201 18.1991C67.6603 18.1991 67.2892 18.1991 66.9068 18.1991C66.5245 18.1991 66.1609 18.2028 65.816 18.2103C65.4712 18.2103 65.1563 18.2141 64.8714 18.2216C64.5866 18.2216 64.3654 18.2216 64.208 18.2216L63.7919 19.0987C63.612 19.4586 63.4583 19.7734 63.3308 20.0433C63.2034 20.3057 63.0984 20.5381 63.016 20.7405C62.9335 20.9429 62.8735 21.1191 62.8361 21.2691C62.7986 21.4115 62.7798 21.5464 62.7798 21.6739C62.7798 21.7564 62.7836 21.8201 62.7911 21.8651C62.7986 21.9025 62.8098 21.9325 62.8248 21.955V22H60.8456V21.955C60.8981 21.9025 60.9806 21.7901 61.093 21.6177C61.2055 21.4377 61.3329 21.2203 61.4754 20.9654C61.6253 20.7105 61.7827 20.4219 61.9477 20.0996C62.1201 19.7772 62.2888 19.4436 62.4537 19.0987L67.0418 9.63021H67.8852L72.3833 19.0987C72.5557 19.4586 72.7281 19.8034 72.9006 20.1333C73.0805 20.4631 73.2454 20.7593 73.3954 21.0217C73.5453 21.2766 73.6765 21.4902 73.7889 21.6626C73.9014 21.8276 73.9764 21.925 74.0138 21.955V22H71.1351C71.1501 21.94 71.1576 21.8875 71.1576 21.8426C71.1576 21.7901 71.1576 21.7339 71.1576 21.6739C71.1576 21.509 71.1201 21.3103 71.0451 21.0779C70.9776 20.8455 70.8914 20.6093 70.7865 20.3694C70.689 20.122 70.584 19.8859 70.4716 19.661C70.3666 19.4361 70.2804 19.2487 70.2129 19.0987L69.7744 18.1991ZM64.6465 17.322H65.3325C65.6474 17.322 65.981 17.322 66.3333 17.322C66.6932 17.3145 67.053 17.3107 67.4129 17.3107C67.7727 17.3107 68.1213 17.3107 68.4587 17.3107C68.796 17.3032 69.0997 17.2995 69.3696 17.2995L67.0418 12.3291L64.6465 17.322ZM86.6648 6.86387C85.7801 6.86387 84.9817 6.90511 84.2695 6.98757C83.5573 7.06254 82.9426 7.14501 82.4253 7.23497C81.8256 7.34742 81.2895 7.47112 80.8172 7.60606L81.1433 5.78433C81.2333 5.79183 81.3682 5.79932 81.5482 5.80682C81.7281 5.81432 81.9268 5.82181 82.1442 5.82931C82.3691 5.83681 82.6015 5.8443 82.8414 5.8518C83.0888 5.8518 83.3212 5.85555 83.5386 5.86305C83.756 5.86305 83.9472 5.86679 84.1121 5.87429C84.2845 5.87429 84.4082 5.87429 84.4832 5.87429H90.9042C90.9792 5.87429 91.0992 5.87429 91.2641 5.87429C91.4365 5.86679 91.6314 5.86305 91.8488 5.86305C92.0662 5.85555 92.2949 5.8518 92.5348 5.8518C92.7822 5.8443 93.0146 5.83681 93.232 5.82931C93.4569 5.82181 93.6593 5.81432 93.8392 5.80682C94.0192 5.79932 94.1541 5.79183 94.2441 5.78433L94.5702 7.60606C94.0904 7.47112 93.5506 7.34742 92.9509 7.23497C92.4336 7.14501 91.8188 7.06254 91.1066 6.98757C90.3944 6.90511 89.596 6.86387 88.7114 6.86387V17.6031C88.7114 18.2403 88.7189 18.7988 88.7339 19.2786C88.7564 19.7509 88.7789 20.1595 88.8014 20.5044C88.8314 20.8492 88.8651 21.1379 88.9026 21.3703C88.9476 21.6027 88.9925 21.7976 89.0375 21.955V22H86.3499V21.955C86.3949 21.7976 86.4361 21.6027 86.4736 21.3703C86.5111 21.1379 86.5448 20.8492 86.5748 20.5044C86.6048 20.1595 86.6273 19.7509 86.6423 19.2786C86.6573 18.7988 86.6648 18.2403 86.6648 17.6031V6.86387ZM94.514 15.9163C94.514 15.0317 94.6789 14.2108 95.0088 13.4536C95.3461 12.6964 95.8034 12.0404 96.3807 11.4857C96.9579 10.9234 97.6401 10.4848 98.4273 10.17C99.2145 9.85511 100.058 9.69768 100.958 9.69768C101.842 9.69768 102.674 9.84762 103.454 10.1475C104.241 10.4399 104.923 10.8597 105.501 11.407C106.085 11.9542 106.546 12.6177 106.884 13.3974C107.221 14.177 107.39 15.0504 107.39 16.0175C107.39 16.8197 107.247 17.5956 106.962 18.3453C106.678 19.0875 106.262 19.7472 105.714 20.3245C105.167 20.8942 104.492 21.3515 103.69 21.6964C102.888 22.0337 101.97 22.2024 100.935 22.2024C100.058 22.2024 99.2295 22.0562 98.4498 21.7638C97.6701 21.4715 96.9879 21.0554 96.4032 20.5156C95.8184 19.9684 95.3574 19.3086 95.02 18.5365C94.6826 17.7568 94.514 16.8834 94.514 15.9163ZM101.216 21.404C101.786 21.404 102.311 21.2915 102.79 21.0666C103.27 20.8417 103.683 20.5194 104.027 20.0996C104.38 19.6797 104.65 19.1699 104.837 18.5702C105.032 17.9629 105.129 17.2807 105.129 16.5236C105.129 15.6614 105.036 14.863 104.848 14.1283C104.668 13.3936 104.391 12.7601 104.016 12.2279C103.649 11.6881 103.188 11.2683 102.633 10.9684C102.078 10.661 101.43 10.5073 100.688 10.5073C100.118 10.5073 99.5931 10.616 99.1133 10.8335C98.6335 11.0509 98.2174 11.3657 97.8651 11.7781C97.5202 12.1904 97.2503 12.6964 97.0554 13.2962C96.8605 13.8959 96.763 14.5781 96.763 15.3428C96.763 16.1974 96.8567 16.9959 97.0442 17.738C97.2391 18.4727 97.5202 19.1137 97.8875 19.661C98.2624 20.2008 98.7272 20.6281 99.282 20.9429C99.8367 21.2503 100.481 21.404 101.216 21.404ZM111.967 16.13C112.117 16.1525 112.266 16.1712 112.416 16.1862C112.574 16.1937 112.724 16.1974 112.866 16.1974C113.803 16.1974 114.512 15.9463 114.992 15.444C115.479 14.9417 115.723 14.1883 115.723 13.1837C115.723 12.3591 115.528 11.7068 115.138 11.227C114.755 10.7472 114.189 10.5073 113.44 10.5073C113.2 10.5073 112.986 10.5186 112.799 10.5411C112.619 10.5561 112.465 10.5748 112.338 10.5973C112.195 10.6273 112.072 10.6573 111.967 10.6873V16.13ZM113.687 16.8609C113.537 16.8834 113.387 16.8984 113.237 16.9059C113.095 16.9059 112.949 16.9059 112.799 16.9059C112.679 16.9059 112.548 16.9021 112.405 16.8946C112.263 16.8872 112.117 16.8759 111.967 16.8609V17.4119C111.967 18.0792 111.974 18.6639 111.989 19.1662C112.004 19.661 112.023 20.0883 112.045 20.4482C112.075 20.808 112.109 21.1116 112.147 21.359C112.184 21.5989 112.229 21.7976 112.281 21.955V22H109.684V21.955C109.736 21.7976 109.781 21.5952 109.819 21.3478C109.864 21.1004 109.897 20.7968 109.92 20.4369C109.95 20.0696 109.972 19.6347 109.987 19.1325C110.002 18.6302 110.01 18.0417 110.01 17.367V14.5331C110.01 13.8584 110.002 13.2737 109.987 12.7789C109.972 12.2766 109.95 11.8455 109.92 11.4857C109.897 11.1183 109.864 10.811 109.819 10.5636C109.781 10.3162 109.736 10.1138 109.684 9.95632V9.91134C109.804 9.91884 109.931 9.92633 110.066 9.93383C110.179 9.94133 110.302 9.94882 110.437 9.95632C110.58 9.95632 110.722 9.95632 110.865 9.95632C111.104 9.95632 111.461 9.93383 111.933 9.88885C112.405 9.84387 112.96 9.82138 113.597 9.82138C114.242 9.82138 114.827 9.9001 115.351 10.0575C115.884 10.215 116.337 10.4399 116.712 10.7322C117.094 11.0246 117.387 11.3807 117.589 11.8005C117.799 12.2204 117.904 12.6889 117.904 13.2062C117.904 13.611 117.848 13.9821 117.735 14.3195C117.623 14.6493 117.466 14.9492 117.263 15.2191C117.061 15.4815 116.821 15.7139 116.543 15.9163C116.266 16.1187 115.959 16.2949 115.621 16.4448L117.972 19.7622C118.174 20.0321 118.376 20.2907 118.579 20.5381C118.789 20.7855 118.987 21.0067 119.175 21.2016C119.362 21.3965 119.538 21.5614 119.703 21.6964C119.868 21.8238 120.007 21.91 120.119 21.955V22H117.173C117.173 21.9325 117.124 21.8163 117.027 21.6514C116.937 21.479 116.828 21.3028 116.701 21.1229C116.581 20.9354 116.457 20.7555 116.33 20.5831C116.21 20.4107 116.12 20.2832 116.06 20.2008L113.687 16.8609ZM123.459 16.13C123.609 16.1525 123.759 16.1712 123.909 16.1862C124.067 16.1937 124.216 16.1974 124.359 16.1974C125.296 16.1974 126.004 15.9463 126.484 15.444C126.972 14.9417 127.215 14.1883 127.215 13.1837C127.215 12.3591 127.02 11.7068 126.63 11.227C126.248 10.7472 125.682 10.5073 124.932 10.5073C124.693 10.5073 124.479 10.5186 124.291 10.5411C124.111 10.5561 123.958 10.5748 123.83 10.5973C123.688 10.6273 123.564 10.6573 123.459 10.6873V16.13ZM125.18 16.8609C125.03 16.8834 124.88 16.8984 124.73 16.9059C124.588 16.9059 124.441 16.9059 124.291 16.9059C124.171 16.9059 124.04 16.9021 123.898 16.8946C123.755 16.8872 123.609 16.8759 123.459 16.8609V17.4119C123.459 18.0792 123.467 18.6639 123.482 19.1662C123.497 19.661 123.515 20.0883 123.538 20.4482C123.568 20.808 123.602 21.1116 123.639 21.359C123.677 21.5989 123.722 21.7976 123.774 21.955V22H121.176V21.955C121.229 21.7976 121.274 21.5952 121.311 21.3478C121.356 21.1004 121.39 20.7968 121.413 20.4369C121.443 20.0696 121.465 19.6347 121.48 19.1325C121.495 18.6302 121.503 18.0417 121.503 17.367V14.5331C121.503 13.8584 121.495 13.2737 121.48 12.7789C121.465 12.2766 121.443 11.8455 121.413 11.4857C121.39 11.1183 121.356 10.811 121.311 10.5636C121.274 10.3162 121.229 10.1138 121.176 9.95632V9.91134C121.296 9.91884 121.424 9.92633 121.559 9.93383C121.671 9.94133 121.795 9.94882 121.93 9.95632C122.072 9.95632 122.215 9.95632 122.357 9.95632C122.597 9.95632 122.953 9.93383 123.426 9.88885C123.898 9.84387 124.453 9.82138 125.09 9.82138C125.735 9.82138 126.319 9.9001 126.844 10.0575C127.376 10.215 127.83 10.4399 128.205 10.7322C128.587 11.0246 128.879 11.3807 129.082 11.8005C129.292 12.2204 129.397 12.6889 129.397 13.2062C129.397 13.611 129.341 13.9821 129.228 14.3195C129.116 14.6493 128.958 14.9492 128.756 15.2191C128.553 15.4815 128.313 15.7139 128.036 15.9163C127.759 16.1187 127.451 16.2949 127.114 16.4448L129.464 19.7622C129.667 20.0321 129.869 20.2907 130.071 20.5381C130.281 20.7855 130.48 21.0067 130.667 21.2016C130.855 21.3965 131.031 21.5614 131.196 21.6964C131.361 21.8238 131.5 21.91 131.612 21.955V22H128.666C128.666 21.9325 128.617 21.8163 128.52 21.6514C128.43 21.479 128.321 21.3028 128.194 21.1229C128.074 20.9354 127.95 20.7555 127.822 20.5831C127.702 20.4107 127.613 20.2832 127.553 20.2008L125.18 16.8609ZM132.669 9.91134C133.404 9.91134 134.157 9.91134 134.929 9.91134C135.702 9.90384 136.418 9.89635 137.077 9.88885C137.737 9.87386 138.303 9.85886 138.775 9.84387C139.255 9.82888 139.57 9.80638 139.72 9.7764L139.281 10.9909C139.079 10.9384 138.85 10.8897 138.595 10.8447C138.37 10.8072 138.097 10.7735 137.774 10.7435C137.46 10.706 137.092 10.6873 136.672 10.6873C136.523 10.6873 136.35 10.6948 136.155 10.7098C135.96 10.7173 135.773 10.7285 135.593 10.7435C135.383 10.7585 135.169 10.7735 134.952 10.7885V15.2304C135.559 15.2229 136.106 15.2079 136.594 15.1854C137.081 15.1629 137.497 15.1329 137.842 15.0954C138.247 15.0654 138.603 15.0242 138.91 14.9717L138.64 16.3099C138.228 16.2574 137.812 16.2124 137.392 16.175C137.032 16.1375 136.635 16.1075 136.2 16.085C135.765 16.055 135.349 16.04 134.952 16.04V21.1454C135.649 21.1454 136.29 21.1191 136.875 21.0666C137.46 21.0067 137.969 20.9429 138.404 20.8755C138.914 20.793 139.375 20.6993 139.787 20.5943L139.529 22.0675C139.416 22.06 139.233 22.0487 138.978 22.0337C138.73 22.0262 138.468 22.0187 138.191 22.0112C137.921 22.0112 137.666 22.0075 137.426 22C137.186 22 137.021 22 136.931 22H132.669V21.955C132.722 21.7976 132.767 21.5952 132.804 21.3478C132.849 21.1004 132.883 20.7968 132.905 20.4369C132.935 20.0696 132.958 19.6347 132.973 19.1325C132.988 18.6302 132.995 18.0417 132.995 17.367V14.5331C132.995 13.8584 132.988 13.2737 132.973 12.7789C132.958 12.2766 132.935 11.8455 132.905 11.4857C132.883 11.1183 132.849 10.811 132.804 10.5636C132.767 10.3162 132.722 10.1138 132.669 9.95632V9.91134ZM147.772 12.2616H147.547C147.502 12.1342 147.427 11.973 147.322 11.7781C147.224 11.5831 147.089 11.392 146.917 11.2045C146.752 11.0171 146.546 10.8597 146.298 10.7322C146.051 10.5973 145.755 10.5298 145.41 10.5298C145.148 10.5298 144.911 10.5748 144.702 10.6648C144.499 10.7472 144.327 10.8634 144.184 11.0134C144.042 11.1633 143.933 11.3432 143.858 11.5531C143.783 11.7556 143.746 11.9767 143.746 12.2166C143.746 12.6065 143.862 12.9775 144.094 13.3299C144.334 13.6823 144.63 14.0346 144.983 14.387C145.335 14.7318 145.717 15.0804 146.13 15.4328C146.542 15.7851 146.924 16.1525 147.277 16.5348C147.629 16.9171 147.921 17.322 148.154 17.7493C148.394 18.1766 148.514 18.6339 148.514 19.1212C148.514 19.4811 148.446 19.8522 148.311 20.2345C148.184 20.6168 147.974 20.9617 147.682 21.2691C147.389 21.5764 147.014 21.8276 146.557 22.0225C146.1 22.2249 145.545 22.3261 144.893 22.3261C144.533 22.3261 144.188 22.2961 143.858 22.2362C143.536 22.1762 143.236 22.1012 142.959 22.0112C142.689 21.9288 142.445 21.8388 142.228 21.7414C142.018 21.6364 141.842 21.5389 141.699 21.449L141.902 19.3236H142.138C142.213 19.586 142.321 19.8484 142.464 20.1108C142.614 20.3732 142.794 20.6131 143.004 20.8305C143.221 21.0404 143.472 21.2128 143.757 21.3478C144.049 21.4752 144.383 21.5389 144.758 21.5389C145.02 21.5389 145.268 21.4977 145.5 21.4152C145.732 21.3253 145.931 21.2016 146.096 21.0442C146.268 20.8867 146.403 20.6955 146.501 20.4706C146.598 20.2382 146.647 19.9796 146.647 19.6947C146.647 19.3574 146.58 19.0462 146.445 18.7614C146.31 18.469 146.13 18.1916 145.905 17.9292C145.68 17.6593 145.425 17.4007 145.14 17.1533C144.863 16.9059 144.574 16.6548 144.274 16.3999C143.974 16.145 143.682 15.8863 143.397 15.6239C143.12 15.354 142.869 15.0654 142.644 14.758C142.419 14.4507 142.239 14.1246 142.104 13.7797C141.969 13.4274 141.902 13.0413 141.902 12.6214C141.902 12.1791 141.995 11.7818 142.183 11.4295C142.37 11.0771 142.617 10.781 142.925 10.5411C143.232 10.2937 143.585 10.1063 143.982 9.97881C144.379 9.84387 144.792 9.7764 145.219 9.7764C145.534 9.7764 145.826 9.79889 146.096 9.84387C146.373 9.88885 146.621 9.94508 146.838 10.0125C147.063 10.0725 147.258 10.1362 147.423 10.2037C147.588 10.2637 147.723 10.3124 147.828 10.3499L147.772 12.2616ZM157.105 21.955C157.188 21.8351 157.281 21.6589 157.386 21.4265C157.491 21.1866 157.574 20.8867 157.634 20.5269C157.716 20.0021 157.806 19.4136 157.904 18.7614C158.008 18.1016 158.113 17.4119 158.218 16.6922C158.331 15.9725 158.44 15.2378 158.545 14.4882C158.657 13.731 158.762 12.9888 158.859 12.2616C158.964 11.5269 159.062 10.8222 159.152 10.1475C159.249 9.46528 159.335 8.84304 159.41 8.28078C159.485 7.71851 159.545 7.23122 159.59 6.81889C159.643 6.39907 159.68 6.0842 159.703 5.87429H161.131L168.204 19.0987L175.221 5.87429H176.29L178.134 19.2337C178.186 19.6535 178.242 20.0133 178.302 20.3132C178.362 20.6131 178.422 20.8717 178.482 21.0891C178.542 21.299 178.599 21.4752 178.651 21.6177C178.711 21.7526 178.767 21.8651 178.82 21.955V22H175.986V21.955C176.023 21.8726 176.057 21.7376 176.087 21.5502C176.125 21.3628 176.143 21.1379 176.143 20.8755C176.143 20.778 176.14 20.6806 176.132 20.5831C176.125 20.4781 176.113 20.3657 176.098 20.2457L174.67 9.47278L168.036 21.955L167.26 21.8651L160.58 9.36032C160.318 11.1371 160.089 12.7789 159.894 14.2857C159.811 14.9305 159.729 15.5752 159.647 16.2199C159.564 16.8572 159.489 17.4532 159.422 18.0079C159.362 18.5627 159.313 19.0537 159.275 19.4811C159.238 19.9009 159.219 20.212 159.219 20.4144C159.219 20.6693 159.227 20.8942 159.242 21.0891C159.257 21.2841 159.272 21.449 159.287 21.5839C159.309 21.7414 159.332 21.8801 159.354 22H157.105V21.955ZM180.585 15.9163C180.585 15.0317 180.75 14.2108 181.08 13.4536C181.417 12.6964 181.875 12.0404 182.452 11.4857C183.029 10.9234 183.711 10.4848 184.499 10.17C185.286 9.85511 186.129 9.69768 187.029 9.69768C187.913 9.69768 188.746 9.84762 189.525 10.1475C190.312 10.4399 190.995 10.8597 191.572 11.407C192.157 11.9542 192.618 12.6177 192.955 13.3974C193.292 14.177 193.461 15.0504 193.461 16.0175C193.461 16.8197 193.319 17.5956 193.034 18.3453C192.749 19.0875 192.333 19.7472 191.786 20.3245C191.238 20.8942 190.564 21.3515 189.761 21.6964C188.959 22.0337 188.041 22.2024 187.006 22.2024C186.129 22.2024 185.301 22.0562 184.521 21.7638C183.741 21.4715 183.059 21.0554 182.474 20.5156C181.89 19.9684 181.429 19.3086 181.091 18.5365C180.754 17.7568 180.585 16.8834 180.585 15.9163ZM187.287 21.404C187.857 21.404 188.382 21.2915 188.862 21.0666C189.342 20.8417 189.754 20.5194 190.099 20.0996C190.451 19.6797 190.721 19.1699 190.908 18.5702C191.103 17.9629 191.201 17.2807 191.201 16.5236C191.201 15.6614 191.107 14.863 190.92 14.1283C190.74 13.3936 190.462 12.7601 190.087 12.2279C189.72 11.6881 189.259 11.2683 188.704 10.9684C188.15 10.661 187.501 10.5073 186.759 10.5073C186.189 10.5073 185.664 10.616 185.185 10.8335C184.705 11.0509 184.289 11.3657 183.936 11.7781C183.591 12.1904 183.322 12.6964 183.127 13.2962C182.932 13.8959 182.834 14.5781 182.834 15.3428C182.834 16.1974 182.928 16.9959 183.115 17.738C183.31 18.4727 183.591 19.1137 183.959 19.661C184.334 20.2008 184.798 20.6281 185.353 20.9429C185.908 21.2503 186.553 21.404 187.287 21.404ZM198.038 16.13C198.188 16.1525 198.338 16.1712 198.488 16.1862C198.645 16.1937 198.795 16.1974 198.937 16.1974C199.875 16.1974 200.583 15.9463 201.063 15.444C201.55 14.9417 201.794 14.1883 201.794 13.1837C201.794 12.3591 201.599 11.7068 201.209 11.227C200.827 10.7472 200.261 10.5073 199.511 10.5073C199.271 10.5073 199.057 10.5186 198.87 10.5411C198.69 10.5561 198.536 10.5748 198.409 10.5973C198.267 10.6273 198.143 10.6573 198.038 10.6873V16.13ZM199.758 16.8609C199.608 16.8834 199.459 16.8984 199.309 16.9059C199.166 16.9059 199.02 16.9059 198.87 16.9059C198.75 16.9059 198.619 16.9021 198.476 16.8946C198.334 16.8872 198.188 16.8759 198.038 16.8609V17.4119C198.038 18.0792 198.045 18.6639 198.06 19.1662C198.075 19.661 198.094 20.0883 198.117 20.4482C198.147 20.808 198.18 21.1116 198.218 21.359C198.255 21.5989 198.3 21.7976 198.353 21.955V22H195.755V21.955C195.808 21.7976 195.853 21.5952 195.89 21.3478C195.935 21.1004 195.969 20.7968 195.991 20.4369C196.021 20.0696 196.044 19.6347 196.059 19.1325C196.074 18.6302 196.081 18.0417 196.081 17.367V14.5331C196.081 13.8584 196.074 13.2737 196.059 12.7789C196.044 12.2766 196.021 11.8455 195.991 11.4857C195.969 11.1183 195.935 10.811 195.89 10.5636C195.853 10.3162 195.808 10.1138 195.755 9.95632V9.91134C195.875 9.91884 196.002 9.92633 196.137 9.93383C196.25 9.94133 196.374 9.94882 196.509 9.95632C196.651 9.95632 196.793 9.95632 196.936 9.95632C197.176 9.95632 197.532 9.93383 198.004 9.88885C198.476 9.84387 199.031 9.82138 199.668 9.82138C200.313 9.82138 200.898 9.9001 201.423 10.0575C201.955 10.215 202.409 10.4399 202.783 10.7322C203.166 11.0246 203.458 11.3807 203.661 11.8005C203.87 12.2204 203.975 12.6889 203.975 13.2062C203.975 13.611 203.919 13.9821 203.807 14.3195C203.694 14.6493 203.537 14.9492 203.334 15.2191C203.132 15.4815 202.892 15.7139 202.615 15.9163C202.337 16.1187 202.03 16.2949 201.693 16.4448L204.043 19.7622C204.245 20.0321 204.448 20.2907 204.65 20.5381C204.86 20.7855 205.059 21.0067 205.246 21.2016C205.434 21.3965 205.61 21.5614 205.775 21.6964C205.94 21.8238 206.078 21.91 206.191 21.955V22H203.244C203.244 21.9325 203.196 21.8163 203.098 21.6514C203.008 21.479 202.9 21.3028 202.772 21.1229C202.652 20.9354 202.528 20.7555 202.401 20.5831C202.281 20.4107 202.191 20.2832 202.131 20.2008L199.758 16.8609ZM207.248 9.91134C207.982 9.91134 208.736 9.91134 209.508 9.91134C210.28 9.90384 210.996 9.89635 211.656 9.88885C212.316 9.87386 212.882 9.85886 213.354 9.84387C213.834 9.82888 214.149 9.80638 214.299 9.7764L213.86 10.9909C213.658 10.9384 213.429 10.8897 213.174 10.8447C212.949 10.8072 212.675 10.7735 212.353 10.7435C212.038 10.706 211.671 10.6873 211.251 10.6873C211.101 10.6873 210.929 10.6948 210.734 10.7098C210.539 10.7173 210.351 10.7285 210.172 10.7435C209.962 10.7585 209.748 10.7735 209.531 10.7885V15.2304C210.138 15.2229 210.685 15.2079 211.172 15.1854C211.66 15.1629 212.076 15.1329 212.421 15.0954C212.825 15.0654 213.181 15.0242 213.489 14.9717L213.219 16.3099C212.807 16.2574 212.391 16.2124 211.971 16.175C211.611 16.1375 211.214 16.1075 210.779 16.085C210.344 16.055 209.928 16.04 209.531 16.04V21.1454C210.228 21.1454 210.869 21.1191 211.453 21.0666C212.038 21.0067 212.548 20.9429 212.983 20.8755C213.493 20.793 213.954 20.6993 214.366 20.5943L214.107 22.0675C213.995 22.06 213.811 22.0487 213.556 22.0337C213.309 22.0262 213.047 22.0187 212.769 22.0112C212.499 22.0112 212.244 22.0075 212.004 22C211.765 22 211.6 22 211.51 22H207.248V21.955C207.3 21.7976 207.345 21.5952 207.383 21.3478C207.428 21.1004 207.461 20.7968 207.484 20.4369C207.514 20.0696 207.536 19.6347 207.551 19.1325C207.566 18.6302 207.574 18.0417 207.574 17.367V14.5331C207.574 13.8584 207.566 13.2737 207.551 12.7789C207.536 12.2766 207.514 11.8455 207.484 11.4857C207.461 11.1183 207.428 10.811 207.383 10.5636C207.345 10.3162 207.3 10.1138 207.248 9.95632V9.91134ZM227.68 22.1574H227.242L218.302 13.3636V17.367C218.302 18.0417 218.306 18.6302 218.313 19.1325C218.321 19.6347 218.332 20.0696 218.347 20.4369C218.369 20.7968 218.396 21.1004 218.426 21.3478C218.463 21.5952 218.508 21.7976 218.56 21.955V22H216.874V21.955C216.926 21.7976 216.971 21.5952 217.009 21.3478C217.046 21.1004 217.076 20.7968 217.099 20.4369C217.121 20.0696 217.136 19.6347 217.144 19.1325C217.151 18.6302 217.155 18.0417 217.155 17.367V14.5331C217.155 13.8584 217.151 13.2737 217.144 12.7789C217.136 12.2766 217.121 11.8455 217.099 11.4857C217.076 11.1183 217.046 10.811 217.009 10.5636C216.971 10.3162 216.926 10.1138 216.874 9.95632V9.91134H217.571L226.522 18.7501V14.5331C226.522 13.8584 226.518 13.2737 226.511 12.7789C226.503 12.2766 226.488 11.8455 226.466 11.4857C226.451 11.1183 226.428 10.811 226.398 10.5636C226.368 10.3162 226.327 10.1138 226.275 9.95632V9.91134H227.95V9.95632C227.898 10.1138 227.853 10.3162 227.815 10.5636C227.785 10.811 227.759 11.1183 227.737 11.4857C227.714 11.8455 227.699 12.2766 227.692 12.7789C227.684 13.2737 227.68 13.8584 227.68 14.5331V22.1574ZM230.267 15.9163C230.267 15.0317 230.432 14.2108 230.762 13.4536C231.099 12.6964 231.556 12.0404 232.134 11.4857C232.711 10.9234 233.393 10.4848 234.18 10.17C234.967 9.85511 235.811 9.69768 236.71 9.69768C237.595 9.69768 238.427 9.84762 239.207 10.1475C239.994 10.4399 240.676 10.8597 241.253 11.407C241.838 11.9542 242.299 12.6177 242.637 13.3974C242.974 14.177 243.143 15.0504 243.143 16.0175C243.143 16.8197 243 17.5956 242.715 18.3453C242.43 19.0875 242.014 19.7472 241.467 20.3245C240.92 20.8942 240.245 21.3515 239.443 21.6964C238.641 22.0337 237.722 22.2024 236.688 22.2024C235.811 22.2024 234.982 22.0562 234.203 21.7638C233.423 21.4715 232.741 21.0554 232.156 20.5156C231.571 19.9684 231.11 19.3086 230.773 18.5365C230.435 17.7568 230.267 16.8834 230.267 15.9163ZM236.969 21.404C237.539 21.404 238.064 21.2915 238.543 21.0666C239.023 20.8417 239.435 20.5194 239.78 20.0996C240.133 19.6797 240.403 19.1699 240.59 18.5702C240.785 17.9629 240.882 17.2807 240.882 16.5236C240.882 15.6614 240.789 14.863 240.601 14.1283C240.421 13.3936 240.144 12.7601 239.769 12.2279C239.402 11.6881 238.941 11.2683 238.386 10.9684C237.831 10.661 237.183 10.5073 236.44 10.5073C235.871 10.5073 235.346 10.616 234.866 10.8335C234.386 11.0509 233.97 11.3657 233.618 11.7781C233.273 12.1904 233.003 12.6964 232.808 13.2962C232.613 13.8959 232.516 14.5781 232.516 15.3428C232.516 16.1974 232.61 16.9959 232.797 17.738C232.992 18.4727 233.273 19.1137 233.64 19.661C234.015 20.2008 234.48 20.6281 235.035 20.9429C235.59 21.2503 236.234 21.404 236.969 21.404ZM265.307 15.9613C265.03 17.4532 264.437 18.7126 263.53 19.7397C264.295 20.5044 265.078 21.2128 265.881 21.8651C266.683 22.5098 267.47 23.072 268.242 23.5518C269.022 24.0316 269.771 24.4065 270.491 24.6764C271.211 24.9463 271.871 25.0812 272.47 25.0812C272.71 25.0812 272.95 25.0587 273.19 25.0137V25.2724C273.1 25.3099 272.98 25.3623 272.83 25.4298C272.688 25.4973 272.508 25.561 272.29 25.621C272.08 25.6809 271.829 25.7334 271.537 25.7784C271.252 25.8234 270.926 25.8459 270.559 25.8459C269.974 25.8459 269.34 25.7222 268.658 25.4748C267.983 25.2349 267.282 24.8975 266.555 24.4627C265.828 24.0354 265.09 23.5256 264.34 22.9334C263.598 22.3411 262.871 21.6926 262.158 20.9879C261.506 21.4302 260.786 21.7713 259.999 22.0112C259.22 22.2511 258.365 22.3711 257.435 22.3711C256.596 22.3711 255.839 22.2661 255.164 22.0562C254.497 21.8463 253.931 21.5464 253.466 21.1566C253.001 20.7668 252.641 20.2945 252.386 19.7397C252.139 19.1849 252.015 18.5627 252.015 17.873C252.015 17.2133 252.139 16.6285 252.386 16.1187C252.634 15.6014 252.956 15.1366 253.353 14.7243C253.758 14.312 254.219 13.9371 254.737 13.5998C255.254 13.2624 255.782 12.9363 256.322 12.6214C256.105 12.0592 255.936 11.5119 255.816 10.9796C255.696 10.4474 255.636 9.93758 255.636 9.45028C255.636 8.85803 255.73 8.32576 255.917 7.85346C256.112 7.37366 256.375 6.96883 256.704 6.63897C257.034 6.30911 257.42 6.05421 257.863 5.87429C258.312 5.69437 258.792 5.6044 259.302 5.6044C259.677 5.6044 260.029 5.65688 260.359 5.76184C260.689 5.86679 260.974 6.02423 261.214 6.23414C261.461 6.43655 261.656 6.69145 261.799 6.99882C261.941 7.30619 262.012 7.66229 262.012 8.06712C262.012 8.5769 261.903 9.03421 261.686 9.43904C261.476 9.84387 261.195 10.215 260.843 10.5523C260.498 10.8897 260.1 11.2045 259.651 11.4969C259.201 11.7893 258.736 12.0742 258.256 12.3516C258.496 12.9138 258.781 13.4836 259.111 14.0608C259.448 14.6381 259.816 15.2154 260.213 15.7926C260.61 16.3624 261.038 16.9246 261.495 17.4794C261.952 18.0342 262.425 18.5739 262.912 19.0987C263.272 18.6114 263.553 18.0567 263.755 17.4344C263.965 16.8122 264.07 16.13 264.07 15.3878C264.07 14.758 264.033 14.2333 263.958 13.8134C263.89 13.3861 263.819 13.0225 263.744 12.7227V12.6777H265.768V12.7227C265.716 12.9026 265.674 13.105 265.644 13.3299C265.622 13.5473 265.596 13.791 265.566 14.0608C265.536 14.3232 265.502 14.6156 265.464 14.938C265.427 15.2528 265.375 15.5939 265.307 15.9613ZM258.279 21.359C258.894 21.359 259.478 21.2766 260.033 21.1116C260.595 20.9467 261.109 20.7068 261.574 20.3919C261.064 19.8522 260.569 19.2974 260.089 18.7276C259.609 18.1504 259.16 17.5656 258.74 16.9734C258.32 16.3736 257.93 15.7739 257.57 15.1741C257.218 14.5669 256.911 13.9709 256.648 13.3861C256.296 13.626 255.966 13.8772 255.659 14.1396C255.359 14.4019 255.096 14.6906 254.871 15.0054C254.647 15.3203 254.467 15.6652 254.332 16.04C254.204 16.4074 254.141 16.8122 254.141 17.2545C254.141 17.8393 254.242 18.3828 254.444 18.8851C254.654 19.3874 254.943 19.8222 255.31 20.1895C255.677 20.5569 256.112 20.8455 256.614 21.0554C257.124 21.2578 257.679 21.359 258.279 21.359ZM257.435 8.85429C257.435 9.2891 257.484 9.73891 257.582 10.2037C257.679 10.661 257.814 11.1371 257.986 11.6319C258.354 11.3995 258.695 11.1596 259.01 10.9122C259.332 10.6648 259.609 10.3986 259.842 10.1138C260.082 9.82138 260.269 9.51026 260.404 9.1804C260.539 8.85054 260.607 8.48694 260.607 8.08961C260.607 7.8647 260.577 7.65479 260.517 7.45987C260.464 7.25746 260.382 7.08128 260.269 6.93135C260.157 6.77391 260.011 6.65396 259.831 6.5715C259.658 6.48153 259.456 6.43655 259.223 6.43655C258.624 6.43655 258.174 6.65021 257.874 7.07753C257.582 7.50485 257.435 8.0971 257.435 8.85429ZM288.259 22V21.955C288.274 21.9175 288.285 21.8613 288.292 21.7863C288.3 21.7114 288.304 21.6439 288.304 21.5839C288.304 21.3515 288.27 21.0966 288.202 20.8192C288.142 20.5344 288.022 20.182 287.843 19.7622L286.482 16.7035C286.062 16.6885 285.504 16.681 284.806 16.681C284.109 16.681 283.356 16.681 282.546 16.681C281.954 16.681 281.38 16.681 280.826 16.681C280.278 16.681 279.783 16.6885 279.341 16.7035L278.048 19.6722C277.935 19.9496 277.816 20.2532 277.688 20.5831C277.561 20.913 277.497 21.2466 277.497 21.5839C277.497 21.6814 277.504 21.7638 277.519 21.8313C277.534 21.8913 277.549 21.9325 277.564 21.955V22H275.27V21.955C275.405 21.8126 275.574 21.5614 275.776 21.2016C275.979 20.8342 276.2 20.3769 276.44 19.8297L282.883 5.53693H283.783L289.889 19.2786C290.032 19.601 290.178 19.9159 290.328 20.2232C290.485 20.5231 290.631 20.793 290.766 21.0329C290.901 21.2728 291.021 21.4752 291.126 21.6402C291.231 21.8051 291.302 21.91 291.34 21.955V22H288.259ZM280.972 15.7139C281.407 15.7139 281.853 15.7139 282.31 15.7139C282.767 15.7064 283.213 15.7027 283.648 15.7027C284.09 15.6952 284.514 15.6914 284.919 15.6914C285.324 15.6839 285.691 15.6764 286.021 15.6689L282.861 8.52817L279.757 15.7139H280.972ZM298.188 12.2616H297.963C297.918 12.1342 297.843 11.973 297.738 11.7781C297.641 11.5831 297.506 11.392 297.334 11.2045C297.169 11.0171 296.962 10.8597 296.715 10.7322C296.468 10.5973 296.172 10.5298 295.827 10.5298C295.564 10.5298 295.328 10.5748 295.118 10.6648C294.916 10.7472 294.743 10.8634 294.601 11.0134C294.459 11.1633 294.35 11.3432 294.275 11.5531C294.2 11.7556 294.162 11.9767 294.162 12.2166C294.162 12.6065 294.279 12.9775 294.511 13.3299C294.751 13.6823 295.047 14.0346 295.399 14.387C295.752 14.7318 296.134 15.0804 296.546 15.4328C296.959 15.7851 297.341 16.1525 297.693 16.5348C298.046 16.9171 298.338 17.322 298.571 17.7493C298.81 18.1766 298.93 18.6339 298.93 19.1212C298.93 19.4811 298.863 19.8522 298.728 20.2345C298.601 20.6168 298.391 20.9617 298.098 21.2691C297.806 21.5764 297.431 21.8276 296.974 22.0225C296.516 22.2249 295.962 22.3261 295.309 22.3261C294.95 22.3261 294.605 22.2961 294.275 22.2362C293.952 22.1762 293.653 22.1012 293.375 22.0112C293.105 21.9288 292.862 21.8388 292.644 21.7414C292.434 21.6364 292.258 21.5389 292.116 21.449L292.318 19.3236H292.554C292.629 19.586 292.738 19.8484 292.88 20.1108C293.03 20.3732 293.21 20.6131 293.42 20.8305C293.638 21.0404 293.889 21.2128 294.174 21.3478C294.466 21.4752 294.8 21.5389 295.174 21.5389C295.437 21.5389 295.684 21.4977 295.917 21.4152C296.149 21.3253 296.348 21.2016 296.513 21.0442C296.685 20.8867 296.82 20.6955 296.917 20.4706C297.015 20.2382 297.064 19.9796 297.064 19.6947C297.064 19.3574 296.996 19.0462 296.861 18.7614C296.726 18.469 296.546 18.1916 296.321 17.9292C296.097 17.6593 295.842 17.4007 295.557 17.1533C295.279 16.9059 294.991 16.6548 294.691 16.3999C294.391 16.145 294.099 15.8863 293.814 15.6239C293.536 15.354 293.285 15.0654 293.06 14.758C292.835 14.4507 292.656 14.1246 292.521 13.7797C292.386 13.4274 292.318 13.0413 292.318 12.6214C292.318 12.1791 292.412 11.7818 292.599 11.4295C292.787 11.0771 293.034 10.781 293.341 10.5411C293.649 10.2937 294.001 10.1063 294.399 9.97881C294.796 9.84387 295.208 9.7764 295.636 9.7764C295.95 9.7764 296.243 9.79889 296.513 9.84387C296.79 9.88885 297.037 9.94508 297.255 10.0125C297.48 10.0725 297.675 10.1362 297.84 10.2037C298.005 10.2637 298.139 10.3124 298.244 10.3499L298.188 12.2616ZM300.64 15.9163C300.64 15.0317 300.805 14.2108 301.134 13.4536C301.472 12.6964 301.929 12.0404 302.506 11.4857C303.084 10.9234 303.766 10.4848 304.553 10.17C305.34 9.85511 306.184 9.69768 307.083 9.69768C307.968 9.69768 308.8 9.84762 309.58 10.1475C310.367 10.4399 311.049 10.8597 311.626 11.407C312.211 11.9542 312.672 12.6177 313.009 13.3974C313.347 14.177 313.516 15.0504 313.516 16.0175C313.516 16.8197 313.373 17.5956 313.088 18.3453C312.803 19.0875 312.387 19.7472 311.84 20.3245C311.293 20.8942 310.618 21.3515 309.816 21.6964C309.014 22.0337 308.095 22.2024 307.061 22.2024C306.184 22.2024 305.355 22.0562 304.576 21.7638C303.796 21.4715 303.114 21.0554 302.529 20.5156C301.944 19.9684 301.483 19.3086 301.146 18.5365C300.808 17.7568 300.64 16.8834 300.64 15.9163ZM307.342 21.404C307.912 21.404 308.436 21.2915 308.916 21.0666C309.396 20.8417 309.808 20.5194 310.153 20.0996C310.506 19.6797 310.775 19.1699 310.963 18.5702C311.158 17.9629 311.255 17.2807 311.255 16.5236C311.255 15.6614 311.161 14.863 310.974 14.1283C310.794 13.3936 310.517 12.7601 310.142 12.2279C309.775 11.6881 309.314 11.2683 308.759 10.9684C308.204 10.661 307.556 10.5073 306.813 10.5073C306.244 10.5073 305.719 10.616 305.239 10.8335C304.759 11.0509 304.343 11.3657 303.991 11.7781C303.646 12.1904 303.376 12.6964 303.181 13.2962C302.986 13.8959 302.889 14.5781 302.889 15.3428C302.889 16.1974 302.982 16.9959 303.17 17.738C303.365 18.4727 303.646 19.1137 304.013 19.661C304.388 20.2008 304.853 20.6281 305.408 20.9429C305.962 21.2503 306.607 21.404 307.342 21.404ZM325.964 19.4923L325.087 21.5839C324.869 21.6814 324.622 21.7713 324.345 21.8538C324.075 21.9288 323.794 21.9925 323.501 22.045C323.209 22.0975 322.909 22.1349 322.602 22.1574C322.302 22.1874 322.017 22.2024 321.747 22.2024C320.802 22.2024 319.925 22.0637 319.116 21.7863C318.313 21.509 317.62 21.1041 317.035 20.5719C316.451 20.0321 315.993 19.3724 315.663 18.5927C315.333 17.813 315.169 16.9209 315.169 15.9163C315.169 15.0317 315.341 14.2108 315.686 13.4536C316.031 12.6964 316.507 12.0404 317.114 11.4857C317.721 10.9234 318.437 10.4848 319.262 10.17C320.094 9.85511 320.994 9.69768 321.961 9.69768C322.178 9.69768 322.407 9.70893 322.647 9.73142C322.894 9.74641 323.138 9.77265 323.378 9.81013C323.617 9.84762 323.85 9.8926 324.075 9.94508C324.3 9.99006 324.51 10.0388 324.705 10.0913L325.548 12.1154L325.413 12.1941C325.211 11.9467 324.967 11.7181 324.682 11.5082C324.405 11.2983 324.097 11.1221 323.76 10.9796C323.43 10.8297 323.081 10.7135 322.714 10.631C322.347 10.5486 321.972 10.5073 321.59 10.5073C320.967 10.5073 320.398 10.616 319.88 10.8335C319.371 11.0509 318.932 11.3695 318.565 11.7893C318.205 12.2016 317.924 12.7077 317.721 13.3074C317.519 13.9072 317.418 14.5856 317.418 15.3428C317.418 16.1974 317.515 16.9959 317.71 17.738C317.905 18.4727 318.197 19.1137 318.587 19.661C318.977 20.2008 319.464 20.6281 320.049 20.9429C320.634 21.2503 321.316 21.404 322.096 21.404C322.47 21.404 322.838 21.359 323.198 21.2691C323.565 21.1716 323.91 21.0367 324.232 20.8642C324.562 20.6918 324.862 20.4856 325.132 20.2457C325.402 19.9983 325.634 19.7247 325.829 19.4248L325.964 19.4923ZM328.213 14.5331C328.213 13.8584 328.206 13.2737 328.191 12.7789C328.176 12.2766 328.153 11.8455 328.123 11.4857C328.101 11.1183 328.067 10.811 328.022 10.5636C327.984 10.3162 327.939 10.1138 327.887 9.95632V9.91134H330.496V9.95632C330.443 10.1138 330.395 10.3162 330.35 10.5636C330.312 10.811 330.278 11.1183 330.248 11.4857C330.226 11.8455 330.207 12.2766 330.192 12.7789C330.177 13.2737 330.17 13.8584 330.17 14.5331V17.367C330.17 18.0417 330.177 18.6302 330.192 19.1325C330.207 19.6347 330.226 20.0696 330.248 20.4369C330.278 20.7968 330.312 21.1004 330.35 21.3478C330.395 21.5952 330.443 21.7976 330.496 21.955V22H327.887V21.955C327.939 21.7976 327.984 21.5952 328.022 21.3478C328.067 21.1004 328.101 20.7968 328.123 20.4369C328.153 20.0696 328.176 19.6347 328.191 19.1325C328.206 18.6302 328.213 18.0417 328.213 17.367V14.5331ZM340.965 18.1991C340.763 18.1991 340.508 18.1991 340.201 18.1991C339.901 18.1991 339.571 18.1991 339.211 18.1991C338.851 18.1991 338.48 18.1991 338.098 18.1991C337.715 18.1991 337.352 18.2028 337.007 18.2103C336.662 18.2103 336.347 18.2141 336.062 18.2216C335.777 18.2216 335.556 18.2216 335.399 18.2216L334.983 19.0987C334.803 19.4586 334.649 19.7734 334.522 20.0433C334.394 20.3057 334.289 20.5381 334.207 20.7405C334.124 20.9429 334.064 21.1191 334.027 21.2691C333.989 21.4115 333.971 21.5464 333.971 21.6739C333.971 21.7564 333.974 21.8201 333.982 21.8651C333.989 21.9025 334.001 21.9325 334.016 21.955V22H332.036V21.955C332.089 21.9025 332.171 21.7901 332.284 21.6177C332.396 21.4377 332.524 21.2203 332.666 20.9654C332.816 20.7105 332.974 20.4219 333.138 20.0996C333.311 19.7772 333.48 19.4436 333.645 19.0987L338.233 9.63021H339.076L343.574 19.0987C343.747 19.4586 343.919 19.8034 344.091 20.1333C344.271 20.4631 344.436 20.7593 344.586 21.0217C344.736 21.2766 344.867 21.4902 344.98 21.6626C345.092 21.8276 345.167 21.925 345.205 21.955V22H342.326C342.341 21.94 342.348 21.8875 342.348 21.8426C342.348 21.7901 342.348 21.7339 342.348 21.6739C342.348 21.509 342.311 21.3103 342.236 21.0779C342.168 20.8455 342.082 20.6093 341.977 20.3694C341.88 20.122 341.775 19.8859 341.662 19.661C341.557 19.4361 341.471 19.2487 341.404 19.0987L340.965 18.1991ZM335.837 17.322H336.523C336.838 17.322 337.172 17.322 337.524 17.322C337.884 17.3145 338.244 17.3107 338.604 17.3107C338.964 17.3107 339.312 17.3107 339.649 17.3107C339.987 17.3032 340.29 17.2995 340.56 17.2995L338.233 12.3291L335.837 17.322ZM348.904 10.7098C348.897 11.3245 348.889 11.9205 348.882 12.4978C348.882 12.7451 348.878 13 348.871 13.2624C348.871 13.5173 348.867 13.7722 348.859 14.0271C348.859 14.282 348.859 14.5256 348.859 14.758C348.859 14.983 348.859 15.1854 348.859 15.3653C348.859 15.7401 348.859 16.1937 348.859 16.726C348.867 17.2507 348.874 17.7905 348.882 18.3453C348.889 18.9001 348.901 19.4361 348.916 19.9534C348.931 20.4631 348.949 20.8905 348.972 21.2353C349.047 21.2503 349.144 21.2653 349.264 21.2803C349.384 21.2878 349.508 21.299 349.635 21.314C349.77 21.3215 349.901 21.329 350.029 21.3365C350.156 21.3365 350.265 21.3365 350.355 21.3365C350.767 21.3365 351.183 21.3103 351.603 21.2578C352.031 21.2053 352.439 21.1079 352.829 20.9654C353.226 20.8155 353.597 20.6131 353.942 20.3582C354.287 20.1033 354.587 19.7772 354.842 19.3799C355.104 18.975 355.307 18.4915 355.449 17.9292C355.599 17.3595 355.674 16.6885 355.674 15.9163C355.674 14.2145 355.265 12.9026 354.448 11.9805C353.639 11.0584 352.428 10.5973 350.816 10.5973C350.659 10.5973 350.49 10.6011 350.31 10.6085C350.138 10.616 349.965 10.6273 349.793 10.6423C349.62 10.6498 349.455 10.661 349.298 10.676C349.148 10.691 349.017 10.7023 348.904 10.7098ZM346.577 9.88885C346.757 9.89635 346.925 9.9001 347.083 9.9001C347.218 9.90759 347.349 9.91134 347.476 9.91134C347.604 9.91134 347.697 9.91134 347.757 9.91134C347.862 9.91134 348.05 9.90759 348.32 9.9001C348.589 9.8926 348.893 9.8851 349.23 9.8776C349.575 9.86261 349.935 9.85137 350.31 9.84387C350.692 9.82888 351.045 9.82138 351.367 9.82138C352.244 9.82138 353.08 9.92259 353.875 10.125C354.669 10.3274 355.367 10.661 355.966 11.1258C356.574 11.5831 357.053 12.1866 357.406 12.9363C357.758 13.6785 357.934 14.5969 357.934 15.6914C357.934 16.8684 357.732 17.8655 357.327 18.6826C356.922 19.4998 356.375 20.167 355.685 20.6843C354.996 21.1941 354.193 21.5652 353.279 21.7976C352.372 22.0225 351.412 22.1349 350.4 22.1349C350.16 22.1349 349.86 22.1274 349.5 22.1125C349.141 22.0975 348.773 22.0825 348.398 22.0675C348.023 22.0525 347.667 22.0375 347.33 22.0225C347 22.0075 346.749 22 346.577 22V21.955C346.629 21.7976 346.674 21.5952 346.712 21.3478C346.757 21.1004 346.79 20.7968 346.813 20.4369C346.843 20.0696 346.865 19.6347 346.88 19.1325C346.895 18.6302 346.903 18.0417 346.903 17.367V14.5331C346.903 13.8584 346.895 13.2699 346.88 12.7676C346.865 12.2653 346.843 11.8305 346.813 11.4632C346.79 11.0958 346.757 10.7885 346.712 10.5411C346.674 10.2937 346.629 10.0913 346.577 9.93383V9.88885ZM359.677 15.9163C359.677 15.0317 359.842 14.2108 360.172 13.4536C360.509 12.6964 360.967 12.0404 361.544 11.4857C362.121 10.9234 362.803 10.4848 363.591 10.17C364.378 9.85511 365.221 9.69768 366.121 9.69768C367.005 9.69768 367.838 9.84762 368.617 10.1475C369.404 10.4399 370.087 10.8597 370.664 11.407C371.249 11.9542 371.71 12.6177 372.047 13.3974C372.384 14.177 372.553 15.0504 372.553 16.0175C372.553 16.8197 372.411 17.5956 372.126 18.3453C371.841 19.0875 371.425 19.7472 370.878 20.3245C370.33 20.8942 369.656 21.3515 368.853 21.6964C368.051 22.0337 367.133 22.2024 366.098 22.2024C365.221 22.2024 364.393 22.0562 363.613 21.7638C362.833 21.4715 362.151 21.0554 361.567 20.5156C360.982 19.9684 360.521 19.3086 360.183 18.5365C359.846 17.7568 359.677 16.8834 359.677 15.9163ZM366.379 21.404C366.949 21.404 367.474 21.2915 367.954 21.0666C368.434 20.8417 368.846 20.5194 369.191 20.0996C369.543 19.6797 369.813 19.1699 370 18.5702C370.195 17.9629 370.293 17.2807 370.293 16.5236C370.293 15.6614 370.199 14.863 370.012 14.1283C369.832 13.3936 369.554 12.7601 369.18 12.2279C368.812 11.6881 368.351 11.2683 367.796 10.9684C367.242 10.661 366.593 10.5073 365.851 10.5073C365.281 10.5073 364.756 10.616 364.277 10.8335C363.797 11.0509 363.381 11.3657 363.028 11.7781C362.684 12.1904 362.414 12.6964 362.219 13.2962C362.024 13.8959 361.926 14.5781 361.926 15.3428C361.926 16.1974 362.02 16.9959 362.207 17.738C362.402 18.4727 362.684 19.1137 363.051 19.661C363.426 20.2008 363.891 20.6281 364.445 20.9429C365 21.2503 365.645 21.404 366.379 21.404ZM380.324 12.2616H380.099C380.054 12.1342 379.979 11.973 379.874 11.7781C379.776 11.5831 379.641 11.392 379.469 11.2045C379.304 11.0171 379.098 10.8597 378.85 10.7322C378.603 10.5973 378.307 10.5298 377.962 10.5298C377.7 10.5298 377.464 10.5748 377.254 10.6648C377.051 10.7472 376.879 10.8634 376.736 11.0134C376.594 11.1633 376.485 11.3432 376.41 11.5531C376.335 11.7556 376.298 11.9767 376.298 12.2166C376.298 12.6065 376.414 12.9775 376.646 13.3299C376.886 13.6823 377.182 14.0346 377.535 14.387C377.887 14.7318 378.269 15.0804 378.682 15.4328C379.094 15.7851 379.476 16.1525 379.829 16.5348C380.181 16.9171 380.474 17.322 380.706 17.7493C380.946 18.1766 381.066 18.6339 381.066 19.1212C381.066 19.4811 380.998 19.8522 380.863 20.2345C380.736 20.6168 380.526 20.9617 380.234 21.2691C379.941 21.5764 379.566 21.8276 379.109 22.0225C378.652 22.2249 378.097 22.3261 377.445 22.3261C377.085 22.3261 376.74 22.2961 376.41 22.2362C376.088 22.1762 375.788 22.1012 375.511 22.0112C375.241 21.9288 374.997 21.8388 374.78 21.7414C374.57 21.6364 374.394 21.5389 374.251 21.449L374.454 19.3236H374.69C374.765 19.586 374.873 19.8484 375.016 20.1108C375.166 20.3732 375.346 20.6131 375.556 20.8305C375.773 21.0404 376.024 21.2128 376.309 21.3478C376.601 21.4752 376.935 21.5389 377.31 21.5389C377.572 21.5389 377.82 21.4977 378.052 21.4152C378.284 21.3253 378.483 21.2016 378.648 21.0442C378.821 20.8867 378.955 20.6955 379.053 20.4706C379.15 20.2382 379.199 19.9796 379.199 19.6947C379.199 19.3574 379.132 19.0462 378.997 18.7614C378.862 18.469 378.682 18.1916 378.457 17.9292C378.232 17.6593 377.977 17.4007 377.692 17.1533C377.415 16.9059 377.126 16.6548 376.826 16.3999C376.526 16.145 376.234 15.8863 375.949 15.6239C375.672 15.354 375.421 15.0654 375.196 14.758C374.971 14.4507 374.791 14.1246 374.656 13.7797C374.521 13.4274 374.454 13.0413 374.454 12.6214C374.454 12.1791 374.547 11.7818 374.735 11.4295C374.922 11.0771 375.17 10.781 375.477 10.5411C375.784 10.2937 376.137 10.1063 376.534 9.97881C376.931 9.84387 377.344 9.7764 377.771 9.7764C378.086 9.7764 378.378 9.79889 378.648 9.84387C378.925 9.88885 379.173 9.94508 379.39 10.0125C379.615 10.0725 379.81 10.1362 379.975 10.2037C380.14 10.2637 380.275 10.3124 380.38 10.3499L380.324 12.2616Z" fill="white"/>
<path d="M384.826 31.3032L382 28.4777L379.174 31.3032L382 34.1287L384.826 31.3032ZM0.1745 31.3032L3 34.1287L5.82553 31.3032L3 28.4777L0.1745 31.3032ZM382 30.8138L3 30.8138L3 31.7926L382 31.7926L382 30.8138Z" fill="white"/>
<path d="M14.487 53.606V53.5655C14.5005 53.5317 14.5107 53.4811 14.5174 53.4137C14.5241 53.3462 14.5275 53.2855 14.5275 53.2315C14.5275 53.0223 14.4972 52.7929 14.4364 52.5433C14.3825 52.2869 14.2745 51.9698 14.1126 51.5919L12.888 48.8391C12.5101 48.8256 12.0075 48.8188 11.38 48.8188C10.7525 48.8188 10.0744 48.8188 9.3457 48.8188C8.81268 48.8188 8.29652 48.8188 7.79723 48.8188C7.30469 48.8188 6.85937 48.8256 6.46129 48.8391L5.29741 51.511C5.1962 51.7606 5.08825 52.0339 4.97354 52.3307C4.85884 52.6276 4.80149 52.9279 4.80149 53.2315C4.80149 53.3192 4.80824 53.3934 4.82173 53.4541C4.83523 53.5081 4.84872 53.5452 4.86222 53.5655V53.606H2.79759V53.5655C2.91903 53.4373 3.07085 53.2112 3.25302 52.8874C3.43519 52.5568 3.63423 52.1452 3.85014 51.6527L9.64933 38.7892H10.459L15.9545 51.1567C16.0827 51.4469 16.2143 51.7302 16.3493 52.0069C16.4909 52.2768 16.6225 52.5197 16.744 52.7356C16.8654 52.9515 16.9734 53.1337 17.0678 53.2821C17.1623 53.4305 17.2264 53.525 17.2601 53.5655V53.606H14.487ZM7.9288 47.9485C8.32013 47.9485 8.72159 47.9485 9.13317 47.9485C9.54474 47.9417 9.9462 47.9383 10.3375 47.9383C10.7356 47.9316 11.1168 47.9282 11.4812 47.9282C11.8455 47.9215 12.1761 47.9147 12.473 47.908L9.62908 41.4813L6.83576 47.9485H7.9288ZM21.7942 48.2824C21.4703 48.2824 21.1937 48.2959 20.9643 48.3229C20.7417 48.3432 20.5696 48.3634 20.4482 48.3837V49.4362C20.4482 50.0165 20.4482 50.5023 20.4482 50.8936C20.4549 51.2849 20.4616 51.6122 20.4684 51.8753C20.4819 52.1384 20.492 52.351 20.4988 52.5129C20.5055 52.6681 20.5156 52.803 20.5291 52.9177C20.7045 52.965 20.8901 52.9953 21.0858 53.0088C21.2882 53.0223 21.4467 53.0291 21.5614 53.0291C22.4925 53.0291 23.1673 52.8267 23.5856 52.4218C24.0107 52.0103 24.2232 51.376 24.2232 50.5191C24.2232 50.1953 24.1726 49.895 24.0714 49.6184C23.9702 49.3418 23.8184 49.1056 23.6159 48.9099C23.4135 48.7143 23.1605 48.5625 22.8569 48.4545C22.5533 48.3398 22.199 48.2824 21.7942 48.2824ZM20.4482 47.5942C20.5831 47.6145 20.7045 47.628 20.8125 47.6347C20.9205 47.6347 21.0318 47.6347 21.1465 47.6347C21.8279 47.6347 22.3677 47.4458 22.7658 47.068C23.1706 46.6901 23.373 46.1267 23.373 45.3778C23.373 45.0742 23.3326 44.7942 23.2516 44.5378C23.1706 44.2814 23.0526 44.0621 22.8974 43.8799C22.7489 43.6978 22.56 43.5561 22.3306 43.4549C22.108 43.3536 21.8516 43.303 21.5614 43.303C21.3658 43.303 21.2005 43.3132 21.0655 43.3334C20.9306 43.3469 20.8159 43.3604 20.7214 43.3739C20.6135 43.4009 20.5224 43.4245 20.4482 43.4447V47.5942ZM18.3936 42.7059C18.5218 42.7127 18.6534 42.716 18.7884 42.716C18.9031 42.7228 19.0279 42.7262 19.1628 42.7262C19.2978 42.7262 19.4293 42.7262 19.5575 42.7262C19.7667 42.7262 20.0568 42.7127 20.4279 42.6857C20.799 42.6587 21.2612 42.6452 21.8145 42.6452C22.307 42.6452 22.7624 42.7059 23.1808 42.8274C23.6058 42.9421 23.9702 43.1108 24.2738 43.3334C24.5842 43.5561 24.8237 43.8293 24.9924 44.1532C25.1678 44.4771 25.2555 44.8448 25.2555 45.2563C25.2555 45.6072 25.2049 45.9209 25.1037 46.1976C25.0092 46.4675 24.8709 46.707 24.6887 46.9161C24.5066 47.1186 24.2873 47.2906 24.0309 47.4323C23.7745 47.5672 23.4911 47.6752 23.1808 47.7562C23.6328 47.8236 24.0444 47.935 24.4155 48.0902C24.7866 48.2453 25.1037 48.441 25.3668 48.6772C25.63 48.9066 25.8324 49.1798 25.9741 49.4969C26.1158 49.8073 26.1866 50.1548 26.1866 50.5394C26.1866 51.6054 25.8054 52.405 25.043 52.938C24.2805 53.4643 23.1436 53.7274 21.6323 53.7274C21.4703 53.7274 21.2679 53.7207 21.025 53.7072C20.7889 53.6937 20.5392 53.6802 20.2761 53.6667C20.0197 53.6532 19.7701 53.6397 19.5272 53.6262C19.291 53.6127 19.092 53.606 18.93 53.606H18.3936V53.5655C18.4409 53.4238 18.4814 53.2416 18.5151 53.019C18.5556 52.7963 18.5859 52.523 18.6062 52.1992C18.6332 51.8686 18.6534 51.4772 18.6669 51.0252C18.6804 50.5731 18.6871 50.0435 18.6871 49.4362V46.8858C18.6871 46.2785 18.6804 45.7489 18.6669 45.2968C18.6534 44.8448 18.6332 44.4534 18.6062 44.1228C18.5859 43.7922 18.5556 43.5156 18.5151 43.2929C18.4814 43.0703 18.4409 42.8881 18.3936 42.7464V42.7059ZM27.6946 48.1306C27.6946 47.3345 27.843 46.5957 28.1399 45.9142C28.4435 45.2327 28.8551 44.6424 29.3746 44.1431C29.8942 43.637 30.5082 43.2423 31.2166 42.9589C31.9251 42.6756 32.6841 42.5339 33.4938 42.5339C34.2899 42.5339 35.0389 42.6688 35.7406 42.9387C36.449 43.2018 37.063 43.5797 37.5826 44.0722C38.1088 44.5648 38.5238 45.1619 38.8274 45.8636C39.131 46.5653 39.2828 47.3513 39.2828 48.2217C39.2828 48.9437 39.1547 49.642 38.8983 50.3167C38.6419 50.9847 38.2674 51.5784 37.7749 52.098C37.2823 52.6108 36.6751 53.0223 35.9531 53.3327C35.2312 53.6363 34.4047 53.7881 33.4735 53.7881C32.6841 53.7881 31.9386 53.6566 31.2369 53.3934C30.5352 53.1303 29.9212 52.7558 29.3949 52.27C28.8686 51.7775 28.4537 51.1837 28.15 50.4888C27.8464 49.7871 27.6946 49.001 27.6946 48.1306ZM33.7266 53.0696C34.2393 53.0696 34.7116 52.9684 35.1435 52.7659C35.5753 52.5635 35.9464 52.2734 36.2567 51.8956C36.5739 51.5177 36.8168 51.0589 36.9854 50.5191C37.1609 49.9726 37.2486 49.3586 37.2486 48.6772C37.2486 47.9012 37.1642 47.1827 36.9956 46.5214C36.8336 45.8602 36.584 45.2901 36.2466 44.811C35.916 44.3252 35.5011 43.9474 35.0018 43.6775C34.5025 43.4009 33.9189 43.2626 33.2509 43.2626C32.7381 43.2626 32.2658 43.3604 31.834 43.5561C31.4022 43.7517 31.0277 44.0351 30.7106 44.4062C30.4002 44.7773 30.1573 45.2327 29.9819 45.7725C29.8065 46.3123 29.7187 46.9263 29.7187 47.6145C29.7187 48.3837 29.8031 49.1022 29.9718 49.7702C30.1472 50.4314 30.4002 51.0083 30.7308 51.5008C31.0682 51.9866 31.4865 52.3712 31.9858 52.6546C32.4851 52.9312 33.0653 53.0696 33.7266 53.0696ZM51.2962 52.3813C51.2962 52.4691 51.286 52.5433 51.2658 52.604C51.2523 52.6647 51.2152 52.7153 51.1545 52.7558C50.6754 53.0932 50.1154 53.3631 49.4744 53.5655C48.8402 53.7611 48.0946 53.859 47.2377 53.859C46.2729 53.859 45.3924 53.7207 44.5962 53.444C43.8068 53.1674 43.1287 52.7828 42.562 52.2903C41.9952 51.791 41.5533 51.1938 41.2361 50.4989C40.9258 49.8039 40.7706 49.0348 40.7706 48.1914C40.7706 47.4694 40.9123 46.7677 41.1957 46.0862C41.4858 45.4048 41.9007 44.8009 42.4405 44.2746C42.9803 43.7484 43.6348 43.3267 44.4039 43.0095C45.1799 42.6924 46.0536 42.5339 47.0252 42.5339C47.5312 42.5339 48.0103 42.5642 48.4624 42.625C48.9144 42.6789 49.3496 42.7666 49.7679 42.8881L50.527 44.7098L50.4258 44.7807C50.0209 44.3151 49.5318 43.9474 48.9583 43.6775C48.3848 43.4009 47.7269 43.2626 46.9847 43.2626C46.3775 43.2626 45.8175 43.3604 45.3047 43.5561C44.7986 43.7517 44.3567 44.0385 43.9789 44.4163C43.6078 44.7874 43.3176 45.2462 43.1085 45.7927C42.8993 46.3393 42.7947 46.96 42.7947 47.655C42.7947 48.4376 42.8926 49.163 43.0882 49.8309C43.2839 50.4989 43.5774 51.0791 43.9687 51.5717C44.3601 52.0575 44.8425 52.4387 45.416 52.7153C45.9963 52.992 46.671 53.1303 47.4402 53.1303C48.1014 53.1303 48.6142 53.0459 48.9785 52.8773C49.3496 52.7086 49.5352 52.5163 49.5352 52.3004V51.764C49.5352 51.4131 49.5318 51.1095 49.525 50.8531C49.5183 50.5967 49.5082 50.3774 49.4947 50.1953C49.4812 50.0063 49.4609 49.8444 49.4339 49.7095C49.4137 49.5745 49.3867 49.4497 49.353 49.335V49.2945H51.5087V49.335C51.475 49.4362 51.4446 49.5577 51.4176 49.6994C51.3906 49.841 51.367 50.0097 51.3468 50.2054C51.3333 50.4011 51.3198 50.6305 51.3063 50.8936C51.2995 51.1567 51.2962 51.4604 51.2962 51.8045V52.3813ZM60.3239 50.1851C60.1417 50.1851 59.9123 50.1851 59.6357 50.1851C59.3658 50.1851 59.0689 50.1851 58.745 50.1851C58.4212 50.1851 58.0872 50.1851 57.7431 50.1851C57.399 50.1851 57.0717 50.1885 56.7614 50.1953C56.451 50.1953 56.1676 50.1986 55.9112 50.2054C55.6548 50.2054 55.4558 50.2054 55.3141 50.2054L54.9396 50.9948C54.7777 51.3187 54.6394 51.6021 54.5247 51.8449C54.41 52.0811 54.3155 52.2903 54.2413 52.4724C54.1671 52.6546 54.1131 52.8132 54.0794 52.9481C54.0456 53.0763 54.0288 53.1978 54.0288 53.3125C54.0288 53.3867 54.0321 53.444 54.0389 53.4845C54.0456 53.5182 54.0558 53.5452 54.0692 53.5655V53.606H52.288V53.5655C52.3352 53.5182 52.4094 53.417 52.5107 53.2619C52.6119 53.0999 52.7266 52.9043 52.8548 52.6748C52.9897 52.4454 53.1314 52.1857 53.2798 51.8956C53.435 51.6054 53.5868 51.3052 53.7353 50.9948L57.8645 42.4731H58.6236L62.6719 50.9948C62.8271 51.3187 62.9822 51.629 63.1374 51.9259C63.2994 52.2228 63.4478 52.4893 63.5827 52.7255C63.7177 52.9549 63.8358 53.1472 63.937 53.3023C64.0382 53.4508 64.1056 53.5385 64.1394 53.5655V53.606H61.5485C61.562 53.552 61.5687 53.5047 61.5687 53.4643C61.5687 53.417 61.5687 53.3664 61.5687 53.3125C61.5687 53.164 61.535 52.9852 61.4675 52.7761C61.4068 52.5669 61.3292 52.3544 61.2347 52.1384C61.147 51.9158 61.0526 51.7033 60.9513 51.5008C60.8569 51.2984 60.7793 51.1297 60.7186 50.9948L60.3239 50.1851ZM55.7088 49.3957H56.3262C56.6095 49.3957 56.9098 49.3957 57.2269 49.3957C57.5508 49.389 57.8746 49.3856 58.1985 49.3856C58.5224 49.3856 58.8361 49.3856 59.1397 49.3856C59.4434 49.3789 59.7166 49.3755 59.9595 49.3755L57.8645 44.9021L55.7088 49.3957ZM67.4691 43.4447C67.4624 43.998 67.4556 44.5344 67.4489 45.0539C67.4489 45.2766 67.4455 45.506 67.4387 45.7421C67.4387 45.9715 67.4354 46.201 67.4286 46.4304C67.4286 46.6598 67.4286 46.879 67.4286 47.0882C67.4286 47.2906 67.4286 47.4728 67.4286 47.6347C67.4286 47.9721 67.4286 48.3803 67.4286 48.8593C67.4354 49.3316 67.4421 49.8174 67.4489 50.3167C67.4556 50.816 67.4657 51.2984 67.4792 51.764C67.4927 52.2228 67.5096 52.6074 67.5298 52.9177C67.5973 52.9312 67.685 52.9447 67.793 52.9582C67.9009 52.965 68.0122 52.9751 68.127 52.9886C68.2484 52.9953 68.3665 53.0021 68.4812 53.0088C68.5959 53.0088 68.6937 53.0088 68.7747 53.0088C69.1458 53.0088 69.5202 52.9852 69.8981 52.938C70.2827 52.8908 70.6504 52.803 71.0012 52.6748C71.3588 52.5399 71.6928 52.3577 72.0032 52.1283C72.3136 51.8989 72.5835 51.6054 72.8129 51.2478C73.049 50.8835 73.2312 50.4483 73.3594 49.9422C73.4943 49.4295 73.5618 48.8256 73.5618 48.1306C73.5618 46.599 73.1941 45.4183 72.4586 44.5884C71.7299 43.7585 70.6403 43.3435 69.1896 43.3435C69.0479 43.3435 68.8961 43.3469 68.7342 43.3536C68.579 43.3604 68.4238 43.3705 68.2686 43.384C68.1135 43.3908 67.965 43.4009 67.8233 43.4144C67.6884 43.4279 67.5703 43.438 67.4691 43.4447ZM65.3741 42.7059C65.536 42.7127 65.6879 42.716 65.8295 42.716C65.951 42.7228 66.0691 42.7262 66.1838 42.7262C66.2985 42.7262 66.3828 42.7262 66.4368 42.7262C66.5312 42.7262 66.6999 42.7228 66.9428 42.716C67.1857 42.7093 67.459 42.7025 67.7626 42.6958C68.073 42.6823 68.3968 42.6722 68.7342 42.6654C69.0783 42.6519 69.3954 42.6452 69.6855 42.6452C70.475 42.6452 71.2273 42.7363 71.9425 42.9185C72.6577 43.1006 73.2852 43.4009 73.8249 43.8192C74.3714 44.2308 74.8033 44.7739 75.1204 45.4486C75.4375 46.1166 75.5961 46.9431 75.5961 47.9282C75.5961 48.9875 75.4139 49.8849 75.0495 50.6203C74.6852 51.3558 74.1926 51.9563 73.5719 52.4218C72.9512 52.8806 72.2292 53.2146 71.4061 53.4238C70.5897 53.6262 69.726 53.7274 68.8152 53.7274C68.5993 53.7274 68.3294 53.7207 68.0055 53.7072C67.6816 53.6937 67.351 53.6802 67.0137 53.6667C66.6763 53.6532 66.3558 53.6397 66.0522 53.6262C65.7553 53.6127 65.5293 53.606 65.3741 53.606V53.5655C65.4213 53.4238 65.4618 53.2416 65.4956 53.019C65.536 52.7963 65.5664 52.523 65.5866 52.1992C65.6136 51.8686 65.6339 51.4772 65.6474 51.0252C65.6609 50.5731 65.6676 50.0435 65.6676 49.4362V46.8858C65.6676 46.2785 65.6609 45.7489 65.6474 45.2968C65.6339 44.8448 65.6136 44.4534 65.5866 44.1228C65.5664 43.7922 65.536 43.5156 65.4956 43.2929C65.4618 43.0703 65.4213 42.8881 65.3741 42.7464V42.7059ZM77.1648 48.1306C77.1648 47.3345 77.3132 46.5957 77.6101 45.9142C77.9137 45.2327 78.3253 44.6424 78.8448 44.1431C79.3643 43.637 79.9783 43.2423 80.6868 42.9589C81.3952 42.6756 82.1543 42.5339 82.964 42.5339C83.7601 42.5339 84.509 42.6688 85.2108 42.9387C85.9192 43.2018 86.5332 43.5797 87.0527 44.0722C87.579 44.5648 87.994 45.1619 88.2976 45.8636C88.6012 46.5653 88.753 47.3513 88.753 48.2217C88.753 48.9437 88.6248 49.642 88.3684 50.3167C88.112 50.9847 87.7376 51.5784 87.245 52.098C86.7525 52.6108 86.1452 53.0223 85.4233 53.3327C84.7013 53.6363 83.8748 53.7881 82.9437 53.7881C82.1543 53.7881 81.4087 53.6566 80.707 53.3934C80.0053 53.1303 79.3913 52.7558 78.8651 52.27C78.3388 51.7775 77.9238 51.1837 77.6202 50.4888C77.3166 49.7871 77.1648 49.001 77.1648 48.1306ZM83.1967 53.0696C83.7095 53.0696 84.1818 52.9684 84.6136 52.7659C85.0454 52.5635 85.4165 52.2734 85.7269 51.8956C86.044 51.5177 86.2869 51.0589 86.4556 50.5191C86.631 49.9726 86.7187 49.3586 86.7187 48.6772C86.7187 47.9012 86.6344 47.1827 86.4657 46.5214C86.3038 45.8602 86.0541 45.2901 85.7168 44.811C85.3862 44.3252 84.9712 43.9474 84.4719 43.6775C83.9727 43.4009 83.389 43.2626 82.7211 43.2626C82.2083 43.2626 81.736 43.3604 81.3041 43.5561C80.8723 43.7517 80.4979 44.0351 80.1807 44.4062C79.8704 44.7773 79.6275 45.2327 79.4521 45.7725C79.2766 46.3123 79.1889 46.9263 79.1889 47.6145C79.1889 48.3837 79.2733 49.1022 79.4419 49.7702C79.6174 50.4314 79.8704 51.0083 80.201 51.5008C80.5383 51.9866 80.9567 52.3712 81.456 52.6546C81.9552 52.9312 82.5355 53.0696 83.1967 53.0696ZM95.7464 44.8414H95.544C95.5035 44.7267 95.4361 44.5816 95.3416 44.4062C95.2539 44.2308 95.1325 44.0587 94.9773 43.89C94.8288 43.7214 94.6433 43.5797 94.4206 43.465C94.198 43.3435 93.9315 43.2828 93.6211 43.2828C93.3849 43.2828 93.1724 43.3233 92.9835 43.4043C92.8013 43.4785 92.6461 43.5831 92.5179 43.718C92.3897 43.8529 92.2919 44.0149 92.2244 44.2038C92.157 44.386 92.1232 44.585 92.1232 44.8009C92.1232 45.1518 92.2278 45.4858 92.437 45.8029C92.6529 46.12 92.9194 46.4371 93.2365 46.7542C93.5536 47.0646 93.8977 47.3783 94.2688 47.6954C94.6399 48.0126 94.984 48.3432 95.3011 48.6873C95.6182 49.0314 95.8814 49.3957 96.0906 49.7803C96.3065 50.1649 96.4144 50.5765 96.4144 51.015C96.4144 51.3389 96.3537 51.6729 96.2322 52.017C96.1175 52.3611 95.9286 52.6715 95.6655 52.9481C95.4023 53.2247 95.065 53.4508 94.6534 53.6262C94.2418 53.8084 93.7425 53.8995 93.1555 53.8995C92.8317 53.8995 92.5213 53.8725 92.2244 53.8185C91.9343 53.7645 91.6644 53.697 91.4148 53.6161C91.1719 53.5419 90.9526 53.4609 90.7569 53.3732C90.568 53.2787 90.4094 53.191 90.2812 53.11L90.4634 51.1972H90.676C90.7434 51.4334 90.8413 51.6695 90.9695 51.9057C91.1044 52.1418 91.2663 52.3577 91.4553 52.5534C91.6509 52.7423 91.8769 52.8975 92.1333 53.019C92.3965 53.1337 92.6967 53.191 93.0341 53.191C93.2702 53.191 93.4929 53.1539 93.7021 53.0797C93.9112 52.9987 94.09 52.8874 94.2385 52.7457C94.3936 52.604 94.5151 52.432 94.6028 52.2295C94.6905 52.0204 94.7344 51.7876 94.7344 51.5312C94.7344 51.2276 94.6736 50.9476 94.5522 50.6912C94.4307 50.428 94.2688 50.1784 94.0664 49.9422C93.864 49.6994 93.6346 49.4666 93.3782 49.2439C93.1285 49.0213 92.8688 48.7952 92.5989 48.5658C92.329 48.3364 92.0659 48.1036 91.8095 47.8675C91.5598 47.6246 91.3338 47.3648 91.1314 47.0882C90.929 46.8116 90.767 46.5181 90.6456 46.2077C90.5241 45.8906 90.4634 45.5431 90.4634 45.1653C90.4634 44.7672 90.5478 44.4096 90.7164 44.0925C90.8851 43.7753 91.1078 43.5088 91.3844 43.2929C91.661 43.0703 91.9782 42.9016 92.3358 42.7869C92.6934 42.6654 93.0644 42.6047 93.449 42.6047C93.7324 42.6047 93.9956 42.625 94.2385 42.6654C94.4881 42.7059 94.7108 42.7565 94.9064 42.8173C95.1088 42.8712 95.2843 42.9286 95.4327 42.9893C95.5811 43.0433 95.7026 43.0871 95.797 43.1209L95.7464 44.8414Z" fill="white"/>
</svg>
