<svg width="154" height="52" viewBox="0 0 154 52" fill="none" xmlns="http://www.w3.org/2000/svg">
<path d="M5.35413 18.1406H9.53381C10.2955 18.1406 10.9987 18.1081 11.6432 18.043C12.2942 17.9779 12.8606 17.903 13.3424 17.8184C13.9023 17.7272 14.4134 17.6198 14.8756 17.4961L14.3971 19.0781C14.319 19.0716 14.2018 19.0651 14.0455 19.0586C13.8893 19.0521 13.7135 19.0456 13.5182 19.0391C13.3294 19.0326 13.1276 19.026 12.9127 19.0195C12.7044 19.0195 12.5058 19.0163 12.317 19.0098C12.1282 19.0098 11.9589 19.0065 11.8092 19C11.666 19 11.5618 19 11.4967 19H2.67834V18.7559L12.1901 5.85547H8.51819C7.74996 5.85547 7.04032 5.89128 6.38928 5.96289C5.74475 6.02799 5.1816 6.09961 4.69983 6.17773C4.13993 6.27539 3.63212 6.38281 3.17639 6.5L3.85022 4.91797C3.92834 4.92448 4.04553 4.93099 4.20178 4.9375C4.36454 4.94401 4.54032 4.95052 4.72913 4.95703C4.92444 4.96354 5.12626 4.97005 5.33459 4.97656C5.54293 4.97656 5.7415 4.97982 5.9303 4.98633C6.1191 4.98633 6.28512 4.98958 6.42834 4.99609C6.57808 4.99609 6.68551 4.99609 6.75061 4.99609H14.8756V5.25977L5.35413 18.1406ZM16.5846 8.50195C17.2226 8.50195 17.8769 8.50195 18.5475 8.50195C19.2181 8.49544 19.8398 8.48893 20.4127 8.48242C20.9856 8.4694 21.4772 8.45638 21.8873 8.44336C22.304 8.43034 22.5774 8.41081 22.7076 8.38477L22.3268 9.43945C22.151 9.39388 21.9524 9.35156 21.7311 9.3125C21.5358 9.27995 21.2981 9.25065 21.0182 9.22461C20.7448 9.19206 20.4257 9.17578 20.0612 9.17578C19.9309 9.17578 19.7812 9.18229 19.6119 9.19531C19.4427 9.20182 19.2799 9.21159 19.1237 9.22461C18.9414 9.23763 18.7558 9.25065 18.567 9.26367V13.1211C19.0944 13.1146 19.5696 13.1016 19.9928 13.082C20.416 13.0625 20.7773 13.0365 21.0768 13.0039C21.4283 12.9779 21.7376 12.9421 22.0045 12.8965L21.7701 14.0586C21.4121 14.013 21.0507 13.974 20.6862 13.9414C20.3737 13.9089 20.0286 13.8828 19.651 13.8633C19.2734 13.8372 18.9121 13.8242 18.567 13.8242V18.2578C19.1725 18.2578 19.7291 18.235 20.2369 18.1895C20.7448 18.1374 21.1875 18.082 21.5651 18.0234C22.0078 17.9518 22.4082 17.8704 22.7662 17.7793L22.5416 19.0586C22.444 19.0521 22.2845 19.0423 22.0631 19.0293C21.8483 19.0228 21.6204 19.0163 21.3795 19.0098C21.1451 19.0098 20.9238 19.0065 20.7155 19C20.5071 19 20.3639 19 20.2858 19H16.5846V18.9609C16.6302 18.8242 16.6692 18.6484 16.7018 18.4336C16.7408 18.2188 16.7701 17.9551 16.7897 17.6426C16.8157 17.3236 16.8352 16.946 16.8483 16.5098C16.8613 16.0736 16.8678 15.5625 16.8678 14.9766V12.5156C16.8678 11.9297 16.8613 11.4219 16.8483 10.9922C16.8352 10.556 16.8157 10.1816 16.7897 9.86914C16.7701 9.55013 16.7408 9.2832 16.7018 9.06836C16.6692 8.85352 16.6302 8.67773 16.5846 8.54102V8.50195ZM26.9264 14.2441C27.0566 14.2637 27.1836 14.2832 27.3073 14.3027C27.4375 14.3158 27.5644 14.3223 27.6881 14.3223C28.0592 14.3223 28.3977 14.2669 28.7037 14.1562C29.0162 14.0391 29.2799 13.8665 29.4948 13.6387C29.7161 13.4108 29.8854 13.1211 30.0026 12.7695C30.1263 12.418 30.1881 12.0078 30.1881 11.5391C30.1881 11.1615 30.1458 10.8197 30.0612 10.5137C29.9765 10.2077 29.8496 9.94727 29.6803 9.73242C29.5175 9.51107 29.3125 9.3418 29.0651 9.22461C28.8177 9.10091 28.5312 9.03906 28.2057 9.03906C27.9974 9.03906 27.8118 9.04883 27.649 9.06836C27.4928 9.08138 27.3593 9.09766 27.2487 9.11719C27.125 9.14323 27.0175 9.16927 26.9264 9.19531V14.2441ZM26.9264 14.918C26.9264 15.5039 26.9329 16.0182 26.9459 16.4609C26.9589 16.9036 26.9752 17.2878 26.9948 17.6133C27.0208 17.9323 27.0501 18.2025 27.0826 18.4238C27.1152 18.6452 27.1543 18.8242 27.1998 18.9609V19H24.944V18.9609C24.9895 18.8242 25.0286 18.6484 25.0612 18.4336C25.1002 18.2188 25.1295 17.9551 25.149 17.6426C25.1751 17.3236 25.1946 16.946 25.2076 16.5098C25.2207 16.0736 25.2272 15.5625 25.2272 14.9766V12.5156C25.2272 11.9297 25.2207 11.4219 25.2076 10.9922C25.1946 10.556 25.1751 10.1816 25.149 9.86914C25.1295 9.55013 25.1002 9.2832 25.0612 9.06836C25.0286 8.85352 24.9895 8.67773 24.944 8.54102V8.50195C25.0872 8.50846 25.2304 8.51497 25.3737 8.52148C25.4974 8.52799 25.6276 8.53451 25.7643 8.54102C25.9075 8.54102 26.041 8.54102 26.1647 8.54102C26.373 8.54102 26.679 8.52148 27.0826 8.48242C27.4928 8.44336 27.9746 8.42383 28.528 8.42383C29.0358 8.42383 29.5078 8.49219 29.944 8.62891C30.3802 8.75911 30.7545 8.95443 31.067 9.21484C31.386 9.47526 31.6334 9.79427 31.8092 10.1719C31.9915 10.543 32.0826 10.9727 32.0826 11.4609C32.0826 12.0339 31.972 12.5417 31.7506 12.9844C31.5293 13.4206 31.2265 13.7884 30.8424 14.0879C30.4648 14.3809 30.0188 14.6022 29.5045 14.752C28.9902 14.9017 28.4433 14.9766 27.8639 14.9766C27.5579 14.9766 27.2454 14.957 26.9264 14.918ZM33.7721 8.50195C34.4101 8.50195 35.0644 8.50195 35.735 8.50195C36.4056 8.49544 37.0273 8.48893 37.6002 8.48242C38.1731 8.4694 38.6647 8.45638 39.0748 8.44336C39.4915 8.43034 39.7649 8.41081 39.8951 8.38477L39.5143 9.43945C39.3385 9.39388 39.1399 9.35156 38.9186 9.3125C38.7233 9.27995 38.4856 9.25065 38.2057 9.22461C37.9323 9.19206 37.6132 9.17578 37.2487 9.17578C37.1184 9.17578 36.9687 9.18229 36.7994 9.19531C36.6302 9.20182 36.4674 9.21159 36.3112 9.22461C36.1289 9.23763 35.9433 9.25065 35.7545 9.26367V13.1211C36.2819 13.1146 36.7571 13.1016 37.1803 13.082C37.6035 13.0625 37.9648 13.0365 38.2643 13.0039C38.6158 12.9779 38.9251 12.9421 39.192 12.8965L38.9576 14.0586C38.5996 14.013 38.2382 13.974 37.8737 13.9414C37.5612 13.9089 37.2161 13.8828 36.8385 13.8633C36.4609 13.8372 36.0996 13.8242 35.7545 13.8242V18.2578C36.36 18.2578 36.9166 18.235 37.4244 18.1895C37.9323 18.1374 38.375 18.082 38.7526 18.0234C39.1953 17.9518 39.5957 17.8704 39.9537 17.7793L39.7291 19.0586C39.6315 19.0521 39.472 19.0423 39.2506 19.0293C39.0358 19.0228 38.8079 19.0163 38.567 19.0098C38.3326 19.0098 38.1113 19.0065 37.903 19C37.6946 19 37.5514 19 37.4733 19H33.7721V18.9609C33.8177 18.8242 33.8567 18.6484 33.8893 18.4336C33.9283 18.2188 33.9576 17.9551 33.9772 17.6426C34.0032 17.3236 34.0227 16.946 34.0358 16.5098C34.0488 16.0736 34.0553 15.5625 34.0553 14.9766V12.5156C34.0553 11.9297 34.0488 11.4219 34.0358 10.9922C34.0227 10.556 34.0032 10.1816 33.9772 9.86914C33.9576 9.55013 33.9283 9.2832 33.8893 9.06836C33.8567 8.85352 33.8177 8.67773 33.7721 8.54102V8.50195ZM44.153 9.19531C44.1464 9.72917 44.1399 10.2467 44.1334 10.748C44.1334 10.9629 44.1302 11.1842 44.1237 11.4121C44.1237 11.6335 44.1204 11.8548 44.1139 12.0762C44.1139 12.2975 44.1139 12.5091 44.1139 12.7109C44.1139 12.9062 44.1139 13.082 44.1139 13.2383C44.1139 13.5638 44.1139 13.9577 44.1139 14.4199C44.1204 14.8757 44.1269 15.3444 44.1334 15.8262C44.1399 16.3079 44.1497 16.7734 44.1627 17.2227C44.1757 17.6654 44.192 18.0365 44.2115 18.3359C44.2767 18.349 44.3613 18.362 44.4655 18.375C44.5696 18.3815 44.677 18.3913 44.7877 18.4043C44.9049 18.4108 45.0188 18.4173 45.1295 18.4238C45.2402 18.4238 45.3346 18.4238 45.4127 18.4238C45.7708 18.4238 46.1321 18.401 46.4967 18.3555C46.8678 18.3099 47.2226 18.2253 47.5612 18.1016C47.9062 17.9714 48.2285 17.7956 48.528 17.5742C48.8274 17.3529 49.0878 17.0697 49.3092 16.7246C49.5371 16.373 49.7128 15.9531 49.8365 15.4648C49.9668 14.9701 50.0319 14.3874 50.0319 13.7168C50.0319 12.2389 49.677 11.0996 48.9674 10.2988C48.2643 9.49805 47.2128 9.09766 45.8131 9.09766C45.6764 9.09766 45.5299 9.10091 45.3737 9.10742C45.2239 9.11393 45.0742 9.1237 44.9244 9.13672C44.7747 9.14323 44.6315 9.15299 44.4948 9.16602C44.3645 9.17904 44.2506 9.1888 44.153 9.19531ZM42.1315 8.48242C42.2877 8.48893 42.4342 8.49219 42.5709 8.49219C42.6881 8.4987 42.802 8.50195 42.9127 8.50195C43.0234 8.50195 43.1048 8.50195 43.1569 8.50195C43.248 8.50195 43.4108 8.4987 43.6451 8.49219C43.8795 8.48568 44.1432 8.47917 44.4362 8.47266C44.7356 8.45964 45.0481 8.44987 45.3737 8.44336C45.7057 8.43034 46.0117 8.42383 46.2916 8.42383C47.0533 8.42383 47.7793 8.51172 48.4694 8.6875C49.1595 8.86328 49.7649 9.15299 50.2858 9.55664C50.8131 9.95378 51.2298 10.4779 51.5358 11.1289C51.8418 11.7734 51.9948 12.571 51.9948 13.5215C51.9948 14.5436 51.819 15.4095 51.4674 16.1191C51.1158 16.8288 50.6406 17.4082 50.0416 17.8574C49.4427 18.3001 48.7461 18.6224 47.9518 18.8242C47.164 19.0195 46.3307 19.1172 45.4518 19.1172C45.2434 19.1172 44.983 19.1107 44.6705 19.0977C44.358 19.0846 44.039 19.0716 43.7135 19.0586C43.388 19.0456 43.0787 19.0326 42.7858 19.0195C42.4993 19.0065 42.2812 19 42.1315 19V18.9609C42.177 18.8242 42.2161 18.6484 42.2487 18.4336C42.2877 18.2188 42.317 17.9551 42.3365 17.6426C42.3626 17.3236 42.3821 16.946 42.3951 16.5098C42.4082 16.0736 42.4147 15.5625 42.4147 14.9766V12.5156C42.4147 11.9297 42.4082 11.4186 42.3951 10.9824C42.3821 10.5462 42.3626 10.1686 42.3365 9.84961C42.317 9.5306 42.2877 9.26367 42.2487 9.04883C42.2161 8.83398 42.177 8.6582 42.1315 8.52148V8.48242ZM60.442 15.6992C60.2662 15.6992 60.0449 15.6992 59.778 15.6992C59.5175 15.6992 59.2311 15.6992 58.9186 15.6992C58.6061 15.6992 58.2838 15.6992 57.9518 15.6992C57.6198 15.6992 57.304 15.7025 57.0045 15.709C56.705 15.709 56.4316 15.7122 56.1842 15.7188C55.9368 15.7188 55.7448 15.7188 55.608 15.7188L55.2467 16.4805C55.0905 16.793 54.957 17.0664 54.8463 17.3008C54.7356 17.5286 54.6445 17.7305 54.5729 17.9062C54.5013 18.082 54.4492 18.235 54.4166 18.3652C54.3841 18.4889 54.3678 18.6061 54.3678 18.7168C54.3678 18.7884 54.3711 18.8438 54.3776 18.8828C54.3841 18.9154 54.3938 18.9414 54.4069 18.9609V19H52.6881V18.9609C52.7337 18.9154 52.8053 18.8177 52.903 18.668C53.0006 18.5117 53.1113 18.3229 53.235 18.1016C53.3652 17.8802 53.5019 17.6296 53.6451 17.3496C53.7949 17.0697 53.9414 16.7799 54.0846 16.4805L58.069 8.25781H58.8014L62.7076 16.4805C62.8574 16.793 63.0071 17.0924 63.1569 17.3789C63.3131 17.6654 63.4563 17.9225 63.5865 18.1504C63.7168 18.3717 63.8307 18.5573 63.9283 18.707C64.026 18.8503 64.0911 18.9349 64.1237 18.9609V19H61.6237C61.6367 18.9479 61.6432 18.9023 61.6432 18.8633C61.6432 18.8177 61.6432 18.7689 61.6432 18.7168C61.6432 18.5736 61.6106 18.401 61.5455 18.1992C61.4869 17.9974 61.4121 17.7923 61.3209 17.584C61.2363 17.3691 61.1451 17.1641 61.0475 16.9688C60.9563 16.7734 60.8815 16.6107 60.8229 16.4805L60.442 15.6992ZM55.9889 14.9375H56.5846C56.858 14.9375 57.1477 14.9375 57.4537 14.9375C57.7662 14.931 58.0787 14.9277 58.3912 14.9277C58.7037 14.9277 59.0065 14.9277 59.2994 14.9277C59.5924 14.9212 59.8561 14.918 60.0905 14.918L58.069 10.6016L55.9889 14.9375ZM82.5709 13.7559C82.33 15.0514 81.8157 16.1452 81.028 17.0371C81.692 17.7012 82.3724 18.3164 83.069 18.8828C83.7656 19.4427 84.4492 19.931 85.1198 20.3477C85.7968 20.7643 86.4479 21.0898 87.0729 21.3242C87.6979 21.5586 88.2708 21.6758 88.7916 21.6758C89 21.6758 89.2083 21.6562 89.4166 21.6172V21.8418C89.3385 21.8743 89.2343 21.9199 89.1041 21.9785C88.9804 22.0371 88.8242 22.0924 88.6354 22.1445C88.4531 22.1966 88.235 22.2422 87.9811 22.2812C87.7337 22.3203 87.4505 22.3398 87.1315 22.3398C86.6237 22.3398 86.0735 22.2324 85.4811 22.0176C84.8951 21.8092 84.2864 21.5163 83.6549 21.1387C83.0234 20.7676 82.3821 20.3249 81.7311 19.8105C81.0865 19.2962 80.455 18.7331 79.8365 18.1211C79.2701 18.5052 78.6451 18.8014 77.9615 19.0098C77.2845 19.2181 76.5423 19.3223 75.735 19.3223C75.0058 19.3223 74.3483 19.2311 73.7623 19.0488C73.1829 18.8665 72.6914 18.6061 72.2877 18.2676C71.8841 17.929 71.5716 17.5189 71.3502 17.0371C71.1354 16.5553 71.028 16.015 71.028 15.416C71.028 14.8431 71.1354 14.3353 71.3502 13.8926C71.5651 13.4434 71.845 13.0397 72.1901 12.6816C72.5416 12.3236 72.942 11.998 73.3912 11.7051C73.8405 11.4121 74.2994 11.1289 74.7682 10.8555C74.5794 10.3672 74.4329 9.89193 74.3287 9.42969C74.2246 8.96745 74.1725 8.52474 74.1725 8.10156C74.1725 7.58724 74.2539 7.125 74.4166 6.71484C74.5859 6.29818 74.8138 5.94661 75.1002 5.66016C75.3867 5.3737 75.722 5.15234 76.1061 4.99609C76.4967 4.83984 76.9134 4.76172 77.3561 4.76172C77.6816 4.76172 77.9876 4.80729 78.274 4.89844C78.5605 4.98958 78.8079 5.1263 79.0162 5.30859C79.2311 5.48438 79.4003 5.70573 79.524 5.97266C79.6477 6.23958 79.7096 6.54883 79.7096 6.90039C79.7096 7.3431 79.6152 7.74023 79.4264 8.0918C79.2441 8.44336 79 8.76562 78.694 9.05859C78.3945 9.35156 78.0494 9.625 77.6588 9.87891C77.2682 10.1328 76.8645 10.3802 76.4479 10.6211C76.6562 11.1094 76.9036 11.6042 77.1901 12.1055C77.483 12.6068 77.802 13.1081 78.1471 13.6094C78.4921 14.1042 78.8632 14.5924 79.2604 15.0742C79.6575 15.556 80.0677 16.0247 80.4908 16.4805C80.8033 16.0573 81.0475 15.5755 81.2233 15.0352C81.4056 14.4948 81.4967 13.9023 81.4967 13.2578C81.4967 12.7109 81.4642 12.2552 81.399 11.8906C81.3405 11.5195 81.2786 11.2038 81.2135 10.9434V10.9043H82.9713V10.9434C82.9257 11.0996 82.8899 11.2754 82.8639 11.4707C82.8444 11.6595 82.8216 11.8711 82.7955 12.1055C82.7695 12.3333 82.7402 12.5872 82.7076 12.8672C82.6751 13.1406 82.6295 13.4368 82.5709 13.7559ZM76.4674 18.4434C77.0013 18.4434 77.5091 18.3717 77.9908 18.2285C78.4791 18.0853 78.9251 17.877 79.3287 17.6035C78.886 17.1348 78.4563 16.653 78.0397 16.1582C77.623 15.6569 77.2324 15.1491 76.8678 14.6348C76.5032 14.1139 76.1647 13.5931 75.8522 13.0723C75.5462 12.5449 75.2793 12.0273 75.0514 11.5195C74.7454 11.7279 74.4589 11.946 74.192 12.1738C73.9316 12.4017 73.7037 12.6523 73.5084 12.9258C73.3131 13.1992 73.1569 13.4987 73.0397 13.8242C72.929 14.1432 72.8737 14.4948 72.8737 14.8789C72.8737 15.3867 72.9615 15.8587 73.1373 16.2949C73.3196 16.7311 73.5703 17.1087 73.8893 17.4277C74.2083 17.7467 74.5859 17.9974 75.0221 18.1797C75.4648 18.3555 75.9466 18.4434 76.4674 18.4434ZM75.735 7.58398C75.735 7.96159 75.7773 8.35221 75.8619 8.75586C75.9466 9.15299 76.0638 9.56641 76.2135 9.99609C76.5325 9.79427 76.8287 9.58594 77.1022 9.37109C77.3821 9.15625 77.623 8.92513 77.8248 8.67773C78.0332 8.42383 78.1959 8.15365 78.3131 7.86719C78.4303 7.58073 78.4889 7.26497 78.4889 6.91992C78.4889 6.72461 78.4628 6.54232 78.4108 6.37305C78.3652 6.19727 78.2936 6.04427 78.1959 5.91406C78.0983 5.77734 77.9713 5.67318 77.8151 5.60156C77.6653 5.52344 77.4895 5.48438 77.2877 5.48438C76.7669 5.48438 76.3763 5.66992 76.1158 6.04102C75.8619 6.41211 75.735 6.92643 75.735 7.58398ZM96.4967 5.85547C95.7285 5.85547 95.0351 5.89128 94.4166 5.96289C93.7981 6.02799 93.2643 6.09961 92.8151 6.17773C92.2942 6.27539 91.8287 6.38281 91.4186 6.5L91.7018 4.91797C91.7799 4.92448 91.8971 4.93099 92.0533 4.9375C92.2096 4.94401 92.3821 4.95052 92.5709 4.95703C92.7662 4.96354 92.9681 4.97005 93.1764 4.97656C93.3912 4.97656 93.5931 4.97982 93.7819 4.98633C93.9707 4.98633 94.1367 4.98958 94.2799 4.99609C94.4296 4.99609 94.5371 4.99609 94.6022 4.99609H100.178C100.243 4.99609 100.348 4.99609 100.491 4.99609C100.641 4.98958 100.81 4.98633 100.999 4.98633C101.187 4.97982 101.386 4.97656 101.594 4.97656C101.809 4.97005 102.011 4.96354 102.2 4.95703C102.395 4.95052 102.571 4.94401 102.727 4.9375C102.883 4.93099 103.001 4.92448 103.079 4.91797L103.362 6.5C102.945 6.38281 102.477 6.27539 101.956 6.17773C101.506 6.09961 100.973 6.02799 100.354 5.96289C99.7356 5.89128 99.0423 5.85547 98.274 5.85547V15.1816C98.274 15.735 98.2806 16.2201 98.2936 16.6367C98.3131 17.0469 98.3326 17.4017 98.3522 17.7012C98.3782 18.0007 98.4075 18.2513 98.4401 18.4531C98.4791 18.6549 98.5182 18.8242 98.5573 18.9609V19H96.2233V18.9609C96.2623 18.8242 96.2981 18.6549 96.3307 18.4531C96.3632 18.2513 96.3925 18.0007 96.4186 17.7012C96.4446 17.4017 96.4642 17.0469 96.4772 16.6367C96.4902 16.2201 96.4967 15.735 96.4967 15.1816V5.85547ZM103.313 13.7168C103.313 12.9486 103.456 12.2357 103.743 11.5781C104.036 10.9206 104.433 10.3509 104.934 9.86914C105.436 9.38086 106.028 9 106.712 8.72656C107.395 8.45312 108.128 8.31641 108.909 8.31641C109.677 8.31641 110.4 8.44661 111.077 8.70703C111.76 8.96094 112.353 9.32552 112.854 9.80078C113.362 10.276 113.762 10.8522 114.055 11.5293C114.348 12.2064 114.495 12.9648 114.495 13.8047C114.495 14.5013 114.371 15.1751 114.124 15.8262C113.876 16.4707 113.515 17.0436 113.04 17.5449C112.564 18.0397 111.978 18.4368 111.282 18.7363C110.585 19.0293 109.788 19.1758 108.889 19.1758C108.128 19.1758 107.408 19.0488 106.731 18.7949C106.054 18.541 105.462 18.1797 104.954 17.7109C104.446 17.2357 104.046 16.6628 103.753 15.9922C103.46 15.3151 103.313 14.5566 103.313 13.7168ZM109.133 18.4824C109.628 18.4824 110.084 18.3848 110.501 18.1895C110.917 17.9941 111.275 17.7142 111.575 17.3496C111.881 16.985 112.115 16.5423 112.278 16.0215C112.447 15.4941 112.532 14.9017 112.532 14.2441C112.532 13.4954 112.45 12.8021 112.288 12.1641C112.131 11.526 111.891 10.9759 111.565 10.5137C111.246 10.0449 110.846 9.68034 110.364 9.41992C109.882 9.15299 109.319 9.01953 108.674 9.01953C108.18 9.01953 107.724 9.11393 107.307 9.30273C106.891 9.49154 106.529 9.76497 106.223 10.123C105.924 10.4811 105.689 10.9206 105.52 11.4414C105.351 11.9622 105.266 12.5547 105.266 13.2188C105.266 13.9609 105.348 14.6543 105.51 15.2988C105.68 15.9368 105.924 16.4935 106.243 16.9688C106.568 17.4375 106.972 17.8086 107.454 18.082C107.936 18.349 108.495 18.4824 109.133 18.4824ZM118.469 13.9023C118.6 13.9219 118.73 13.9382 118.86 13.9512C118.997 13.9577 119.127 13.9609 119.251 13.9609C120.064 13.9609 120.68 13.7428 121.096 13.3066C121.519 12.8704 121.731 12.2161 121.731 11.3438C121.731 10.6276 121.562 10.0612 121.223 9.64453C120.891 9.22786 120.4 9.01953 119.749 9.01953C119.54 9.01953 119.355 9.0293 119.192 9.04883C119.036 9.06185 118.902 9.07812 118.792 9.09766C118.668 9.1237 118.561 9.14974 118.469 9.17578V13.9023ZM119.964 14.5371C119.833 14.5566 119.703 14.5697 119.573 14.5762C119.449 14.5762 119.322 14.5762 119.192 14.5762C119.088 14.5762 118.974 14.5729 118.85 14.5664C118.727 14.5599 118.6 14.5501 118.469 14.5371V15.0156C118.469 15.5951 118.476 16.1029 118.489 16.5391C118.502 16.9688 118.518 17.3398 118.538 17.6523C118.564 17.9648 118.593 18.2285 118.626 18.4434C118.658 18.6517 118.697 18.8242 118.743 18.9609V19H116.487V18.9609C116.533 18.8242 116.572 18.6484 116.604 18.4336C116.643 18.2188 116.672 17.9551 116.692 17.6426C116.718 17.3236 116.738 16.946 116.751 16.5098C116.764 16.0736 116.77 15.5625 116.77 14.9766V12.5156C116.77 11.9297 116.764 11.4219 116.751 10.9922C116.738 10.556 116.718 10.1816 116.692 9.86914C116.672 9.55013 116.643 9.2832 116.604 9.06836C116.572 8.85352 116.533 8.67773 116.487 8.54102V8.50195C116.591 8.50846 116.702 8.51497 116.819 8.52148C116.917 8.52799 117.024 8.53451 117.141 8.54102C117.265 8.54102 117.389 8.54102 117.512 8.54102C117.721 8.54102 118.03 8.52148 118.44 8.48242C118.85 8.44336 119.332 8.42383 119.885 8.42383C120.445 8.42383 120.953 8.49219 121.409 8.62891C121.871 8.76562 122.265 8.96094 122.59 9.21484C122.922 9.46875 123.176 9.77799 123.352 10.1426C123.534 10.5072 123.626 10.9141 123.626 11.3633C123.626 11.7148 123.577 12.0371 123.479 12.3301C123.381 12.6165 123.245 12.877 123.069 13.1113C122.893 13.3392 122.685 13.541 122.444 13.7168C122.203 13.8926 121.936 14.0456 121.643 14.1758L123.684 17.0566C123.86 17.291 124.036 17.5156 124.212 17.7305C124.394 17.9453 124.566 18.1374 124.729 18.3066C124.892 18.4759 125.045 18.6191 125.188 18.7363C125.331 18.847 125.452 18.9219 125.549 18.9609V19H122.991C122.991 18.9414 122.949 18.8405 122.864 18.6973C122.786 18.5475 122.691 18.3945 122.581 18.2383C122.477 18.0755 122.369 17.9193 122.258 17.7695C122.154 17.6198 122.076 17.5091 122.024 17.4375L119.964 14.5371ZM128.45 13.9023C128.58 13.9219 128.71 13.9382 128.84 13.9512C128.977 13.9577 129.107 13.9609 129.231 13.9609C130.045 13.9609 130.66 13.7428 131.077 13.3066C131.5 12.8704 131.712 12.2161 131.712 11.3438C131.712 10.6276 131.542 10.0612 131.204 9.64453C130.872 9.22786 130.38 9.01953 129.729 9.01953C129.521 9.01953 129.335 9.0293 129.172 9.04883C129.016 9.06185 128.883 9.07812 128.772 9.09766C128.648 9.1237 128.541 9.14974 128.45 9.17578V13.9023ZM129.944 14.5371C129.814 14.5566 129.684 14.5697 129.553 14.5762C129.43 14.5762 129.303 14.5762 129.172 14.5762C129.068 14.5762 128.954 14.5729 128.831 14.5664C128.707 14.5599 128.58 14.5501 128.45 14.5371V15.0156C128.45 15.5951 128.456 16.1029 128.469 16.5391C128.482 16.9688 128.499 17.3398 128.518 17.6523C128.544 17.9648 128.574 18.2285 128.606 18.4434C128.639 18.6517 128.678 18.8242 128.723 18.9609V19H126.467V18.9609C126.513 18.8242 126.552 18.6484 126.585 18.4336C126.624 18.2188 126.653 17.9551 126.672 17.6426C126.699 17.3236 126.718 16.946 126.731 16.5098C126.744 16.0736 126.751 15.5625 126.751 14.9766V12.5156C126.751 11.9297 126.744 11.4219 126.731 10.9922C126.718 10.556 126.699 10.1816 126.672 9.86914C126.653 9.55013 126.624 9.2832 126.585 9.06836C126.552 8.85352 126.513 8.67773 126.467 8.54102V8.50195C126.572 8.50846 126.682 8.51497 126.799 8.52148C126.897 8.52799 127.005 8.53451 127.122 8.54102C127.245 8.54102 127.369 8.54102 127.493 8.54102C127.701 8.54102 128.01 8.52148 128.421 8.48242C128.831 8.44336 129.312 8.42383 129.866 8.42383C130.426 8.42383 130.934 8.49219 131.389 8.62891C131.852 8.76562 132.245 8.96094 132.571 9.21484C132.903 9.46875 133.157 9.77799 133.333 10.1426C133.515 10.5072 133.606 10.9141 133.606 11.3633C133.606 11.7148 133.557 12.0371 133.46 12.3301C133.362 12.6165 133.225 12.877 133.049 13.1113C132.874 13.3392 132.665 13.541 132.424 13.7168C132.184 13.8926 131.917 14.0456 131.624 14.1758L133.665 17.0566C133.84 17.291 134.016 17.5156 134.192 17.7305C134.374 17.9453 134.547 18.1374 134.71 18.3066C134.872 18.4759 135.025 18.6191 135.169 18.7363C135.312 18.847 135.432 18.9219 135.53 18.9609V19H132.971C132.971 18.9414 132.929 18.8405 132.844 18.6973C132.766 18.5475 132.672 18.3945 132.561 18.2383C132.457 18.0755 132.35 17.9193 132.239 17.7695C132.135 17.6198 132.057 17.5091 132.005 17.4375L129.944 14.5371ZM136.448 8.50195C137.086 8.50195 137.74 8.50195 138.411 8.50195C139.081 8.49544 139.703 8.48893 140.276 8.48242C140.849 8.4694 141.34 8.45638 141.751 8.44336C142.167 8.43034 142.441 8.41081 142.571 8.38477L142.19 9.43945C142.014 9.39388 141.816 9.35156 141.594 9.3125C141.399 9.27995 141.161 9.25065 140.881 9.22461C140.608 9.19206 140.289 9.17578 139.924 9.17578C139.794 9.17578 139.644 9.18229 139.475 9.19531C139.306 9.20182 139.143 9.21159 138.987 9.22461C138.805 9.23763 138.619 9.25065 138.43 9.26367V13.1211C138.958 13.1146 139.433 13.1016 139.856 13.082C140.279 13.0625 140.641 13.0365 140.94 13.0039C141.292 12.9779 141.601 12.9421 141.868 12.8965L141.633 14.0586C141.275 14.013 140.914 13.974 140.549 13.9414C140.237 13.9089 139.892 13.8828 139.514 13.8633C139.137 13.8372 138.775 13.8242 138.43 13.8242V18.2578C139.036 18.2578 139.592 18.235 140.1 18.1895C140.608 18.1374 141.051 18.082 141.428 18.0234C141.871 17.9518 142.271 17.8704 142.63 17.7793L142.405 19.0586C142.307 19.0521 142.148 19.0423 141.926 19.0293C141.712 19.0228 141.484 19.0163 141.243 19.0098C141.008 19.0098 140.787 19.0065 140.579 19C140.37 19 140.227 19 140.149 19H136.448V18.9609C136.493 18.8242 136.533 18.6484 136.565 18.4336C136.604 18.2188 136.633 17.9551 136.653 17.6426C136.679 17.3236 136.699 16.946 136.712 16.5098C136.725 16.0736 136.731 15.5625 136.731 14.9766V12.5156C136.731 11.9297 136.725 11.4219 136.712 10.9922C136.699 10.556 136.679 10.1816 136.653 9.86914C136.633 9.55013 136.604 9.2832 136.565 9.06836C136.533 8.85352 136.493 8.67773 136.448 8.54102V8.50195ZM149.563 10.543H149.368C149.329 10.4323 149.264 10.2923 149.172 10.123C149.088 9.95378 148.971 9.78776 148.821 9.625C148.678 9.46224 148.499 9.32552 148.284 9.21484C148.069 9.09766 147.812 9.03906 147.512 9.03906C147.284 9.03906 147.079 9.07812 146.897 9.15625C146.721 9.22786 146.572 9.32878 146.448 9.45898C146.324 9.58919 146.23 9.74544 146.165 9.92773C146.1 10.1035 146.067 10.2956 146.067 10.5039C146.067 10.8424 146.168 11.1647 146.37 11.4707C146.578 11.7767 146.835 12.0827 147.141 12.3887C147.447 12.6882 147.779 12.9909 148.137 13.2969C148.495 13.6029 148.827 13.9219 149.133 14.2539C149.439 14.5859 149.693 14.9375 149.895 15.3086C150.103 15.6797 150.208 16.0768 150.208 16.5C150.208 16.8125 150.149 17.1348 150.032 17.4668C149.921 17.7988 149.739 18.0983 149.485 18.3652C149.231 18.6322 148.906 18.8503 148.508 19.0195C148.111 19.1953 147.63 19.2832 147.063 19.2832C146.751 19.2832 146.451 19.2572 146.165 19.2051C145.885 19.153 145.624 19.0879 145.383 19.0098C145.149 18.9382 144.937 18.86 144.749 18.7754C144.566 18.6842 144.413 18.5996 144.29 18.5215L144.465 16.6758H144.671C144.736 16.9036 144.83 17.1315 144.954 17.3594C145.084 17.5872 145.24 17.7956 145.422 17.9844C145.611 18.1667 145.829 18.3164 146.077 18.4336C146.331 18.5443 146.62 18.5996 146.946 18.5996C147.174 18.5996 147.389 18.5638 147.59 18.4922C147.792 18.4141 147.965 18.3066 148.108 18.1699C148.258 18.0332 148.375 17.8672 148.46 17.6719C148.544 17.4701 148.587 17.2454 148.587 16.998C148.587 16.7051 148.528 16.4349 148.411 16.1875C148.294 15.9336 148.137 15.6927 147.942 15.4648C147.747 15.2305 147.525 15.0059 147.278 14.791C147.037 14.5762 146.786 14.3581 146.526 14.1367C146.266 13.9154 146.012 13.6908 145.764 13.4629C145.523 13.2285 145.305 12.9779 145.11 12.7109C144.915 12.444 144.758 12.1608 144.641 11.8613C144.524 11.5553 144.465 11.2201 144.465 10.8555C144.465 10.4714 144.547 10.1263 144.71 9.82031C144.872 9.51432 145.087 9.25716 145.354 9.04883C145.621 8.83398 145.927 8.67122 146.272 8.56055C146.617 8.44336 146.975 8.38477 147.346 8.38477C147.62 8.38477 147.874 8.4043 148.108 8.44336C148.349 8.48242 148.564 8.53125 148.753 8.58984C148.948 8.64193 149.117 8.69727 149.26 8.75586C149.404 8.80794 149.521 8.85026 149.612 8.88281L149.563 10.543Z" fill="black"/>
<path d="M153.907 27L151.454 24.5463L149 27L151.454 29.4537L153.907 27ZM0 27L2.45374 29.4537L4.90747 27L2.45374 24.5462L0 27ZM151.454 27L151.454 26.575L2.45374 26.575L2.45374 27L2.45374 27.425L151.454 27.425L151.454 27Z" fill="black"/>
<path d="M12.4293 47V46.9648C12.441 46.9355 12.4498 46.8916 12.4557 46.833C12.4615 46.7744 12.4645 46.7217 12.4645 46.6748C12.4645 46.4932 12.4381 46.2939 12.3854 46.0771C12.3385 45.8545 12.2448 45.5791 12.1041 45.251L11.0406 42.8604C10.7125 42.8486 10.276 42.8428 9.73108 42.8428C9.18616 42.8428 8.59729 42.8428 7.96448 42.8428C7.50159 42.8428 7.05334 42.8428 6.61975 42.8428C6.19202 42.8428 5.8053 42.8486 5.45959 42.8604L4.44885 45.1807C4.36096 45.3975 4.26721 45.6348 4.1676 45.8926C4.06799 46.1504 4.01819 46.4111 4.01819 46.6748C4.01819 46.751 4.02405 46.8154 4.03577 46.8682C4.04749 46.915 4.0592 46.9473 4.07092 46.9648V47H2.27795V46.9648C2.38342 46.8535 2.51526 46.6572 2.67346 46.376C2.83167 46.0889 3.00452 45.7314 3.19202 45.3037L8.22815 34.1328H8.93127L13.7037 44.873C13.8151 45.125 13.9293 45.3711 14.0465 45.6113C14.1696 45.8457 14.2838 46.0566 14.3893 46.2441C14.4948 46.4316 14.5885 46.5898 14.6705 46.7188C14.7526 46.8477 14.8082 46.9297 14.8375 46.9648V47H12.4293ZM6.73401 42.0869C7.07385 42.0869 7.42249 42.0869 7.77991 42.0869C8.13733 42.0811 8.48596 42.0781 8.82581 42.0781C9.17151 42.0723 9.50256 42.0693 9.81897 42.0693C10.1354 42.0635 10.4225 42.0576 10.6803 42.0518L8.21057 36.4707L5.78479 42.0869H6.73401ZM18.775 42.377C18.4938 42.377 18.2535 42.3887 18.0543 42.4121C17.861 42.4297 17.7115 42.4473 17.6061 42.4648V43.3789C17.6061 43.8828 17.6061 44.3047 17.6061 44.6445C17.6119 44.9844 17.6178 45.2686 17.6237 45.4971C17.6354 45.7256 17.6442 45.9102 17.65 46.0508C17.6559 46.1855 17.6647 46.3027 17.6764 46.4023C17.8287 46.4434 17.9899 46.4697 18.1598 46.4814C18.3356 46.4932 18.4733 46.499 18.5729 46.499C19.3815 46.499 19.9674 46.3232 20.3307 45.9717C20.6998 45.6143 20.8844 45.0635 20.8844 44.3193C20.8844 44.0381 20.8405 43.7773 20.7526 43.5371C20.6647 43.2969 20.5328 43.0918 20.3571 42.9219C20.1813 42.752 19.9615 42.6201 19.6979 42.5264C19.4342 42.4268 19.1266 42.377 18.775 42.377ZM17.6061 41.7793C17.7233 41.7969 17.8287 41.8086 17.9225 41.8145C18.0162 41.8145 18.1129 41.8145 18.2125 41.8145C18.8043 41.8145 19.2731 41.6504 19.6188 41.3223C19.9703 40.9941 20.1461 40.5049 20.1461 39.8545C20.1461 39.5908 20.111 39.3477 20.0406 39.125C19.9703 38.9023 19.8678 38.7119 19.733 38.5537C19.6041 38.3955 19.4401 38.2725 19.2408 38.1846C19.0475 38.0967 18.8248 38.0527 18.5729 38.0527C18.403 38.0527 18.2594 38.0615 18.1422 38.0791C18.025 38.0908 17.9254 38.1025 17.8434 38.1143C17.7496 38.1377 17.6705 38.1582 17.6061 38.1758V41.7793ZM15.8219 37.5342C15.9332 37.54 16.0475 37.543 16.1647 37.543C16.2643 37.5488 16.3727 37.5518 16.4899 37.5518C16.6071 37.5518 16.7213 37.5518 16.8326 37.5518C17.0143 37.5518 17.2662 37.54 17.5885 37.5166C17.9108 37.4932 18.3121 37.4814 18.7926 37.4814C19.2203 37.4814 19.6158 37.5342 19.9791 37.6396C20.3483 37.7393 20.6647 37.8857 20.9283 38.0791C21.1979 38.2725 21.4059 38.5098 21.5524 38.791C21.7047 39.0723 21.7809 39.3916 21.7809 39.749C21.7809 40.0537 21.7369 40.3262 21.649 40.5664C21.567 40.8008 21.4469 41.0088 21.2887 41.1904C21.1305 41.3662 20.9401 41.5156 20.7174 41.6387C20.4948 41.7559 20.2487 41.8496 19.9791 41.9199C20.3717 41.9785 20.7291 42.0752 21.0514 42.21C21.3737 42.3447 21.649 42.5146 21.8776 42.7197C22.1061 42.9189 22.2819 43.1562 22.4049 43.4316C22.528 43.7012 22.5895 44.0029 22.5895 44.3369C22.5895 45.2627 22.2584 45.957 21.5963 46.4199C20.9342 46.877 19.9469 47.1055 18.6344 47.1055C18.4938 47.1055 18.318 47.0996 18.1071 47.0879C17.902 47.0762 17.6852 47.0645 17.4567 47.0527C17.234 47.041 17.0172 47.0293 16.8063 47.0176C16.6012 47.0059 16.4283 47 16.2877 47H15.8219V46.9648C15.8629 46.8418 15.8981 46.6836 15.9274 46.4902C15.9625 46.2969 15.9889 46.0596 16.0065 45.7783C16.0299 45.4912 16.0475 45.1514 16.0592 44.7588C16.0709 44.3662 16.0768 43.9062 16.0768 43.3789V41.1641C16.0768 40.6367 16.0709 40.1768 16.0592 39.7842C16.0475 39.3916 16.0299 39.0518 16.0065 38.7646C15.9889 38.4775 15.9625 38.2373 15.9274 38.0439C15.8981 37.8506 15.8629 37.6924 15.8219 37.5693V37.5342ZM23.899 42.2451C23.899 41.5537 24.028 40.9121 24.2858 40.3203C24.5494 39.7285 24.9069 39.2158 25.358 38.7822C25.8092 38.3428 26.3424 38 26.9576 37.7539C27.5729 37.5078 28.2321 37.3848 28.9352 37.3848C29.6266 37.3848 30.277 37.502 30.8864 37.7363C31.5016 37.9648 32.0348 38.293 32.486 38.7207C32.943 39.1484 33.3033 39.667 33.567 40.2764C33.8307 40.8857 33.9625 41.5684 33.9625 42.3242C33.9625 42.9512 33.8512 43.5576 33.6285 44.1436C33.4059 44.7236 33.0807 45.2393 32.653 45.6904C32.2252 46.1357 31.6979 46.4932 31.0709 46.7627C30.444 47.0264 29.7262 47.1582 28.9176 47.1582C28.2321 47.1582 27.5846 47.0439 26.9752 46.8154C26.3658 46.5869 25.8326 46.2617 25.3756 45.8398C24.9186 45.4121 24.5582 44.8965 24.2946 44.293C24.0309 43.6836 23.899 43.001 23.899 42.2451ZM29.1373 46.5342C29.5826 46.5342 29.9928 46.4463 30.3678 46.2705C30.7428 46.0947 31.0651 45.8428 31.3346 45.5146C31.61 45.1865 31.8209 44.7881 31.9674 44.3193C32.1198 43.8447 32.1959 43.3115 32.1959 42.7197C32.1959 42.0459 32.1227 41.4219 31.9762 40.8477C31.8356 40.2734 31.6188 39.7783 31.3258 39.3623C31.0387 38.9404 30.6783 38.6123 30.2448 38.3779C29.8112 38.1377 29.3043 38.0176 28.7242 38.0176C28.2789 38.0176 27.8688 38.1025 27.4938 38.2725C27.1188 38.4424 26.7936 38.6885 26.5182 39.0107C26.2487 39.333 26.0377 39.7285 25.8854 40.1973C25.733 40.666 25.6569 41.1992 25.6569 41.7969C25.6569 42.4648 25.7301 43.0889 25.8766 43.6689C26.0289 44.2432 26.2487 44.7441 26.5358 45.1719C26.8287 45.5938 27.192 45.9277 27.6256 46.1738C28.0592 46.4141 28.5631 46.5342 29.1373 46.5342ZM44.3951 45.9365C44.3951 46.0127 44.3864 46.0771 44.3688 46.1299C44.3571 46.1826 44.3248 46.2266 44.2721 46.2617C43.8561 46.5547 43.3698 46.7891 42.8131 46.9648C42.2623 47.1348 41.6149 47.2197 40.8707 47.2197C40.0328 47.2197 39.2682 47.0996 38.5768 46.8594C37.8912 46.6191 37.3024 46.2852 36.8102 45.8574C36.318 45.4238 35.9342 44.9053 35.6588 44.3018C35.3893 43.6982 35.2545 43.0303 35.2545 42.2979C35.2545 41.6709 35.3776 41.0615 35.6237 40.4697C35.8756 39.8779 36.236 39.3535 36.7047 38.8965C37.1735 38.4395 37.7418 38.0732 38.4098 37.7979C39.0836 37.5225 39.8424 37.3848 40.6862 37.3848C41.1256 37.3848 41.5416 37.4111 41.9342 37.4639C42.3268 37.5107 42.7047 37.5869 43.068 37.6924L43.7272 39.2744L43.6393 39.3359C43.2877 38.9316 42.8629 38.6123 42.3649 38.3779C41.8668 38.1377 41.2955 38.0176 40.651 38.0176C40.1237 38.0176 39.6373 38.1025 39.192 38.2725C38.7526 38.4424 38.3688 38.6914 38.0406 39.0195C37.7184 39.3418 37.4664 39.7402 37.2848 40.2148C37.1031 40.6895 37.0123 41.2285 37.0123 41.832C37.0123 42.5117 37.0973 43.1416 37.2672 43.7217C37.4371 44.3018 37.692 44.8057 38.0319 45.2334C38.3717 45.6553 38.7906 45.9863 39.2887 46.2266C39.7926 46.4668 40.3785 46.5869 41.0465 46.5869C41.6207 46.5869 42.066 46.5137 42.3824 46.3672C42.7047 46.2207 42.8658 46.0537 42.8658 45.8662V45.4004C42.8658 45.0957 42.8629 44.832 42.8571 44.6094C42.8512 44.3867 42.8424 44.1963 42.8307 44.0381C42.819 43.874 42.8014 43.7334 42.778 43.6162C42.7604 43.499 42.7369 43.3906 42.7076 43.291V43.2559H44.5797V43.291C44.5504 43.3789 44.524 43.4844 44.5006 43.6074C44.4772 43.7305 44.4567 43.877 44.4391 44.0469C44.4274 44.2168 44.4156 44.416 44.4039 44.6445C44.3981 44.873 44.3951 45.1367 44.3951 45.4355V45.9365ZM52.235 44.0293C52.0768 44.0293 51.8776 44.0293 51.6373 44.0293C51.403 44.0293 51.1451 44.0293 50.8639 44.0293C50.5826 44.0293 50.2926 44.0293 49.9938 44.0293C49.6949 44.0293 49.4108 44.0322 49.1412 44.0381C48.8717 44.0381 48.6256 44.041 48.403 44.0469C48.1803 44.0469 48.0074 44.0469 47.8844 44.0469L47.5592 44.7324C47.4186 45.0137 47.2985 45.2598 47.1989 45.4707C47.0992 45.6758 47.0172 45.8574 46.9528 46.0156C46.8883 46.1738 46.8414 46.3115 46.8121 46.4287C46.7828 46.54 46.7682 46.6455 46.7682 46.7451C46.7682 46.8096 46.7711 46.8594 46.777 46.8945C46.7828 46.9238 46.7916 46.9473 46.8033 46.9648V47H45.2565V46.9648C45.2975 46.9238 45.3619 46.8359 45.4498 46.7012C45.5377 46.5605 45.6373 46.3906 45.7487 46.1914C45.8658 45.9922 45.9889 45.7666 46.1178 45.5146C46.2526 45.2627 46.3844 45.002 46.5133 44.7324L50.0992 37.332H50.7584L54.274 44.7324C54.4088 45.0137 54.5436 45.2832 54.6783 45.541C54.819 45.7988 54.9479 46.0303 55.0651 46.2354C55.1823 46.4346 55.2848 46.6016 55.3727 46.7363C55.4606 46.8652 55.5192 46.9414 55.5485 46.9648V47H53.2985C53.3102 46.9531 53.316 46.9121 53.316 46.877C53.316 46.8359 53.316 46.792 53.316 46.7451C53.316 46.6162 53.2867 46.4609 53.2281 46.2793C53.1754 46.0977 53.108 45.9131 53.026 45.7256C52.9498 45.5322 52.8678 45.3477 52.7799 45.1719C52.6979 44.9961 52.6305 44.8496 52.5778 44.7324L52.235 44.0293ZM48.2272 43.3438H48.7633C49.0094 43.3438 49.2701 43.3438 49.5455 43.3438C49.8268 43.3379 50.108 43.335 50.3893 43.335C50.6705 43.335 50.943 43.335 51.2067 43.335C51.4703 43.3291 51.7076 43.3262 51.9186 43.3262L50.0992 39.4414L48.2272 43.3438ZM58.4401 38.1758C58.4342 38.6562 58.4283 39.1221 58.4225 39.5732C58.4225 39.7666 58.4196 39.9658 58.4137 40.1709C58.4137 40.3701 58.4108 40.5693 58.4049 40.7686C58.4049 40.9678 58.4049 41.1582 58.4049 41.3398C58.4049 41.5156 58.4049 41.6738 58.4049 41.8145C58.4049 42.1074 58.4049 42.4619 58.4049 42.8779C58.4108 43.2881 58.4166 43.71 58.4225 44.1436C58.4283 44.5771 58.4371 44.9961 58.4489 45.4004C58.4606 45.7988 58.4752 46.1328 58.4928 46.4023C58.5514 46.4141 58.6276 46.4258 58.7213 46.4375C58.8151 46.4434 58.9117 46.4521 59.0114 46.4639C59.1168 46.4697 59.2194 46.4756 59.319 46.4814C59.4186 46.4814 59.5035 46.4814 59.5739 46.4814C59.8961 46.4814 60.2213 46.4609 60.5494 46.4199C60.8834 46.3789 61.2028 46.3027 61.5074 46.1914C61.818 46.0742 62.108 45.916 62.3776 45.7168C62.6471 45.5176 62.8815 45.2627 63.0807 44.9521C63.2858 44.6357 63.444 44.2578 63.5553 43.8184C63.6725 43.373 63.7311 42.8486 63.7311 42.2451C63.7311 40.915 63.4117 39.8896 62.7731 39.1689C62.1403 38.4482 61.194 38.0879 59.9342 38.0879C59.8112 38.0879 59.6793 38.0908 59.5387 38.0967C59.4039 38.1025 59.2692 38.1113 59.1344 38.123C58.9996 38.1289 58.8707 38.1377 58.7477 38.1494C58.6305 38.1611 58.528 38.1699 58.4401 38.1758ZM56.6207 37.5342C56.7614 37.54 56.8932 37.543 57.0162 37.543C57.1217 37.5488 57.2242 37.5518 57.3239 37.5518C57.4235 37.5518 57.4967 37.5518 57.5436 37.5518C57.6256 37.5518 57.7721 37.5488 57.983 37.543C58.194 37.5371 58.4313 37.5312 58.6949 37.5254C58.9645 37.5137 59.2457 37.5049 59.5387 37.499C59.8375 37.4873 60.1129 37.4814 60.3649 37.4814C61.0504 37.4814 61.7037 37.5605 62.3248 37.7188C62.9459 37.877 63.4908 38.1377 63.9596 38.501C64.4342 38.8584 64.8092 39.3301 65.0846 39.916C65.36 40.4961 65.4977 41.2139 65.4977 42.0693C65.4977 42.9893 65.3395 43.7686 65.0231 44.4072C64.7067 45.0459 64.2789 45.5674 63.7399 45.9717C63.2008 46.3701 62.5739 46.6602 61.859 46.8418C61.15 47.0176 60.4 47.1055 59.609 47.1055C59.4215 47.1055 59.1871 47.0996 58.9059 47.0879C58.6246 47.0762 58.3375 47.0645 58.0446 47.0527C57.7516 47.041 57.4733 47.0293 57.2096 47.0176C56.9518 47.0059 56.7555 47 56.6207 47V46.9648C56.6617 46.8418 56.6969 46.6836 56.7262 46.4902C56.7614 46.2969 56.7877 46.0596 56.8053 45.7783C56.8287 45.4912 56.8463 45.1514 56.858 44.7588C56.8698 44.3662 56.8756 43.9062 56.8756 43.3789V41.1641C56.8756 40.6367 56.8698 40.1768 56.858 39.7842C56.8463 39.3916 56.8287 39.0518 56.8053 38.7646C56.7877 38.4775 56.7614 38.2373 56.7262 38.0439C56.6969 37.8506 56.6617 37.6924 56.6207 37.5693V37.5342ZM66.86 42.2451C66.86 41.5537 66.9889 40.9121 67.2467 40.3203C67.5104 39.7285 67.8678 39.2158 68.319 38.7822C68.7701 38.3428 69.3033 38 69.9186 37.7539C70.5338 37.5078 71.193 37.3848 71.8961 37.3848C72.5875 37.3848 73.2379 37.502 73.8473 37.7363C74.4625 37.9648 74.9957 38.293 75.4469 38.7207C75.9039 39.1484 76.2643 39.667 76.528 40.2764C76.7916 40.8857 76.9235 41.5684 76.9235 42.3242C76.9235 42.9512 76.8121 43.5576 76.5895 44.1436C76.3668 44.7236 76.0416 45.2393 75.6139 45.6904C75.1862 46.1357 74.6588 46.4932 74.0319 46.7627C73.4049 47.0264 72.6871 47.1582 71.8785 47.1582C71.193 47.1582 70.5455 47.0439 69.9362 46.8154C69.3268 46.5869 68.7936 46.2617 68.3365 45.8398C67.8795 45.4121 67.5192 44.8965 67.2555 44.293C66.9918 43.6836 66.86 43.001 66.86 42.2451ZM72.0983 46.5342C72.5436 46.5342 72.9537 46.4463 73.3287 46.2705C73.7037 46.0947 74.026 45.8428 74.2955 45.5146C74.5709 45.1865 74.7819 44.7881 74.9283 44.3193C75.0807 43.8447 75.1569 43.3115 75.1569 42.7197C75.1569 42.0459 75.0836 41.4219 74.9371 40.8477C74.7965 40.2734 74.5797 39.7783 74.2867 39.3623C73.9996 38.9404 73.6393 38.6123 73.2057 38.3779C72.7721 38.1377 72.2653 38.0176 71.6852 38.0176C71.2399 38.0176 70.8297 38.1025 70.4547 38.2725C70.0797 38.4424 69.7545 38.6885 69.4791 39.0107C69.2096 39.333 68.9987 39.7285 68.8463 40.1973C68.694 40.666 68.6178 41.1992 68.6178 41.7969C68.6178 42.4648 68.691 43.0889 68.8375 43.6689C68.9899 44.2432 69.2096 44.7441 69.4967 45.1719C69.7897 45.5938 70.153 45.9277 70.5865 46.1738C71.0201 46.4141 71.524 46.5342 72.0983 46.5342ZM82.9967 39.3887H82.8209C82.7858 39.2891 82.7272 39.1631 82.6451 39.0107C82.569 38.8584 82.4635 38.709 82.3287 38.5625C82.1998 38.416 82.0387 38.293 81.8453 38.1934C81.652 38.0879 81.4205 38.0352 81.151 38.0352C80.9459 38.0352 80.7614 38.0703 80.5973 38.1406C80.4391 38.2051 80.3043 38.2959 80.193 38.4131C80.0817 38.5303 79.9967 38.6709 79.9381 38.835C79.8795 38.9932 79.8502 39.166 79.8502 39.3535C79.8502 39.6582 79.941 39.9482 80.1227 40.2236C80.3102 40.499 80.5416 40.7744 80.817 41.0498C81.0924 41.3193 81.3912 41.5918 81.7135 41.8672C82.0358 42.1426 82.3346 42.4297 82.61 42.7285C82.8854 43.0273 83.1139 43.3438 83.2955 43.6777C83.483 44.0117 83.5768 44.3691 83.5768 44.75C83.5768 45.0312 83.524 45.3213 83.4186 45.6201C83.319 45.9189 83.1549 46.1885 82.9264 46.4287C82.6979 46.6689 82.4049 46.8652 82.0475 47.0176C81.6901 47.1758 81.2565 47.2549 80.7467 47.2549C80.4655 47.2549 80.1959 47.2314 79.9381 47.1846C79.6862 47.1377 79.4518 47.0791 79.235 47.0088C79.024 46.9443 78.8336 46.874 78.6637 46.7979C78.4996 46.7158 78.3619 46.6396 78.2506 46.5693L78.4088 44.9082H78.5934C78.652 45.1133 78.7369 45.3184 78.8483 45.5234C78.9655 45.7285 79.1061 45.916 79.2701 46.0859C79.4401 46.25 79.6364 46.3848 79.859 46.4902C80.0875 46.5898 80.3483 46.6396 80.6412 46.6396C80.8463 46.6396 81.0397 46.6074 81.2213 46.543C81.403 46.4727 81.5582 46.376 81.6871 46.2529C81.8219 46.1299 81.9274 45.9805 82.0035 45.8047C82.0797 45.623 82.1178 45.4209 82.1178 45.1982C82.1178 44.9346 82.0651 44.6914 81.9596 44.4688C81.8541 44.2402 81.7135 44.0234 81.5377 43.8184C81.3619 43.6074 81.1627 43.4053 80.9401 43.2119C80.7233 43.0186 80.4977 42.8223 80.2633 42.623C80.0289 42.4238 79.8004 42.2217 79.5778 42.0166C79.361 41.8057 79.1647 41.5801 78.9889 41.3398C78.8131 41.0996 78.6725 40.8447 78.567 40.5752C78.4615 40.2998 78.4088 39.998 78.4088 39.6699C78.4088 39.3242 78.4821 39.0137 78.6285 38.7383C78.775 38.4629 78.9684 38.2314 79.2086 38.0439C79.4489 37.8506 79.7242 37.7041 80.0348 37.6045C80.3453 37.499 80.6676 37.4463 81.0016 37.4463C81.2477 37.4463 81.4762 37.4639 81.6871 37.499C81.9039 37.5342 82.0973 37.5781 82.2672 37.6309C82.443 37.6777 82.5953 37.7275 82.7242 37.7803C82.8531 37.8271 82.9586 37.8652 83.0406 37.8945L82.9967 39.3887Z" fill="black"/>
</svg>
