<svg width="188" height="52" viewBox="0 0 188 52" fill="none" xmlns="http://www.w3.org/2000/svg">
<path d="M5.90039 18.1406H10.0801C10.8418 18.1406 11.5449 18.1081 12.1895 18.043C12.8405 17.9779 13.4069 17.903 13.8887 17.8184C14.4486 17.7272 14.9596 17.6198 15.4219 17.4961L14.9434 19.0781C14.8652 19.0716 14.748 19.0651 14.5918 19.0586C14.4355 19.0521 14.2598 19.0456 14.0645 19.0391C13.8757 19.0326 13.6738 19.026 13.459 19.0195C13.2507 19.0195 13.0521 19.0163 12.8633 19.0098C12.6745 19.0098 12.5052 19.0065 12.3555 19C12.2122 19 12.1081 19 12.043 19H3.22461V18.7559L12.7363 5.85547H9.06445C8.29622 5.85547 7.58659 5.89128 6.93555 5.96289C6.29102 6.02799 5.72786 6.09961 5.24609 6.17773C4.6862 6.27539 4.17839 6.38281 3.72266 6.5L4.39648 4.91797C4.47461 4.92448 4.5918 4.93099 4.74805 4.9375C4.91081 4.94401 5.08659 4.95052 5.27539 4.95703C5.4707 4.96354 5.67253 4.97005 5.88086 4.97656C6.08919 4.97656 6.28776 4.97982 6.47656 4.98633C6.66536 4.98633 6.83138 4.98958 6.97461 4.99609C7.12435 4.99609 7.23177 4.99609 7.29688 4.99609H15.4219V5.25977L5.90039 18.1406ZM17.1309 8.50195C17.7689 8.50195 18.4232 8.50195 19.0938 8.50195C19.7643 8.49544 20.3861 8.48893 20.959 8.48242C21.5319 8.4694 22.0234 8.45638 22.4336 8.44336C22.8503 8.43034 23.1237 8.41081 23.2539 8.38477L22.873 9.43945C22.6973 9.39388 22.4987 9.35156 22.2773 9.3125C22.082 9.27995 21.8444 9.25065 21.5645 9.22461C21.291 9.19206 20.972 9.17578 20.6074 9.17578C20.4772 9.17578 20.3275 9.18229 20.1582 9.19531C19.9889 9.20182 19.8262 9.21159 19.6699 9.22461C19.4876 9.23763 19.3021 9.25065 19.1133 9.26367V13.1211C19.6406 13.1146 20.1159 13.1016 20.5391 13.082C20.9622 13.0625 21.3236 13.0365 21.623 13.0039C21.9746 12.9779 22.2839 12.9421 22.5508 12.8965L22.3164 14.0586C21.9583 14.013 21.597 13.974 21.2324 13.9414C20.9199 13.9089 20.5749 13.8828 20.1973 13.8633C19.8197 13.8372 19.4583 13.8242 19.1133 13.8242V18.2578C19.7188 18.2578 20.2754 18.235 20.7832 18.1895C21.291 18.1374 21.7337 18.082 22.1113 18.0234C22.554 17.9518 22.9544 17.8704 23.3125 17.7793L23.0879 19.0586C22.9902 19.0521 22.8307 19.0423 22.6094 19.0293C22.3945 19.0228 22.1667 19.0163 21.9258 19.0098C21.6914 19.0098 21.4701 19.0065 21.2617 19C21.0534 19 20.9102 19 20.832 19H17.1309V18.9609C17.1764 18.8242 17.2155 18.6484 17.248 18.4336C17.2871 18.2188 17.3164 17.9551 17.3359 17.6426C17.362 17.3236 17.3815 16.946 17.3945 16.5098C17.4076 16.0736 17.4141 15.5625 17.4141 14.9766V12.5156C17.4141 11.9297 17.4076 11.4219 17.3945 10.9922C17.3815 10.556 17.362 10.1816 17.3359 9.86914C17.3164 9.55013 17.2871 9.2832 17.248 9.06836C17.2155 8.85352 17.1764 8.67773 17.1309 8.54102V8.50195ZM27.4727 14.2441C27.6029 14.2637 27.7298 14.2832 27.8535 14.3027C27.9837 14.3158 28.1107 14.3223 28.2344 14.3223C28.6055 14.3223 28.944 14.2669 29.25 14.1562C29.5625 14.0391 29.8262 13.8665 30.041 13.6387C30.2624 13.4108 30.4316 13.1211 30.5488 12.7695C30.6725 12.418 30.7344 12.0078 30.7344 11.5391C30.7344 11.1615 30.6921 10.8197 30.6074 10.5137C30.5228 10.2077 30.3958 9.94727 30.2266 9.73242C30.0638 9.51107 29.8587 9.3418 29.6113 9.22461C29.3639 9.10091 29.0775 9.03906 28.752 9.03906C28.5436 9.03906 28.3581 9.04883 28.1953 9.06836C28.0391 9.08138 27.9056 9.09766 27.7949 9.11719C27.6712 9.14323 27.5638 9.16927 27.4727 9.19531V14.2441ZM27.4727 14.918C27.4727 15.5039 27.4792 16.0182 27.4922 16.4609C27.5052 16.9036 27.5215 17.2878 27.541 17.6133C27.5671 17.9323 27.5964 18.2025 27.6289 18.4238C27.6615 18.6452 27.7005 18.8242 27.7461 18.9609V19H25.4902V18.9609C25.5358 18.8242 25.5749 18.6484 25.6074 18.4336C25.6465 18.2188 25.6758 17.9551 25.6953 17.6426C25.7214 17.3236 25.7409 16.946 25.7539 16.5098C25.7669 16.0736 25.7734 15.5625 25.7734 14.9766V12.5156C25.7734 11.9297 25.7669 11.4219 25.7539 10.9922C25.7409 10.556 25.7214 10.1816 25.6953 9.86914C25.6758 9.55013 25.6465 9.2832 25.6074 9.06836C25.5749 8.85352 25.5358 8.67773 25.4902 8.54102V8.50195C25.6335 8.50846 25.7767 8.51497 25.9199 8.52148C26.0436 8.52799 26.1738 8.53451 26.3105 8.54102C26.4538 8.54102 26.5872 8.54102 26.7109 8.54102C26.9193 8.54102 27.2253 8.52148 27.6289 8.48242C28.0391 8.44336 28.5208 8.42383 29.0742 8.42383C29.582 8.42383 30.054 8.49219 30.4902 8.62891C30.9264 8.75911 31.3008 8.95443 31.6133 9.21484C31.9323 9.47526 32.1797 9.79427 32.3555 10.1719C32.5378 10.543 32.6289 10.9727 32.6289 11.4609C32.6289 12.0339 32.5182 12.5417 32.2969 12.9844C32.0755 13.4206 31.7728 13.7884 31.3887 14.0879C31.0111 14.3809 30.5651 14.6022 30.0508 14.752C29.5365 14.9017 28.9896 14.9766 28.4102 14.9766C28.1042 14.9766 27.7917 14.957 27.4727 14.918ZM34.3184 8.50195C34.9564 8.50195 35.6107 8.50195 36.2812 8.50195C36.9518 8.49544 37.5736 8.48893 38.1465 8.48242C38.7194 8.4694 39.2109 8.45638 39.6211 8.44336C40.0378 8.43034 40.3112 8.41081 40.4414 8.38477L40.0605 9.43945C39.8848 9.39388 39.6862 9.35156 39.4648 9.3125C39.2695 9.27995 39.0319 9.25065 38.752 9.22461C38.4785 9.19206 38.1595 9.17578 37.7949 9.17578C37.6647 9.17578 37.515 9.18229 37.3457 9.19531C37.1764 9.20182 37.0137 9.21159 36.8574 9.22461C36.6751 9.23763 36.4896 9.25065 36.3008 9.26367V13.1211C36.8281 13.1146 37.3034 13.1016 37.7266 13.082C38.1497 13.0625 38.5111 13.0365 38.8105 13.0039C39.1621 12.9779 39.4714 12.9421 39.7383 12.8965L39.5039 14.0586C39.1458 14.013 38.7845 13.974 38.4199 13.9414C38.1074 13.9089 37.7624 13.8828 37.3848 13.8633C37.0072 13.8372 36.6458 13.8242 36.3008 13.8242V18.2578C36.9062 18.2578 37.4629 18.235 37.9707 18.1895C38.4785 18.1374 38.9212 18.082 39.2988 18.0234C39.7415 17.9518 40.1419 17.8704 40.5 17.7793L40.2754 19.0586C40.1777 19.0521 40.0182 19.0423 39.7969 19.0293C39.582 19.0228 39.3542 19.0163 39.1133 19.0098C38.8789 19.0098 38.6576 19.0065 38.4492 19C38.2409 19 38.0977 19 38.0195 19H34.3184V18.9609C34.3639 18.8242 34.403 18.6484 34.4355 18.4336C34.4746 18.2188 34.5039 17.9551 34.5234 17.6426C34.5495 17.3236 34.569 16.946 34.582 16.5098C34.5951 16.0736 34.6016 15.5625 34.6016 14.9766V12.5156C34.6016 11.9297 34.5951 11.4219 34.582 10.9922C34.569 10.556 34.5495 10.1816 34.5234 9.86914C34.5039 9.55013 34.4746 9.2832 34.4355 9.06836C34.403 8.85352 34.3639 8.67773 34.3184 8.54102V8.50195ZM44.6992 9.19531C44.6927 9.72917 44.6862 10.2467 44.6797 10.748C44.6797 10.9629 44.6764 11.1842 44.6699 11.4121C44.6699 11.6335 44.6667 11.8548 44.6602 12.0762C44.6602 12.2975 44.6602 12.5091 44.6602 12.7109C44.6602 12.9062 44.6602 13.082 44.6602 13.2383C44.6602 13.5638 44.6602 13.9577 44.6602 14.4199C44.6667 14.8757 44.6732 15.3444 44.6797 15.8262C44.6862 16.3079 44.696 16.7734 44.709 17.2227C44.722 17.6654 44.7383 18.0365 44.7578 18.3359C44.8229 18.349 44.9076 18.362 45.0117 18.375C45.1159 18.3815 45.2233 18.3913 45.334 18.4043C45.4512 18.4108 45.5651 18.4173 45.6758 18.4238C45.7865 18.4238 45.8809 18.4238 45.959 18.4238C46.3171 18.4238 46.6784 18.401 47.043 18.3555C47.4141 18.3099 47.7689 18.2253 48.1074 18.1016C48.4525 17.9714 48.7747 17.7956 49.0742 17.5742C49.3737 17.3529 49.6341 17.0697 49.8555 16.7246C50.0833 16.373 50.2591 15.9531 50.3828 15.4648C50.513 14.9701 50.5781 14.3874 50.5781 13.7168C50.5781 12.2389 50.2233 11.0996 49.5137 10.2988C48.8105 9.49805 47.7591 9.09766 46.3594 9.09766C46.2227 9.09766 46.0762 9.10091 45.9199 9.10742C45.7702 9.11393 45.6204 9.1237 45.4707 9.13672C45.321 9.14323 45.1777 9.15299 45.041 9.16602C44.9108 9.17904 44.7969 9.1888 44.6992 9.19531ZM42.6777 8.48242C42.834 8.48893 42.9805 8.49219 43.1172 8.49219C43.2344 8.4987 43.3483 8.50195 43.459 8.50195C43.5697 8.50195 43.651 8.50195 43.7031 8.50195C43.7943 8.50195 43.957 8.4987 44.1914 8.49219C44.4258 8.48568 44.6895 8.47917 44.9824 8.47266C45.2819 8.45964 45.5944 8.44987 45.9199 8.44336C46.252 8.43034 46.5579 8.42383 46.8379 8.42383C47.5996 8.42383 48.3255 8.51172 49.0156 8.6875C49.7057 8.86328 50.3112 9.15299 50.832 9.55664C51.3594 9.95378 51.776 10.4779 52.082 11.1289C52.388 11.7734 52.541 12.571 52.541 13.5215C52.541 14.5436 52.3652 15.4095 52.0137 16.1191C51.6621 16.8288 51.1868 17.4082 50.5879 17.8574C49.9889 18.3001 49.2923 18.6224 48.498 18.8242C47.7103 19.0195 46.877 19.1172 45.998 19.1172C45.7897 19.1172 45.5293 19.1107 45.2168 19.0977C44.9043 19.0846 44.5853 19.0716 44.2598 19.0586C43.9342 19.0456 43.625 19.0326 43.332 19.0195C43.0456 19.0065 42.8275 19 42.6777 19V18.9609C42.7233 18.8242 42.7624 18.6484 42.7949 18.4336C42.834 18.2188 42.8633 17.9551 42.8828 17.6426C42.9089 17.3236 42.9284 16.946 42.9414 16.5098C42.9544 16.0736 42.9609 15.5625 42.9609 14.9766V12.5156C42.9609 11.9297 42.9544 11.4186 42.9414 10.9824C42.9284 10.5462 42.9089 10.1686 42.8828 9.84961C42.8633 9.5306 42.834 9.26367 42.7949 9.04883C42.7624 8.83398 42.7233 8.6582 42.6777 8.52148V8.48242ZM60.9883 15.6992C60.8125 15.6992 60.5911 15.6992 60.3242 15.6992C60.0638 15.6992 59.7773 15.6992 59.4648 15.6992C59.1523 15.6992 58.8301 15.6992 58.498 15.6992C58.166 15.6992 57.8503 15.7025 57.5508 15.709C57.2513 15.709 56.9779 15.7122 56.7305 15.7188C56.4831 15.7188 56.291 15.7188 56.1543 15.7188L55.793 16.4805C55.6367 16.793 55.5033 17.0664 55.3926 17.3008C55.2819 17.5286 55.1908 17.7305 55.1191 17.9062C55.0475 18.082 54.9954 18.235 54.9629 18.3652C54.9303 18.4889 54.9141 18.6061 54.9141 18.7168C54.9141 18.7884 54.9173 18.8438 54.9238 18.8828C54.9303 18.9154 54.9401 18.9414 54.9531 18.9609V19H53.2344V18.9609C53.2799 18.9154 53.3516 18.8177 53.4492 18.668C53.5469 18.5117 53.6576 18.3229 53.7812 18.1016C53.9115 17.8802 54.0482 17.6296 54.1914 17.3496C54.3411 17.0697 54.4876 16.7799 54.6309 16.4805L58.6152 8.25781H59.3477L63.2539 16.4805C63.4036 16.793 63.5534 17.0924 63.7031 17.3789C63.8594 17.6654 64.0026 17.9225 64.1328 18.1504C64.263 18.3717 64.377 18.5573 64.4746 18.707C64.5723 18.8503 64.6374 18.9349 64.6699 18.9609V19H62.1699C62.1829 18.9479 62.1895 18.9023 62.1895 18.8633C62.1895 18.8177 62.1895 18.7689 62.1895 18.7168C62.1895 18.5736 62.1569 18.401 62.0918 18.1992C62.0332 17.9974 61.9583 17.7923 61.8672 17.584C61.7826 17.3691 61.6914 17.1641 61.5938 16.9688C61.5026 16.7734 61.4277 16.6107 61.3691 16.4805L60.9883 15.6992ZM56.5352 14.9375H57.1309C57.4043 14.9375 57.694 14.9375 58 14.9375C58.3125 14.931 58.625 14.9277 58.9375 14.9277C59.25 14.9277 59.5527 14.9277 59.8457 14.9277C60.1387 14.9212 60.4023 14.918 60.6367 14.918L58.6152 10.6016L56.5352 14.9375ZM83.1172 13.7559C82.8763 15.0514 82.362 16.1452 81.5742 17.0371C82.2383 17.7012 82.9186 18.3164 83.6152 18.8828C84.3118 19.4427 84.9954 19.931 85.666 20.3477C86.3431 20.7643 86.9941 21.0898 87.6191 21.3242C88.2441 21.5586 88.8171 21.6758 89.3379 21.6758C89.5462 21.6758 89.7546 21.6562 89.9629 21.6172V21.8418C89.8848 21.8743 89.7806 21.9199 89.6504 21.9785C89.5267 22.0371 89.3704 22.0924 89.1816 22.1445C88.9993 22.1966 88.7812 22.2422 88.5273 22.2812C88.2799 22.3203 87.9967 22.3398 87.6777 22.3398C87.1699 22.3398 86.6198 22.2324 86.0273 22.0176C85.4414 21.8092 84.8327 21.5163 84.2012 21.1387C83.5697 20.7676 82.9284 20.3249 82.2773 19.8105C81.6328 19.2962 81.0013 18.7331 80.3828 18.1211C79.8164 18.5052 79.1914 18.8014 78.5078 19.0098C77.8307 19.2181 77.0885 19.3223 76.2812 19.3223C75.5521 19.3223 74.8945 19.2311 74.3086 19.0488C73.7292 18.8665 73.2376 18.6061 72.834 18.2676C72.4303 17.929 72.1178 17.5189 71.8965 17.0371C71.6816 16.5553 71.5742 16.015 71.5742 15.416C71.5742 14.8431 71.6816 14.3353 71.8965 13.8926C72.1113 13.4434 72.3913 13.0397 72.7363 12.6816C73.0879 12.3236 73.4883 11.998 73.9375 11.7051C74.3867 11.4121 74.8457 11.1289 75.3145 10.8555C75.1257 10.3672 74.9792 9.89193 74.875 9.42969C74.7708 8.96745 74.7188 8.52474 74.7188 8.10156C74.7188 7.58724 74.8001 7.125 74.9629 6.71484C75.1322 6.29818 75.36 5.94661 75.6465 5.66016C75.9329 5.3737 76.2682 5.15234 76.6523 4.99609C77.043 4.83984 77.4596 4.76172 77.9023 4.76172C78.2279 4.76172 78.5339 4.80729 78.8203 4.89844C79.1068 4.98958 79.3542 5.1263 79.5625 5.30859C79.7773 5.48438 79.9466 5.70573 80.0703 5.97266C80.194 6.23958 80.2559 6.54883 80.2559 6.90039C80.2559 7.3431 80.1615 7.74023 79.9727 8.0918C79.7904 8.44336 79.5462 8.76562 79.2402 9.05859C78.9408 9.35156 78.5957 9.625 78.2051 9.87891C77.8145 10.1328 77.4108 10.3802 76.9941 10.6211C77.2025 11.1094 77.4499 11.6042 77.7363 12.1055C78.0293 12.6068 78.3483 13.1081 78.6934 13.6094C79.0384 14.1042 79.4095 14.5924 79.8066 15.0742C80.2038 15.556 80.6139 16.0247 81.0371 16.4805C81.3496 16.0573 81.5938 15.5755 81.7695 15.0352C81.9518 14.4948 82.043 13.9023 82.043 13.2578C82.043 12.7109 82.0104 12.2552 81.9453 11.8906C81.8867 11.5195 81.8249 11.2038 81.7598 10.9434V10.9043H83.5176V10.9434C83.472 11.0996 83.4362 11.2754 83.4102 11.4707C83.3906 11.6595 83.3678 11.8711 83.3418 12.1055C83.3158 12.3333 83.2865 12.5872 83.2539 12.8672C83.2214 13.1406 83.1758 13.4368 83.1172 13.7559ZM77.0137 18.4434C77.5475 18.4434 78.0553 18.3717 78.5371 18.2285C79.0254 18.0853 79.4714 17.877 79.875 17.6035C79.4323 17.1348 79.0026 16.653 78.5859 16.1582C78.1693 15.6569 77.7786 15.1491 77.4141 14.6348C77.0495 14.1139 76.7109 13.5931 76.3984 13.0723C76.0924 12.5449 75.8255 12.0273 75.5977 11.5195C75.2917 11.7279 75.0052 11.946 74.7383 12.1738C74.4779 12.4017 74.25 12.6523 74.0547 12.9258C73.8594 13.1992 73.7031 13.4987 73.5859 13.8242C73.4753 14.1432 73.4199 14.4948 73.4199 14.8789C73.4199 15.3867 73.5078 15.8587 73.6836 16.2949C73.8659 16.7311 74.1165 17.1087 74.4355 17.4277C74.7546 17.7467 75.1322 17.9974 75.5684 18.1797C76.0111 18.3555 76.4928 18.4434 77.0137 18.4434ZM76.2812 7.58398C76.2812 7.96159 76.3236 8.35221 76.4082 8.75586C76.4928 9.15299 76.61 9.56641 76.7598 9.99609C77.0788 9.79427 77.375 9.58594 77.6484 9.37109C77.9284 9.15625 78.1693 8.92513 78.3711 8.67773C78.5794 8.42383 78.7422 8.15365 78.8594 7.86719C78.9766 7.58073 79.0352 7.26497 79.0352 6.91992C79.0352 6.72461 79.0091 6.54232 78.957 6.37305C78.9115 6.19727 78.8398 6.04427 78.7422 5.91406C78.6445 5.77734 78.5176 5.67318 78.3613 5.60156C78.2116 5.52344 78.0358 5.48438 77.834 5.48438C77.3132 5.48438 76.9225 5.66992 76.6621 6.04102C76.4082 6.41211 76.2812 6.92643 76.2812 7.58398ZM103.049 19V18.9609C103.062 18.9284 103.072 18.8796 103.078 18.8145C103.085 18.7493 103.088 18.6908 103.088 18.6387C103.088 18.4368 103.059 18.2155 103 17.9746C102.948 17.7272 102.844 17.4212 102.688 17.0566L101.506 14.4004C101.141 14.3874 100.656 14.3809 100.051 14.3809C99.4453 14.3809 98.791 14.3809 98.0879 14.3809C97.5736 14.3809 97.0755 14.3809 96.5938 14.3809C96.1185 14.3809 95.6888 14.3874 95.3047 14.4004L94.1816 16.9785C94.084 17.2194 93.9798 17.4831 93.8691 17.7695C93.7585 18.056 93.7031 18.3457 93.7031 18.6387C93.7031 18.7233 93.7096 18.7949 93.7227 18.8535C93.7357 18.9056 93.7487 18.9414 93.7617 18.9609V19H91.7695V18.9609C91.8867 18.8372 92.0332 18.6191 92.209 18.3066C92.3848 17.9876 92.5768 17.5905 92.7852 17.1152L98.3809 4.70312H99.1621L104.465 16.6367C104.589 16.9167 104.715 17.1901 104.846 17.457C104.982 17.7174 105.109 17.9518 105.227 18.1602C105.344 18.3685 105.448 18.5443 105.539 18.6875C105.63 18.8307 105.692 18.9219 105.725 18.9609V19H103.049ZM96.7207 13.541C97.0983 13.541 97.4857 13.541 97.8828 13.541C98.2799 13.5345 98.6673 13.5312 99.0449 13.5312C99.429 13.5247 99.7969 13.5215 100.148 13.5215C100.5 13.515 100.819 13.5085 101.105 13.502L98.3613 7.30078L95.666 13.541H96.7207ZM111.672 10.543H111.477C111.438 10.4323 111.372 10.2923 111.281 10.123C111.197 9.95378 111.079 9.78776 110.93 9.625C110.786 9.46224 110.607 9.32552 110.393 9.21484C110.178 9.09766 109.921 9.03906 109.621 9.03906C109.393 9.03906 109.188 9.07812 109.006 9.15625C108.83 9.22786 108.68 9.32878 108.557 9.45898C108.433 9.58919 108.339 9.74544 108.273 9.92773C108.208 10.1035 108.176 10.2956 108.176 10.5039C108.176 10.8424 108.277 11.1647 108.479 11.4707C108.687 11.7767 108.944 12.0827 109.25 12.3887C109.556 12.6882 109.888 12.9909 110.246 13.2969C110.604 13.6029 110.936 13.9219 111.242 14.2539C111.548 14.5859 111.802 14.9375 112.004 15.3086C112.212 15.6797 112.316 16.0768 112.316 16.5C112.316 16.8125 112.258 17.1348 112.141 17.4668C112.03 17.7988 111.848 18.0983 111.594 18.3652C111.34 18.6322 111.014 18.8503 110.617 19.0195C110.22 19.1953 109.738 19.2832 109.172 19.2832C108.859 19.2832 108.56 19.2572 108.273 19.2051C107.993 19.153 107.733 19.0879 107.492 19.0098C107.258 18.9382 107.046 18.86 106.857 18.7754C106.675 18.6842 106.522 18.5996 106.398 18.5215L106.574 16.6758H106.779C106.844 16.9036 106.939 17.1315 107.062 17.3594C107.193 17.5872 107.349 17.7956 107.531 17.9844C107.72 18.1667 107.938 18.3164 108.186 18.4336C108.439 18.5443 108.729 18.5996 109.055 18.5996C109.283 18.5996 109.497 18.5638 109.699 18.4922C109.901 18.4141 110.074 18.3066 110.217 18.1699C110.367 18.0332 110.484 17.8672 110.568 17.6719C110.653 17.4701 110.695 17.2454 110.695 16.998C110.695 16.7051 110.637 16.4349 110.52 16.1875C110.402 15.9336 110.246 15.6927 110.051 15.4648C109.855 15.2305 109.634 15.0059 109.387 14.791C109.146 14.5762 108.895 14.3581 108.635 14.1367C108.374 13.9154 108.12 13.6908 107.873 13.4629C107.632 13.2285 107.414 12.9779 107.219 12.7109C107.023 12.444 106.867 12.1608 106.75 11.8613C106.633 11.5553 106.574 11.2201 106.574 10.8555C106.574 10.4714 106.656 10.1263 106.818 9.82031C106.981 9.51432 107.196 9.25716 107.463 9.04883C107.73 8.83398 108.036 8.67122 108.381 8.56055C108.726 8.44336 109.084 8.38477 109.455 8.38477C109.729 8.38477 109.982 8.4043 110.217 8.44336C110.458 8.48242 110.673 8.53125 110.861 8.58984C111.057 8.64193 111.226 8.69727 111.369 8.75586C111.512 8.80794 111.63 8.85026 111.721 8.88281L111.672 10.543ZM113.801 13.7168C113.801 12.9486 113.944 12.2357 114.23 11.5781C114.523 10.9206 114.921 10.3509 115.422 9.86914C115.923 9.38086 116.516 9 117.199 8.72656C117.883 8.45312 118.615 8.31641 119.396 8.31641C120.165 8.31641 120.887 8.44661 121.564 8.70703C122.248 8.96094 122.84 9.32552 123.342 9.80078C123.85 10.276 124.25 10.8522 124.543 11.5293C124.836 12.2064 124.982 12.9648 124.982 13.8047C124.982 14.5013 124.859 15.1751 124.611 15.8262C124.364 16.4707 124.003 17.0436 123.527 17.5449C123.052 18.0397 122.466 18.4368 121.77 18.7363C121.073 19.0293 120.275 19.1758 119.377 19.1758C118.615 19.1758 117.896 19.0488 117.219 18.7949C116.542 18.541 115.949 18.1797 115.441 17.7109C114.934 17.2357 114.533 16.6628 114.24 15.9922C113.947 15.3151 113.801 14.5566 113.801 13.7168ZM119.621 18.4824C120.116 18.4824 120.572 18.3848 120.988 18.1895C121.405 17.9941 121.763 17.7142 122.062 17.3496C122.368 16.985 122.603 16.5423 122.766 16.0215C122.935 15.4941 123.02 14.9017 123.02 14.2441C123.02 13.4954 122.938 12.8021 122.775 12.1641C122.619 11.526 122.378 10.9759 122.053 10.5137C121.734 10.0449 121.333 9.68034 120.852 9.41992C120.37 9.15299 119.807 9.01953 119.162 9.01953C118.667 9.01953 118.212 9.11393 117.795 9.30273C117.378 9.49154 117.017 9.76497 116.711 10.123C116.411 10.4811 116.177 10.9206 116.008 11.4414C115.839 11.9622 115.754 12.5547 115.754 13.2188C115.754 13.9609 115.835 14.6543 115.998 15.2988C116.167 15.9368 116.411 16.4935 116.73 16.9688C117.056 17.4375 117.46 17.8086 117.941 18.082C118.423 18.349 118.983 18.4824 119.621 18.4824ZM135.793 16.8223L135.031 18.6387C134.842 18.7233 134.628 18.8014 134.387 18.873C134.152 18.9382 133.908 18.9935 133.654 19.0391C133.4 19.0846 133.14 19.1172 132.873 19.1367C132.613 19.1628 132.365 19.1758 132.131 19.1758C131.311 19.1758 130.549 19.0553 129.846 18.8145C129.149 18.5736 128.547 18.222 128.039 17.7598C127.531 17.291 127.134 16.7181 126.848 16.041C126.561 15.3639 126.418 14.5892 126.418 13.7168C126.418 12.9486 126.568 12.2357 126.867 11.5781C127.167 10.9206 127.58 10.3509 128.107 9.86914C128.635 9.38086 129.257 9 129.973 8.72656C130.695 8.45312 131.477 8.31641 132.316 8.31641C132.505 8.31641 132.704 8.32617 132.912 8.3457C133.127 8.35872 133.339 8.38151 133.547 8.41406C133.755 8.44661 133.957 8.48568 134.152 8.53125C134.348 8.57031 134.53 8.61263 134.699 8.6582L135.432 10.416L135.314 10.4844C135.139 10.2695 134.927 10.071 134.68 9.88867C134.439 9.70638 134.172 9.55339 133.879 9.42969C133.592 9.29948 133.29 9.19857 132.971 9.12695C132.652 9.05534 132.326 9.01953 131.994 9.01953C131.454 9.01953 130.959 9.11393 130.51 9.30273C130.067 9.49154 129.686 9.76823 129.367 10.1328C129.055 10.4909 128.811 10.9303 128.635 11.4512C128.459 11.972 128.371 12.5612 128.371 13.2188C128.371 13.9609 128.456 14.6543 128.625 15.2988C128.794 15.9368 129.048 16.4935 129.387 16.9688C129.725 17.4375 130.148 17.8086 130.656 18.082C131.164 18.349 131.757 18.4824 132.434 18.4824C132.759 18.4824 133.078 18.4434 133.391 18.3652C133.71 18.2806 134.009 18.1634 134.289 18.0137C134.576 17.8639 134.836 17.6849 135.07 17.4766C135.305 17.2617 135.507 17.0241 135.676 16.7637L135.793 16.8223ZM137.746 12.5156C137.746 11.9297 137.74 11.4219 137.727 10.9922C137.714 10.556 137.694 10.1816 137.668 9.86914C137.648 9.55013 137.619 9.2832 137.58 9.06836C137.548 8.85352 137.508 8.67773 137.463 8.54102V8.50195H139.729V8.54102C139.683 8.67773 139.641 8.85352 139.602 9.06836C139.569 9.2832 139.54 9.55013 139.514 9.86914C139.494 10.1816 139.478 10.556 139.465 10.9922C139.452 11.4219 139.445 11.9297 139.445 12.5156V14.9766C139.445 15.5625 139.452 16.0736 139.465 16.5098C139.478 16.946 139.494 17.3236 139.514 17.6426C139.54 17.9551 139.569 18.2188 139.602 18.4336C139.641 18.6484 139.683 18.8242 139.729 18.9609V19H137.463V18.9609C137.508 18.8242 137.548 18.6484 137.58 18.4336C137.619 18.2188 137.648 17.9551 137.668 17.6426C137.694 17.3236 137.714 16.946 137.727 16.5098C137.74 16.0736 137.746 15.5625 137.746 14.9766V12.5156ZM148.82 15.6992C148.645 15.6992 148.423 15.6992 148.156 15.6992C147.896 15.6992 147.609 15.6992 147.297 15.6992C146.984 15.6992 146.662 15.6992 146.33 15.6992C145.998 15.6992 145.682 15.7025 145.383 15.709C145.083 15.709 144.81 15.7122 144.562 15.7188C144.315 15.7188 144.123 15.7188 143.986 15.7188L143.625 16.4805C143.469 16.793 143.335 17.0664 143.225 17.3008C143.114 17.5286 143.023 17.7305 142.951 17.9062C142.88 18.082 142.827 18.235 142.795 18.3652C142.762 18.4889 142.746 18.6061 142.746 18.7168C142.746 18.7884 142.749 18.8438 142.756 18.8828C142.762 18.9154 142.772 18.9414 142.785 18.9609V19H141.066V18.9609C141.112 18.9154 141.184 18.8177 141.281 18.668C141.379 18.5117 141.49 18.3229 141.613 18.1016C141.743 17.8802 141.88 17.6296 142.023 17.3496C142.173 17.0697 142.32 16.7799 142.463 16.4805L146.447 8.25781H147.18L151.086 16.4805C151.236 16.793 151.385 17.0924 151.535 17.3789C151.691 17.6654 151.835 17.9225 151.965 18.1504C152.095 18.3717 152.209 18.5573 152.307 18.707C152.404 18.8503 152.469 18.9349 152.502 18.9609V19H150.002C150.015 18.9479 150.021 18.9023 150.021 18.8633C150.021 18.8177 150.021 18.7689 150.021 18.7168C150.021 18.5736 149.989 18.401 149.924 18.1992C149.865 17.9974 149.79 17.7923 149.699 17.584C149.615 17.3691 149.523 17.1641 149.426 16.9688C149.335 16.7734 149.26 16.6107 149.201 16.4805L148.82 15.6992ZM144.367 14.9375H144.963C145.236 14.9375 145.526 14.9375 145.832 14.9375C146.145 14.931 146.457 14.9277 146.77 14.9277C147.082 14.9277 147.385 14.9277 147.678 14.9277C147.971 14.9212 148.234 14.918 148.469 14.918L146.447 10.6016L144.367 14.9375ZM155.715 9.19531C155.708 9.72917 155.702 10.2467 155.695 10.748C155.695 10.9629 155.692 11.1842 155.686 11.4121C155.686 11.6335 155.682 11.8548 155.676 12.0762C155.676 12.2975 155.676 12.5091 155.676 12.7109C155.676 12.9062 155.676 13.082 155.676 13.2383C155.676 13.5638 155.676 13.9577 155.676 14.4199C155.682 14.8757 155.689 15.3444 155.695 15.8262C155.702 16.3079 155.712 16.7734 155.725 17.2227C155.738 17.6654 155.754 18.0365 155.773 18.3359C155.839 18.349 155.923 18.362 156.027 18.375C156.132 18.3815 156.239 18.3913 156.35 18.4043C156.467 18.4108 156.581 18.4173 156.691 18.4238C156.802 18.4238 156.896 18.4238 156.975 18.4238C157.333 18.4238 157.694 18.401 158.059 18.3555C158.43 18.3099 158.785 18.2253 159.123 18.1016C159.468 17.9714 159.79 17.7956 160.09 17.5742C160.389 17.3529 160.65 17.0697 160.871 16.7246C161.099 16.373 161.275 15.9531 161.398 15.4648C161.529 14.9701 161.594 14.3874 161.594 13.7168C161.594 12.2389 161.239 11.0996 160.529 10.2988C159.826 9.49805 158.775 9.09766 157.375 9.09766C157.238 9.09766 157.092 9.10091 156.936 9.10742C156.786 9.11393 156.636 9.1237 156.486 9.13672C156.337 9.14323 156.193 9.15299 156.057 9.16602C155.926 9.17904 155.812 9.1888 155.715 9.19531ZM153.693 8.48242C153.85 8.48893 153.996 8.49219 154.133 8.49219C154.25 8.4987 154.364 8.50195 154.475 8.50195C154.585 8.50195 154.667 8.50195 154.719 8.50195C154.81 8.50195 154.973 8.4987 155.207 8.49219C155.441 8.48568 155.705 8.47917 155.998 8.47266C156.298 8.45964 156.61 8.44987 156.936 8.44336C157.268 8.43034 157.574 8.42383 157.854 8.42383C158.615 8.42383 159.341 8.51172 160.031 8.6875C160.721 8.86328 161.327 9.15299 161.848 9.55664C162.375 9.95378 162.792 10.4779 163.098 11.1289C163.404 11.7734 163.557 12.571 163.557 13.5215C163.557 14.5436 163.381 15.4095 163.029 16.1191C162.678 16.8288 162.202 17.4082 161.604 17.8574C161.005 18.3001 160.308 18.6224 159.514 18.8242C158.726 19.0195 157.893 19.1172 157.014 19.1172C156.805 19.1172 156.545 19.1107 156.232 19.0977C155.92 19.0846 155.601 19.0716 155.275 19.0586C154.95 19.0456 154.641 19.0326 154.348 19.0195C154.061 19.0065 153.843 19 153.693 19V18.9609C153.739 18.8242 153.778 18.6484 153.811 18.4336C153.85 18.2188 153.879 17.9551 153.898 17.6426C153.924 17.3236 153.944 16.946 153.957 16.5098C153.97 16.0736 153.977 15.5625 153.977 14.9766V12.5156C153.977 11.9297 153.97 11.4186 153.957 10.9824C153.944 10.5462 153.924 10.1686 153.898 9.84961C153.879 9.5306 153.85 9.26367 153.811 9.04883C153.778 8.83398 153.739 8.6582 153.693 8.52148V8.48242ZM165.07 13.7168C165.07 12.9486 165.214 12.2357 165.5 11.5781C165.793 10.9206 166.19 10.3509 166.691 9.86914C167.193 9.38086 167.785 9 168.469 8.72656C169.152 8.45312 169.885 8.31641 170.666 8.31641C171.434 8.31641 172.157 8.44661 172.834 8.70703C173.518 8.96094 174.11 9.32552 174.611 9.80078C175.119 10.276 175.52 10.8522 175.812 11.5293C176.105 12.2064 176.252 12.9648 176.252 13.8047C176.252 14.5013 176.128 15.1751 175.881 15.8262C175.633 16.4707 175.272 17.0436 174.797 17.5449C174.322 18.0397 173.736 18.4368 173.039 18.7363C172.342 19.0293 171.545 19.1758 170.646 19.1758C169.885 19.1758 169.165 19.0488 168.488 18.7949C167.811 18.541 167.219 18.1797 166.711 17.7109C166.203 17.2357 165.803 16.6628 165.51 15.9922C165.217 15.3151 165.07 14.5566 165.07 13.7168ZM170.891 18.4824C171.385 18.4824 171.841 18.3848 172.258 18.1895C172.674 17.9941 173.033 17.7142 173.332 17.3496C173.638 16.985 173.872 16.5423 174.035 16.0215C174.204 15.4941 174.289 14.9017 174.289 14.2441C174.289 13.4954 174.208 12.8021 174.045 12.1641C173.889 11.526 173.648 10.9759 173.322 10.5137C173.003 10.0449 172.603 9.68034 172.121 9.41992C171.639 9.15299 171.076 9.01953 170.432 9.01953C169.937 9.01953 169.481 9.11393 169.064 9.30273C168.648 9.49154 168.286 9.76497 167.98 10.123C167.681 10.4811 167.447 10.9206 167.277 11.4414C167.108 11.9622 167.023 12.5547 167.023 13.2188C167.023 13.9609 167.105 14.6543 167.268 15.2988C167.437 15.9368 167.681 16.4935 168 16.9688C168.326 17.4375 168.729 17.8086 169.211 18.082C169.693 18.349 170.253 18.4824 170.891 18.4824ZM183 10.543H182.805C182.766 10.4323 182.701 10.2923 182.609 10.123C182.525 9.95378 182.408 9.78776 182.258 9.625C182.115 9.46224 181.936 9.32552 181.721 9.21484C181.506 9.09766 181.249 9.03906 180.949 9.03906C180.721 9.03906 180.516 9.07812 180.334 9.15625C180.158 9.22786 180.008 9.32878 179.885 9.45898C179.761 9.58919 179.667 9.74544 179.602 9.92773C179.536 10.1035 179.504 10.2956 179.504 10.5039C179.504 10.8424 179.605 11.1647 179.807 11.4707C180.015 11.7767 180.272 12.0827 180.578 12.3887C180.884 12.6882 181.216 12.9909 181.574 13.2969C181.932 13.6029 182.264 13.9219 182.57 14.2539C182.876 14.5859 183.13 14.9375 183.332 15.3086C183.54 15.6797 183.645 16.0768 183.645 16.5C183.645 16.8125 183.586 17.1348 183.469 17.4668C183.358 17.7988 183.176 18.0983 182.922 18.3652C182.668 18.6322 182.342 18.8503 181.945 19.0195C181.548 19.1953 181.066 19.2832 180.5 19.2832C180.188 19.2832 179.888 19.2572 179.602 19.2051C179.322 19.153 179.061 19.0879 178.82 19.0098C178.586 18.9382 178.374 18.86 178.186 18.7754C178.003 18.6842 177.85 18.5996 177.727 18.5215L177.902 16.6758H178.107C178.173 16.9036 178.267 17.1315 178.391 17.3594C178.521 17.5872 178.677 17.7956 178.859 17.9844C179.048 18.1667 179.266 18.3164 179.514 18.4336C179.768 18.5443 180.057 18.5996 180.383 18.5996C180.611 18.5996 180.826 18.5638 181.027 18.4922C181.229 18.4141 181.402 18.3066 181.545 18.1699C181.695 18.0332 181.812 17.8672 181.896 17.6719C181.981 17.4701 182.023 17.2454 182.023 16.998C182.023 16.7051 181.965 16.4349 181.848 16.1875C181.73 15.9336 181.574 15.6927 181.379 15.4648C181.184 15.2305 180.962 15.0059 180.715 14.791C180.474 14.5762 180.223 14.3581 179.963 14.1367C179.702 13.9154 179.449 13.6908 179.201 13.4629C178.96 13.2285 178.742 12.9779 178.547 12.7109C178.352 12.444 178.195 12.1608 178.078 11.8613C177.961 11.5553 177.902 11.2201 177.902 10.8555C177.902 10.4714 177.984 10.1263 178.146 9.82031C178.309 9.51432 178.524 9.25716 178.791 9.04883C179.058 8.83398 179.364 8.67122 179.709 8.56055C180.054 8.44336 180.412 8.38477 180.783 8.38477C181.057 8.38477 181.311 8.4043 181.545 8.44336C181.786 8.48242 182.001 8.53125 182.189 8.58984C182.385 8.64193 182.554 8.69727 182.697 8.75586C182.84 8.80794 182.958 8.85026 183.049 8.88281L183 10.543Z" fill="white"/>
<path d="M187.454 27L185 24.5463L182.546 27L185 29.4538L187.454 27ZM0.546249 27L3 29.4537L5.45374 27L3 24.5463L0.546249 27ZM185 26.575L3 26.575L3 27.425L185 27.425L185 26.575Z" fill="white"/>
<path d="M12.9756 47V46.9649C12.9873 46.9356 12.9961 46.8916 13.002 46.833C13.0078 46.7744 13.0107 46.7217 13.0107 46.6748C13.0107 46.4932 12.9844 46.294 12.9316 46.0772C12.8848 45.8545 12.791 45.5791 12.6504 45.251L11.5869 42.8604C11.2588 42.8486 10.8223 42.8428 10.2773 42.8428C9.73242 42.8428 9.14355 42.8428 8.51074 42.8428C8.04785 42.8428 7.59961 42.8428 7.16602 42.8428C6.73828 42.8428 6.35156 42.8486 6.00586 42.8604L4.99512 45.1807C4.90723 45.3975 4.81348 45.6348 4.71387 45.8926C4.61426 46.1504 4.56445 46.4111 4.56445 46.6748C4.56445 46.751 4.57031 46.8154 4.58203 46.8682C4.59375 46.9151 4.60547 46.9473 4.61719 46.9649V47H2.82422V46.9649C2.92969 46.8535 3.06152 46.6572 3.21973 46.376C3.37793 46.0889 3.55078 45.7315 3.73828 45.3037L8.77441 34.1328H9.47754L14.25 44.8731C14.3613 45.125 14.4756 45.3711 14.5928 45.6113C14.7158 45.8457 14.8301 46.0567 14.9355 46.2442C15.041 46.4317 15.1348 46.5899 15.2168 46.7188C15.2988 46.8477 15.3545 46.9297 15.3838 46.9649V47H12.9756ZM7.28027 42.0869C7.62012 42.0869 7.96875 42.0869 8.32617 42.0869C8.68359 42.0811 9.03223 42.0781 9.37207 42.0781C9.71777 42.0723 10.0488 42.0694 10.3652 42.0694C10.6816 42.0635 10.9688 42.0576 11.2266 42.0518L8.75684 36.4707L6.33105 42.0869H7.28027ZM19.3213 42.377C19.04 42.377 18.7998 42.3887 18.6006 42.4121C18.4072 42.4297 18.2578 42.4473 18.1523 42.4649V43.3789C18.1523 43.8828 18.1523 44.3047 18.1523 44.6445C18.1582 44.9844 18.1641 45.2686 18.1699 45.4971C18.1816 45.7256 18.1904 45.9102 18.1963 46.0508C18.2021 46.1856 18.2109 46.3027 18.2227 46.4024C18.375 46.4434 18.5361 46.4697 18.7061 46.4815C18.8818 46.4932 19.0195 46.499 19.1191 46.499C19.9277 46.499 20.5137 46.3233 20.877 45.9717C21.2461 45.6143 21.4307 45.0635 21.4307 44.3194C21.4307 44.0381 21.3867 43.7774 21.2988 43.5371C21.2109 43.2969 21.0791 43.0918 20.9033 42.9219C20.7275 42.752 20.5078 42.6201 20.2441 42.5264C19.9805 42.4268 19.6729 42.377 19.3213 42.377ZM18.1523 41.7793C18.2695 41.7969 18.375 41.8086 18.4688 41.8145C18.5625 41.8145 18.6592 41.8145 18.7588 41.8145C19.3506 41.8145 19.8193 41.6504 20.165 41.3223C20.5166 40.9942 20.6924 40.5049 20.6924 39.8545C20.6924 39.5908 20.6572 39.3477 20.5869 39.125C20.5166 38.9024 20.4141 38.7119 20.2793 38.5537C20.1504 38.3955 19.9863 38.2725 19.7871 38.1846C19.5938 38.0967 19.3711 38.0527 19.1191 38.0527C18.9492 38.0527 18.8057 38.0615 18.6885 38.0791C18.5713 38.0908 18.4717 38.1026 18.3896 38.1143C18.2959 38.1377 18.2168 38.1582 18.1523 38.1758V41.7793ZM16.3682 37.5342C16.4795 37.5401 16.5938 37.543 16.7109 37.543C16.8105 37.5488 16.9189 37.5518 17.0361 37.5518C17.1533 37.5518 17.2676 37.5518 17.3789 37.5518C17.5605 37.5518 17.8125 37.5401 18.1348 37.5166C18.457 37.4932 18.8584 37.4815 19.3389 37.4815C19.7666 37.4815 20.1621 37.5342 20.5254 37.6397C20.8945 37.7393 21.2109 37.8858 21.4746 38.0791C21.7441 38.2725 21.9521 38.5098 22.0986 38.791C22.251 39.0723 22.3271 39.3916 22.3271 39.749C22.3271 40.0537 22.2832 40.3262 22.1953 40.5664C22.1133 40.8008 21.9932 41.0088 21.835 41.1904C21.6768 41.3662 21.4863 41.5156 21.2637 41.6387C21.041 41.7559 20.7949 41.8496 20.5254 41.9199C20.918 41.9785 21.2754 42.0752 21.5977 42.21C21.9199 42.3447 22.1953 42.5147 22.4238 42.7197C22.6523 42.919 22.8281 43.1563 22.9512 43.4317C23.0742 43.7012 23.1357 44.0029 23.1357 44.3369C23.1357 45.2627 22.8047 45.957 22.1426 46.4199C21.4805 46.877 20.4932 47.1055 19.1807 47.1055C19.04 47.1055 18.8643 47.0996 18.6533 47.0879C18.4482 47.0762 18.2314 47.0645 18.0029 47.0527C17.7803 47.041 17.5635 47.0293 17.3525 47.0176C17.1475 47.0059 16.9746 47 16.834 47H16.3682V46.9649C16.4092 46.8418 16.4443 46.6836 16.4736 46.4902C16.5088 46.2969 16.5352 46.0596 16.5527 45.7783C16.5762 45.4912 16.5938 45.1514 16.6055 44.7588C16.6172 44.3662 16.623 43.9063 16.623 43.3789V41.1641C16.623 40.6367 16.6172 40.1768 16.6055 39.7842C16.5938 39.3916 16.5762 39.0518 16.5527 38.7647C16.5352 38.4776 16.5088 38.2373 16.4736 38.044C16.4443 37.8506 16.4092 37.6924 16.3682 37.5694V37.5342ZM24.4453 42.2451C24.4453 41.5537 24.5742 40.9121 24.832 40.3203C25.0957 39.7285 25.4531 39.2158 25.9043 38.7822C26.3555 38.3428 26.8887 38 27.5039 37.7539C28.1191 37.5078 28.7783 37.3848 29.4814 37.3848C30.1729 37.3848 30.8232 37.502 31.4326 37.7363C32.0479 37.9649 32.5811 38.293 33.0322 38.7207C33.4893 39.1485 33.8496 39.667 34.1133 40.2764C34.377 40.8858 34.5088 41.5684 34.5088 42.3242C34.5088 42.9512 34.3975 43.5576 34.1748 44.1436C33.9521 44.7236 33.627 45.2393 33.1992 45.6904C32.7715 46.1358 32.2441 46.4932 31.6172 46.7627C30.9902 47.0264 30.2725 47.1582 29.4639 47.1582C28.7783 47.1582 28.1309 47.044 27.5215 46.8154C26.9121 46.5869 26.3789 46.2617 25.9219 45.8399C25.4648 45.4121 25.1045 44.8965 24.8408 44.293C24.5771 43.6836 24.4453 43.001 24.4453 42.2451ZM29.6836 46.5342C30.1289 46.5342 30.5391 46.4463 30.9141 46.2705C31.2891 46.0947 31.6113 45.8428 31.8809 45.5147C32.1562 45.1865 32.3672 44.7881 32.5137 44.3194C32.666 43.8447 32.7422 43.3115 32.7422 42.7197C32.7422 42.0459 32.6689 41.4219 32.5225 40.8477C32.3818 40.2735 32.165 39.7783 31.8721 39.3623C31.585 38.9404 31.2246 38.6123 30.791 38.3779C30.3574 38.1377 29.8506 38.0176 29.2705 38.0176C28.8252 38.0176 28.415 38.1026 28.04 38.2725C27.665 38.4424 27.3398 38.6885 27.0645 39.0108C26.7949 39.333 26.584 39.7285 26.4316 40.1973C26.2793 40.666 26.2031 41.1992 26.2031 41.7969C26.2031 42.4649 26.2764 43.0889 26.4229 43.669C26.5752 44.2432 26.7949 44.7442 27.082 45.1719C27.375 45.5938 27.7383 45.9277 28.1719 46.1738C28.6055 46.4141 29.1094 46.5342 29.6836 46.5342ZM44.9414 45.9365C44.9414 46.0127 44.9326 46.0772 44.915 46.1299C44.9033 46.1826 44.8711 46.2266 44.8184 46.2617C44.4023 46.5547 43.916 46.7891 43.3594 46.9649C42.8086 47.1348 42.1611 47.2197 41.417 47.2197C40.5791 47.2197 39.8145 47.0996 39.123 46.8594C38.4375 46.6192 37.8486 46.2852 37.3564 45.8574C36.8643 45.4238 36.4805 44.9053 36.2051 44.3018C35.9355 43.6983 35.8008 43.0303 35.8008 42.2979C35.8008 41.6709 35.9238 41.0615 36.1699 40.4697C36.4219 39.8779 36.7822 39.3535 37.251 38.8965C37.7197 38.4395 38.2881 38.0733 38.9561 37.7979C39.6299 37.5225 40.3887 37.3848 41.2324 37.3848C41.6719 37.3848 42.0879 37.4111 42.4805 37.4639C42.873 37.5108 43.251 37.5869 43.6143 37.6924L44.2734 39.2744L44.1855 39.336C43.834 38.9317 43.4092 38.6123 42.9111 38.3779C42.4131 38.1377 41.8418 38.0176 41.1973 38.0176C40.6699 38.0176 40.1836 38.1026 39.7383 38.2725C39.2988 38.4424 38.915 38.6914 38.5869 39.0195C38.2646 39.3418 38.0127 39.7402 37.8311 40.2149C37.6494 40.6895 37.5586 41.2285 37.5586 41.832C37.5586 42.5117 37.6436 43.1416 37.8135 43.7217C37.9834 44.3018 38.2383 44.8057 38.5781 45.2334C38.918 45.6553 39.3369 45.9863 39.835 46.2266C40.3389 46.4668 40.9248 46.5869 41.5928 46.5869C42.167 46.5869 42.6123 46.5137 42.9287 46.3672C43.251 46.2207 43.4121 46.0537 43.4121 45.8662V45.4004C43.4121 45.0957 43.4092 44.832 43.4033 44.6094C43.3975 44.3867 43.3887 44.1963 43.377 44.0381C43.3652 43.874 43.3477 43.7334 43.3242 43.6162C43.3066 43.499 43.2832 43.3906 43.2539 43.291V43.2559H45.126V43.291C45.0967 43.3789 45.0703 43.4844 45.0469 43.6074C45.0234 43.7305 45.0029 43.877 44.9854 44.0469C44.9736 44.2168 44.9619 44.416 44.9502 44.6445C44.9443 44.8731 44.9414 45.1367 44.9414 45.4356V45.9365ZM52.7812 44.0293C52.623 44.0293 52.4238 44.0293 52.1836 44.0293C51.9492 44.0293 51.6914 44.0293 51.4102 44.0293C51.1289 44.0293 50.8389 44.0293 50.54 44.0293C50.2412 44.0293 49.957 44.0322 49.6875 44.0381C49.418 44.0381 49.1719 44.041 48.9492 44.0469C48.7266 44.0469 48.5537 44.0469 48.4307 44.0469L48.1055 44.7324C47.9648 45.0137 47.8447 45.2598 47.7451 45.4707C47.6455 45.6758 47.5635 45.8574 47.499 46.0156C47.4346 46.1738 47.3877 46.3115 47.3584 46.4287C47.3291 46.5401 47.3145 46.6455 47.3145 46.7451C47.3145 46.8096 47.3174 46.8594 47.3232 46.8945C47.3291 46.9238 47.3379 46.9473 47.3496 46.9649V47H45.8027V46.9649C45.8438 46.9238 45.9082 46.836 45.9961 46.7012C46.084 46.5606 46.1836 46.3906 46.2949 46.1914C46.4121 45.9922 46.5352 45.7666 46.6641 45.5147C46.7988 45.2627 46.9307 45.002 47.0596 44.7324L50.6455 37.332H51.3047L54.8203 44.7324C54.9551 45.0137 55.0898 45.2832 55.2246 45.541C55.3652 45.7988 55.4941 46.0303 55.6113 46.2354C55.7285 46.4346 55.8311 46.6016 55.9189 46.7363C56.0068 46.8652 56.0654 46.9414 56.0947 46.9649V47H53.8447C53.8564 46.9531 53.8623 46.9121 53.8623 46.877C53.8623 46.836 53.8623 46.792 53.8623 46.7451C53.8623 46.6162 53.833 46.461 53.7744 46.2793C53.7217 46.0977 53.6543 45.9131 53.5723 45.7256C53.4961 45.5322 53.4141 45.3477 53.3262 45.1719C53.2441 44.9961 53.1768 44.8496 53.124 44.7324L52.7812 44.0293ZM48.7734 43.3438H49.3096C49.5557 43.3438 49.8164 43.3438 50.0918 43.3438C50.373 43.3379 50.6543 43.335 50.9355 43.335C51.2168 43.335 51.4893 43.335 51.7529 43.335C52.0166 43.3291 52.2539 43.3262 52.4648 43.3262L50.6455 39.4414L48.7734 43.3438ZM58.9863 38.1758C58.9805 38.6563 58.9746 39.1221 58.9688 39.5733C58.9688 39.7666 58.9658 39.9658 58.96 40.1709C58.96 40.3701 58.957 40.5694 58.9512 40.7686C58.9512 40.9678 58.9512 41.1582 58.9512 41.3399C58.9512 41.5156 58.9512 41.6738 58.9512 41.8145C58.9512 42.1074 58.9512 42.4619 58.9512 42.8779C58.957 43.2881 58.9629 43.71 58.9688 44.1436C58.9746 44.5772 58.9834 44.9961 58.9951 45.4004C59.0068 45.7988 59.0215 46.1328 59.0391 46.4024C59.0977 46.4141 59.1738 46.4258 59.2676 46.4375C59.3613 46.4434 59.458 46.4522 59.5576 46.4639C59.6631 46.4697 59.7656 46.4756 59.8652 46.4815C59.9648 46.4815 60.0498 46.4815 60.1201 46.4815C60.4424 46.4815 60.7676 46.461 61.0957 46.4199C61.4297 46.3789 61.749 46.3027 62.0537 46.1914C62.3643 46.0742 62.6543 45.916 62.9238 45.7168C63.1934 45.5176 63.4277 45.2627 63.627 44.9522C63.832 44.6358 63.9902 44.2578 64.1016 43.8184C64.2188 43.3731 64.2773 42.8486 64.2773 42.2451C64.2773 40.9151 63.958 39.8897 63.3193 39.169C62.6865 38.4483 61.7402 38.0879 60.4805 38.0879C60.3574 38.0879 60.2256 38.0908 60.085 38.0967C59.9502 38.1026 59.8154 38.1113 59.6807 38.1231C59.5459 38.1289 59.417 38.1377 59.2939 38.1494C59.1768 38.1611 59.0742 38.1699 58.9863 38.1758ZM57.167 37.5342C57.3076 37.5401 57.4395 37.543 57.5625 37.543C57.668 37.5488 57.7705 37.5518 57.8701 37.5518C57.9697 37.5518 58.043 37.5518 58.0898 37.5518C58.1719 37.5518 58.3184 37.5488 58.5293 37.543C58.7402 37.5371 58.9775 37.5313 59.2412 37.5254C59.5107 37.5137 59.792 37.5049 60.085 37.499C60.3838 37.4873 60.6592 37.4815 60.9111 37.4815C61.5967 37.4815 62.25 37.5606 62.8711 37.7188C63.4922 37.877 64.0371 38.1377 64.5059 38.501C64.9805 38.8584 65.3555 39.3301 65.6309 39.916C65.9062 40.4961 66.0439 41.2139 66.0439 42.0694C66.0439 42.9893 65.8857 43.7686 65.5693 44.4072C65.2529 45.0459 64.8252 45.5674 64.2861 45.9717C63.7471 46.3701 63.1201 46.6602 62.4053 46.8418C61.6963 47.0176 60.9463 47.1055 60.1553 47.1055C59.9678 47.1055 59.7334 47.0996 59.4521 47.0879C59.1709 47.0762 58.8838 47.0645 58.5908 47.0527C58.2979 47.041 58.0195 47.0293 57.7559 47.0176C57.498 47.0059 57.3018 47 57.167 47V46.9649C57.208 46.8418 57.2432 46.6836 57.2725 46.4902C57.3076 46.2969 57.334 46.0596 57.3516 45.7783C57.375 45.4912 57.3926 45.1514 57.4043 44.7588C57.416 44.3662 57.4219 43.9063 57.4219 43.3789V41.1641C57.4219 40.6367 57.416 40.1768 57.4043 39.7842C57.3926 39.3916 57.375 39.0518 57.3516 38.7647C57.334 38.4776 57.3076 38.2373 57.2725 38.044C57.2432 37.8506 57.208 37.6924 57.167 37.5694V37.5342ZM67.4062 42.2451C67.4062 41.5537 67.5352 40.9121 67.793 40.3203C68.0566 39.7285 68.4141 39.2158 68.8652 38.7822C69.3164 38.3428 69.8496 38 70.4648 37.7539C71.0801 37.5078 71.7393 37.3848 72.4424 37.3848C73.1338 37.3848 73.7842 37.502 74.3936 37.7363C75.0088 37.9649 75.542 38.293 75.9932 38.7207C76.4502 39.1485 76.8105 39.667 77.0742 40.2764C77.3379 40.8858 77.4697 41.5684 77.4697 42.3242C77.4697 42.9512 77.3584 43.5576 77.1357 44.1436C76.9131 44.7236 76.5879 45.2393 76.1602 45.6904C75.7324 46.1358 75.2051 46.4932 74.5781 46.7627C73.9512 47.0264 73.2334 47.1582 72.4248 47.1582C71.7393 47.1582 71.0918 47.044 70.4824 46.8154C69.873 46.5869 69.3398 46.2617 68.8828 45.8399C68.4258 45.4121 68.0654 44.8965 67.8018 44.293C67.5381 43.6836 67.4062 43.001 67.4062 42.2451ZM72.6445 46.5342C73.0898 46.5342 73.5 46.4463 73.875 46.2705C74.25 46.0947 74.5723 45.8428 74.8418 45.5147C75.1172 45.1865 75.3281 44.7881 75.4746 44.3194C75.627 43.8447 75.7031 43.3115 75.7031 42.7197C75.7031 42.0459 75.6299 41.4219 75.4834 40.8477C75.3428 40.2735 75.126 39.7783 74.833 39.3623C74.5459 38.9404 74.1855 38.6123 73.752 38.3779C73.3184 38.1377 72.8115 38.0176 72.2314 38.0176C71.7861 38.0176 71.376 38.1026 71.001 38.2725C70.626 38.4424 70.3008 38.6885 70.0254 39.0108C69.7559 39.333 69.5449 39.7285 69.3926 40.1973C69.2402 40.666 69.1641 41.1992 69.1641 41.7969C69.1641 42.4649 69.2373 43.0889 69.3838 43.669C69.5361 44.2432 69.7559 44.7442 70.043 45.1719C70.3359 45.5938 70.6992 45.9277 71.1328 46.1738C71.5664 46.4141 72.0703 46.5342 72.6445 46.5342ZM83.543 39.3887H83.3672C83.332 39.2891 83.2734 39.1631 83.1914 39.0108C83.1152 38.8584 83.0098 38.709 82.875 38.5625C82.7461 38.416 82.585 38.293 82.3916 38.1934C82.1982 38.0879 81.9668 38.0352 81.6973 38.0352C81.4922 38.0352 81.3076 38.0703 81.1436 38.1406C80.9854 38.2051 80.8506 38.2959 80.7393 38.4131C80.6279 38.5303 80.543 38.6709 80.4844 38.835C80.4258 38.9932 80.3965 39.166 80.3965 39.3535C80.3965 39.6582 80.4873 39.9483 80.6689 40.2236C80.8564 40.499 81.0879 40.7744 81.3633 41.0498C81.6387 41.3194 81.9375 41.5918 82.2598 41.8672C82.582 42.1426 82.8809 42.4297 83.1562 42.7285C83.4316 43.0274 83.6602 43.3438 83.8418 43.6777C84.0293 44.0117 84.123 44.3692 84.123 44.75C84.123 45.0313 84.0703 45.3213 83.9648 45.6201C83.8652 45.919 83.7012 46.1885 83.4727 46.4287C83.2441 46.669 82.9512 46.8652 82.5938 47.0176C82.2363 47.1758 81.8027 47.2549 81.293 47.2549C81.0117 47.2549 80.7422 47.2315 80.4844 47.1846C80.2324 47.1377 79.998 47.0791 79.7812 47.0088C79.5703 46.9444 79.3799 46.874 79.21 46.7979C79.0459 46.7158 78.9082 46.6397 78.7969 46.5694L78.9551 44.9082H79.1396C79.1982 45.1133 79.2832 45.3184 79.3945 45.5235C79.5117 45.7285 79.6523 45.916 79.8164 46.086C79.9863 46.25 80.1826 46.3848 80.4053 46.4902C80.6338 46.5899 80.8945 46.6397 81.1875 46.6397C81.3926 46.6397 81.5859 46.6074 81.7676 46.543C81.9492 46.4727 82.1045 46.376 82.2334 46.2529C82.3682 46.1299 82.4736 45.9805 82.5498 45.8047C82.626 45.6231 82.6641 45.4209 82.6641 45.1983C82.6641 44.9346 82.6113 44.6914 82.5059 44.4688C82.4004 44.2402 82.2598 44.0235 82.084 43.8184C81.9082 43.6074 81.709 43.4053 81.4863 43.2119C81.2695 43.0186 81.0439 42.8223 80.8096 42.6231C80.5752 42.4238 80.3467 42.2217 80.124 42.0166C79.9072 41.8057 79.7109 41.5801 79.5352 41.3399C79.3594 41.0996 79.2188 40.8447 79.1133 40.5752C79.0078 40.2998 78.9551 39.9981 78.9551 39.6699C78.9551 39.3242 79.0283 39.0137 79.1748 38.7383C79.3213 38.4629 79.5146 38.2315 79.7549 38.044C79.9951 37.8506 80.2705 37.7041 80.5811 37.6045C80.8916 37.499 81.2139 37.4463 81.5479 37.4463C81.7939 37.4463 82.0225 37.4639 82.2334 37.499C82.4502 37.5342 82.6436 37.5781 82.8135 37.6309C82.9893 37.6777 83.1416 37.7276 83.2705 37.7803C83.3994 37.8272 83.5049 37.8652 83.5869 37.8945L83.543 39.3887Z" fill="white"/>
</svg>
