<svg width="16" height="16" viewBox="0 0 16 16" fill="none" xmlns="http://www.w3.org/2000/svg">
<g clip-path="url(#clip0_116_480)">
<path d="M14.6667 11.28V13.28C14.6674 13.4657 14.6294 13.6495 14.555 13.8196C14.4806 13.9897 14.3715 14.1424 14.2347 14.2679C14.0979 14.3934 13.9364 14.489 13.7605 14.5485C13.5846 14.608 13.3982 14.6301 13.2133 14.6133C11.1619 14.3904 9.19132 13.6894 7.45999 12.5667C5.84921 11.5431 4.48355 10.1775 3.45999 8.56668C2.33331 6.82748 1.63215 4.84734 1.41332 2.78668C1.39666 2.60233 1.41857 2.41652 1.47766 2.2411C1.53674 2.06567 1.6317 1.90447 1.7565 1.76776C1.8813 1.63105 2.03319 1.52182 2.20252 1.44703C2.37184 1.37224 2.55488 1.33352 2.73999 1.33335H4.73999C5.06353 1.33016 5.37719 1.44473 5.6225 1.6557C5.86781 1.86667 6.02804 2.15964 6.07332 2.48001C6.15774 3.12006 6.31429 3.7485 6.53999 4.35335C6.62969 4.59196 6.6491 4.85129 6.59593 5.1006C6.54276 5.34991 6.41923 5.57875 6.23999 5.76001L5.39332 6.60668C6.34236 8.27571 7.72429 9.65764 9.39332 10.6067L10.24 9.76001C10.4213 9.58077 10.6501 9.45725 10.8994 9.40408C11.1487 9.35091 11.408 9.37032 11.6467 9.46001C12.2515 9.68571 12.8799 9.84227 13.52 9.92668C13.8438 9.97237 14.1396 10.1355 14.351 10.385C14.5624 10.6345 14.6748 10.9531 14.6667 11.28Z" stroke="black" stroke-width="1.33333" stroke-linecap="round" stroke-linejoin="round"/>
</g>
<defs>
<clipPath id="clip0_116_480">
<rect width="16" height="16" fill="white"/>
</clipPath>
</defs>
</svg>
