<svg width="48" height="48" viewBox="0 0 48 48" fill="none" xmlns="http://www.w3.org/2000/svg">
<path d="M39.9547 24.4245H39.191C40.4693 23.4933 41.1432 21.7167 41.1432 20.0136C41.1432 17.8064 39.3475 16.0107 37.1403 16.0107C34.9332 16.0107 33.1348 17.8064 33.1348 20.0136C33.1348 21.7167 33.8091 23.4933 35.0883 24.4245H34.3233C33.9978 24.4245 33.6763 24.4563 33.3624 24.5194C32.2003 22.9691 30.2787 21.953 28.1073 21.953H26.5772C27.2081 21.5422 27.7652 20.9727 28.2212 20.2559C29.0325 18.9807 29.4978 17.3047 29.4978 15.6577C29.4978 12.6269 27.032 10.1613 24.0014 10.1613C20.9707 10.1613 18.505 12.627 18.505 15.6577C18.505 17.2408 18.9663 18.9344 19.739 20.188C20.2039 20.9422 20.7647 21.5322 21.4041 21.9529H19.8929C17.7222 21.9529 15.8013 22.9691 14.6397 24.5196C14.3245 24.4564 14.0024 24.4244 13.6768 24.4244H12.9131C14.1914 23.4932 14.8653 21.7166 14.8653 20.0135C14.8653 17.8063 13.0696 16.0106 10.8624 16.0106C8.65525 16.0106 6.85956 17.8063 6.85956 20.0135C6.85956 21.7166 7.53344 23.4932 8.81172 24.4244H8.04541C5.48941 24.4244 3.41003 26.3786 3.41003 28.7808V33.7079C3.41003 34.1221 3.74585 34.4579 4.16003 34.4579C4.57422 34.4579 4.91003 34.1221 4.91003 33.7079V28.7808C4.91003 27.2058 6.31657 25.9244 8.04541 25.9244H13.6768C13.7367 25.9244 13.7959 25.9283 13.8555 25.9313C13.611 26.5668 13.4769 27.2513 13.4769 27.9648V33.7078C13.4769 34.122 13.8127 34.4578 14.2269 34.4578C14.6411 34.4578 14.9769 34.122 14.9769 33.7078V27.9648C14.9769 27.1903 15.1908 26.4609 15.5669 25.8234C15.5886 25.7939 15.608 25.7623 15.6255 25.7292C16.4736 24.3708 18.0681 23.4529 19.8929 23.4529H28.1074C29.9346 23.4529 31.5311 24.3722 32.3792 25.7324C32.3959 25.7639 32.4144 25.7941 32.4351 25.8223C32.8118 26.4601 33.026 27.1898 33.026 27.9648V33.7078C33.026 34.122 33.3618 34.4578 33.776 34.4578C34.1902 34.4578 34.526 34.122 34.526 33.7078V27.9648C34.526 27.2512 34.392 26.5667 34.1473 25.9313C34.2059 25.9283 34.2644 25.9244 34.3234 25.9244H39.9548C41.6837 25.9244 43.0902 27.2058 43.0902 28.7808V33.7079C43.0902 34.1221 43.426 34.4579 43.8402 34.4579C44.2544 34.4579 44.5902 34.1221 44.5902 33.7079V28.7808C44.5902 26.3786 42.5108 24.4244 39.9548 24.4244L39.9547 24.4245ZM37.1403 17.5106C38.5204 17.5106 39.6432 18.6335 39.6432 20.0135C39.6432 21.4963 38.8667 23.5847 37.1403 23.5847C35.414 23.5847 34.6348 21.4964 34.6348 20.0135C34.6348 18.6334 35.7588 17.5106 37.1403 17.5106ZM20.0049 15.6577C20.0049 13.4541 21.7977 11.6613 24.0013 11.6613C26.2049 11.6613 27.9977 13.4541 27.9977 15.6577C27.9977 17.8059 26.9127 21.2141 24.0013 21.2141C22.7618 21.2141 21.7574 20.6041 21.0158 19.401C20.3828 18.374 20.0048 16.9747 20.0048 15.6577H20.0049ZM10.8623 17.5106C12.2424 17.5106 13.3652 18.6335 13.3652 20.0135C13.3652 21.4963 12.5886 23.5847 10.8623 23.5847C9.136 23.5847 8.35947 21.4964 8.35947 20.0135C8.35947 18.6334 9.48231 17.5106 10.8623 17.5106ZM8.26263 10.2604L7.97275 12.2602C7.93281 12.5356 8.04878 12.8105 8.27369 12.9742C8.49869 13.1379 8.79588 13.1636 9.04572 13.0408L10.8621 12.1483L12.6759 13.0406C12.7808 13.0923 12.8941 13.1177 13.0068 13.1177C13.1625 13.1177 13.3173 13.0693 13.4478 12.9745C13.6728 12.811 13.7889 12.5363 13.7493 12.261L13.4616 10.2605L14.8713 8.80809C15.0649 8.6085 15.1323 8.31806 15.0462 8.05359C14.96 7.78912 14.7347 7.59394 14.4605 7.54669L12.4674 7.20291L11.526 5.41444C11.3963 5.16816 11.141 5.01394 10.8627 5.01384H10.8623C10.5842 5.01384 10.3288 5.16788 10.1989 5.41388L9.25497 7.20291L7.26128 7.54669C6.98707 7.59403 6.7616 7.78922 6.67553 8.05387C6.58947 8.31853 6.65707 8.60906 6.85103 8.80856L8.26253 10.2606L8.26263 10.2604ZM9.87372 8.61816C10.103 8.57859 10.301 8.43478 10.4096 8.22909L10.8617 7.37231L11.3123 8.22834C11.4208 8.4345 11.619 8.5785 11.8485 8.61816L12.8052 8.78316L12.1288 9.48009C11.967 9.64688 11.8915 9.87919 11.9246 10.1092L12.0623 11.0671L11.1934 10.6397C10.9848 10.537 10.7403 10.5369 10.5317 10.6395L9.66138 11.0671L9.80013 10.11C9.8335 9.87956 9.75794 9.64659 9.59566 9.47962L8.91831 8.78287L9.87372 8.61816ZM21.4017 6.46313L21.1119 8.46253C21.072 8.73797 21.1879 9.01284 21.4129 9.17653C21.5435 9.27159 21.6984 9.32006 21.8543 9.32006C21.967 9.32006 22.0802 9.29466 22.185 9.24319L24.0014 8.35069L25.8152 9.243C26.0648 9.36591 26.3619 9.34041 26.587 9.17681C26.8121 9.01322 26.9282 8.73863 26.8886 8.46328L26.601 6.46313L28.0102 5.01347C28.2042 4.81397 28.2718 4.52344 28.1857 4.25878C28.0997 3.99413 27.8742 3.79894 27.6 3.75159L25.6068 3.40781L24.6653 1.61934C24.5357 1.37306 24.2804 1.21884 24.002 1.21875H24.0017C23.7235 1.21875 23.4681 1.37278 23.3383 1.61878L22.3943 3.40781L20.4007 3.75159C20.1264 3.79894 19.9008 3.99431 19.8149 4.25906C19.7289 4.52381 19.7967 4.81444 19.9908 5.01384L21.4019 6.46313H21.4017ZM23.0128 4.82316C23.2421 4.78359 23.4401 4.63978 23.5487 4.43409L24.0007 3.57731L24.4514 4.43344C24.5598 4.63959 24.758 4.78359 24.9875 4.82316L25.9428 4.98788L25.2681 5.682C25.106 5.84878 25.0305 6.08128 25.0636 6.31153L25.2013 7.26938L24.3324 6.84197C24.2281 6.79059 24.1147 6.76491 24.0014 6.76491C23.888 6.76491 23.7749 6.7905 23.6706 6.84178L22.8004 7.26938L22.9392 6.31238C22.9726 6.08175 22.8969 5.84859 22.7343 5.68153L22.0586 4.98769L23.0126 4.82316H23.0128ZM34.5408 9.98175L34.2509 11.9838C34.211 12.2592 34.3269 12.5341 34.5519 12.6978C34.6826 12.7928 34.8374 12.8413 34.9933 12.8413C35.106 12.8413 35.2191 12.8159 35.3239 12.7644L37.1403 11.8719L38.9541 12.7643C39.2039 12.8872 39.501 12.8616 39.7259 12.6982C39.951 12.5347 40.0671 12.26 40.0275 11.9846L39.7397 9.98175L41.149 8.53209C41.343 8.33259 41.4106 8.04206 41.3245 7.77741C41.2384 7.51275 41.013 7.31756 40.7388 7.27022L38.7456 6.92644L37.8042 5.13797C37.6745 4.89169 37.4193 4.73747 37.1409 4.73738H37.1405C36.8624 4.73738 36.607 4.89141 36.4772 5.13741L35.5332 6.92644L33.5395 7.27031C33.2652 7.31766 33.0396 7.51303 32.9537 7.77778C32.8677 8.04253 32.9355 8.33316 33.1296 8.53266L34.5408 9.98175ZM36.1518 8.34178C36.3812 8.30222 36.5792 8.15841 36.6877 7.95272L37.1398 7.09594L37.5904 7.95197C37.6989 8.15812 37.8971 8.30213 38.1266 8.34178L39.0819 8.50659L38.4072 9.20062C38.2451 9.36731 38.1695 9.59981 38.2026 9.83006L38.3406 10.7908L37.4716 10.3633C37.263 10.2607 37.0185 10.2607 36.8098 10.3631L35.9393 10.7908L36.0783 9.83091C36.1116 9.60028 36.0359 9.36722 35.8733 9.20016L35.1977 8.50631L36.1517 8.34178H36.1518ZM24.0015 33.3407C21.5013 33.3407 19.4671 35.3748 19.4671 37.8751C19.4671 40.3754 21.5012 42.4095 24.0015 42.4095C26.5018 42.4095 28.5359 40.3754 28.5359 37.8751C28.5359 35.3748 26.5018 33.3407 24.0015 33.3407ZM24.0015 40.9095C22.3283 40.9095 20.9671 39.5483 20.9671 37.8751C20.9671 36.2019 22.3283 34.8407 24.0015 34.8407C25.6746 34.8407 27.0359 36.2019 27.0359 37.8751C27.0359 39.5483 25.6746 40.9095 24.0015 40.9095ZM32.4716 36.1442L31.1014 35.5125L30.6931 34.524L31.2138 33.1086C31.3148 32.8342 31.247 32.5261 31.0403 32.3193L30.0322 31.3112V28.927C30.0322 28.5128 29.6964 28.177 29.2822 28.177C28.868 28.177 28.5322 28.5128 28.5322 28.927V30.7495L27.353 31.1834L26.3614 30.7727L25.7297 29.4045C25.607 29.1389 25.3412 28.9689 25.0488 28.9689H22.9519C22.6594 28.9689 22.3937 29.1389 22.271 29.4045L21.6392 30.7729L20.65 31.1832L19.4684 30.7485V28.9269C19.4684 28.5127 19.1326 28.1769 18.7184 28.1769C18.3042 28.1769 17.9684 28.5127 17.9684 28.9269V31.3137L16.9629 32.3192C16.7561 32.526 16.6884 32.8341 16.7894 33.1085L17.3099 34.5233L16.8995 35.5124L15.5312 36.1443C15.2656 36.2669 15.0956 36.5328 15.0956 36.8252V38.9247C15.0956 39.2172 15.2656 39.483 15.5312 39.6056L16.8995 40.2375L17.3099 41.2266L16.7894 42.6414C16.6884 42.9158 16.7562 43.2239 16.9629 43.4307L18.4458 44.9137C18.6526 45.1205 18.9606 45.1882 19.2351 45.0872L20.65 44.5667L21.6392 44.977L22.271 46.3454C22.3937 46.611 22.6595 46.781 22.9519 46.781H25.0488C25.3413 46.781 25.607 46.611 25.7297 46.3454L26.3614 44.9772L27.353 44.5665L28.7681 45.0871C29.0426 45.1882 29.3507 45.1203 29.5574 44.9136L31.0403 43.4306C31.2471 43.2238 31.3148 42.9158 31.2138 42.6413L30.6931 41.2259L31.1014 40.2374L32.4716 39.6057C32.7374 39.4832 32.9076 39.2172 32.9076 38.9246V36.8251C32.9076 36.5324 32.7374 36.2665 32.4716 36.144V36.1442ZM31.4076 38.4447L30.2065 38.9984C30.0348 39.0775 29.8995 39.2184 29.8274 39.3931L29.1948 40.9238C29.1229 41.0978 29.1191 41.2926 29.1842 41.4692L29.6404 42.7093L28.8358 43.514L27.5957 43.0577C27.4188 42.9925 27.2238 42.9966 27.0497 43.0687L25.5163 43.7038C25.3421 43.776 25.2015 43.9111 25.1223 44.0823L24.5688 45.2812H23.4316L22.878 44.0823C22.7989 43.9112 22.6585 43.7762 22.4845 43.704L20.9538 43.0688C20.7796 42.9966 20.5844 42.9925 20.4074 43.0577L19.1673 43.514L18.3626 42.7093L18.8189 41.4692C18.884 41.2922 18.8801 41.0971 18.8077 40.9228L18.1726 39.3921C18.1004 39.2181 17.9653 39.0776 17.7943 38.9986L16.5954 38.445V37.305L17.7943 36.7514C17.9653 36.6724 18.1004 36.5319 18.1726 36.3579L18.8077 34.8272C18.88 34.6529 18.8839 34.4578 18.8189 34.2808L18.3626 33.0407L19.1673 32.236L20.4074 32.6923C20.5844 32.7575 20.7795 32.7534 20.9538 32.6812L22.4845 32.046C22.6585 31.9738 22.7989 31.8388 22.878 31.6677L23.4316 30.4688H24.5688L25.1223 31.6677C25.2014 31.8389 25.3421 31.9741 25.5163 32.0462L27.0497 32.6813C27.2239 32.7535 27.4188 32.7575 27.5957 32.6923L28.8358 32.236L29.6404 33.0407L29.1842 34.2808C29.1192 34.4575 29.1229 34.6522 29.1948 34.8262L29.8274 36.3569C29.8996 36.5316 30.0349 36.6725 30.2065 36.7516L31.4076 37.3053V38.4446V38.4447ZM25.7634 36.4169C26.0698 36.6958 26.092 37.1701 25.8132 37.4764L24.1682 39.2835C24.0319 39.4332 23.841 39.5214 23.6388 39.5282C23.6303 39.5285 23.622 39.5286 23.6135 39.5286C23.4202 39.5286 23.234 39.4538 23.0941 39.3195L22.2224 38.4824C21.9236 38.1954 21.914 37.7207 22.2009 37.4219C22.4879 37.1232 22.9626 37.1136 23.2614 37.4004L23.5775 37.704L24.704 36.4665C24.9828 36.1602 25.4572 36.1379 25.7635 36.4167L25.7634 36.4169Z" fill="black"/>
</svg>
